<svg width="29" height="28" viewBox="0 0 29 28" fill="none" xmlns="http://www.w3.org/2000/svg">
<path d="M14.149 3.2729C14.3724 3.17531 14.6263 3.17531 14.8497 3.2729C19.1883 5.16852 23.3002 7.48583 27.1337 10.1729C27.4111 10.3673 27.5514 10.7045 27.4937 11.0383C27.4361 11.3721 27.1909 11.6427 26.8643 11.7328C26.0652 11.9534 25.2731 12.191 24.4881 12.4441C21.3018 13.4717 18.2347 14.7647 15.3126 16.297L15.3088 16.299C15.1763 16.3685 15.0441 16.4384 14.9122 16.5089C14.6546 16.6466 14.3452 16.6466 14.0875 16.5089C13.9544 16.4378 13.8209 16.3671 13.6872 16.297C12.2423 15.5393 10.7619 14.8401 9.24927 14.2026V13.9417C9.24927 13.7884 9.32792 13.6524 9.44962 13.5787C11.2056 12.5149 13.0169 11.5333 14.8781 10.6393C15.3137 10.4301 15.4972 9.90734 15.288 9.47173C15.0788 9.03613 14.556 8.85262 14.1204 9.06185C12.208 9.98046 10.3469 10.989 8.54285 12.082C8.0139 12.4024 7.65831 12.9269 7.54135 13.5145C6.54394 13.1308 5.53342 12.7734 4.51061 12.4436C3.72564 12.1904 2.93345 11.9534 2.1344 11.7328C1.80783 11.6427 1.56264 11.3721 1.50498 11.0383C1.44732 10.7044 1.58756 10.3673 1.86498 10.1729C5.69846 7.48581 9.8104 5.16852 14.149 3.2729Z" fill="#1FC827"/>
<path d="M15.7369 18.0524C18.5823 16.5321 21.5717 15.2468 24.6794 14.2224C24.836 15.873 24.936 17.54 24.9774 19.2215C24.9863 19.5822 24.7728 19.9114 24.4398 20.0505C21.1135 21.4392 17.9495 23.1398 14.9845 25.1157C14.6907 25.3115 14.3079 25.3115 14.0141 25.1157C11.0491 23.1398 7.88512 21.4392 4.5588 20.0505C4.22579 19.9114 4.01229 19.5822 4.02118 19.2215C4.0626 17.5399 4.16261 15.8728 4.31925 14.222C5.39375 14.5762 6.45411 14.9616 7.49927 15.377V16.8592C6.97619 17.1618 6.62427 17.7273 6.62427 18.3751C6.62427 18.9529 6.90436 19.4654 7.33619 19.7841C7.23176 20.2281 7.0772 20.6627 6.8725 21.0788C7.40064 21.3281 7.92427 21.5853 8.44322 21.8505C8.73877 21.2494 8.95307 20.6184 9.0861 19.9742C9.69784 19.7015 10.1243 19.0881 10.1243 18.3751C10.1243 17.7273 9.77234 17.1618 9.24927 16.8592V16.107C10.6159 16.7041 11.9546 17.3534 13.2628 18.0524C14.0358 18.4654 14.9639 18.4654 15.7369 18.0524Z" fill="#1FC827"/>
<path d="M5.70519 22.7061C6.19418 22.2171 6.58346 21.6663 6.8725 21.0788C7.40064 21.3281 7.92427 21.5853 8.44322 21.8505C8.07157 22.6063 7.57118 23.315 6.94263 23.9435C6.60092 24.2852 6.0469 24.2852 5.70519 23.9435C5.36349 23.6018 5.36349 23.0478 5.70519 22.7061Z" fill="#1FC827"/>
</svg>
