<svg width="20" height="18" viewBox="0 0 20 18" fill="none" xmlns="http://www.w3.org/2000/svg">
<g clip-path="url(#clip0_1199_300)">
<path d="M10.0119 15.957C7.01369 15.957 4.01627 15.957 1.01806 15.957C0.714934 15.957 0.574786 16.0958 0.574786 16.395C0.574786 16.4725 0.578723 16.55 0.573999 16.6268C0.5677 16.7198 0.558252 16.8128 0.54093 16.9035C0.476368 17.2345 0.159068 17.4996 -0.220432 17.4958C-0.601507 17.4919 -0.917233 17.2089 -0.974709 16.8454C-0.988094 16.7601 -0.99518 16.6725 -0.99518 16.5865C-0.995967 14.8252 -1.00778 13.0632 -0.991243 11.302C-0.981795 10.2756 -0.602295 9.38258 0.125212 8.63917C0.566913 8.18801 1.09207 7.86708 1.69282 7.66243C2.16522 7.50196 2.65338 7.45312 3.15098 7.45312C7.76246 7.45468 12.3739 7.4508 16.9854 7.45623C18.3365 7.45778 19.4309 7.99421 20.2419 9.06088C20.6403 9.58568 20.8781 10.1818 20.9592 10.833C20.9867 11.0523 20.9985 11.2756 20.9993 11.4973C21.0025 13.2074 21.0017 14.9175 21.0009 16.6275C21.0009 16.895 20.934 17.1384 20.7104 17.3151C20.4741 17.502 20.2104 17.5508 19.9293 17.4368C19.66 17.3268 19.49 17.1244 19.4514 16.8353C19.4317 16.6896 19.4341 16.5399 19.4301 16.3927C19.4238 16.1547 19.3238 16.0113 19.1239 15.9671C19.0798 15.957 19.0333 15.9578 18.9876 15.9578C15.9965 15.9578 13.0054 15.9578 10.0135 15.9578L10.0119 15.957Z" fill="white"/>
<path d="M9.90295 0.5C11.8477 0.5 13.7916 0.5 15.7356 0.5C16.3867 0.5 16.9954 0.643411 17.5205 1.03953C18.1961 1.54884 18.5905 2.21938 18.6236 3.06124C18.6519 3.77519 18.6393 4.4907 18.6425 5.20543C18.6448 5.66589 18.6425 6.12636 18.6425 6.58682C18.6425 6.62791 18.6401 6.67132 18.6291 6.71085C18.5952 6.83566 18.5267 6.88527 18.3976 6.86124C18.2567 6.83488 18.1205 6.77829 17.9795 6.76279C17.6481 6.72713 17.3158 6.70233 16.9828 6.68527C16.7607 6.67364 16.6922 6.63411 16.6607 6.41938C16.56 5.73876 15.9198 5.12636 15.101 5.13566C14.1877 5.14574 13.2744 5.13798 12.3618 5.13798C11.6824 5.13798 11.1021 5.53643 10.8714 6.16434C10.8383 6.25426 10.8257 6.35194 10.8084 6.44651C10.7761 6.61628 10.7123 6.67984 10.5407 6.68217C10.1809 6.68605 9.82028 6.68605 9.46046 6.68217C9.29512 6.68062 9.22977 6.61628 9.19985 6.42791C9.15812 6.16357 9.05419 5.92791 8.88413 5.72093C8.57627 5.34574 8.17788 5.14186 7.68657 5.13953C6.74412 5.13488 5.80167 5.13721 4.85843 5.13876C4.06636 5.13953 3.44672 5.74884 3.34594 6.41783C3.31366 6.63411 3.24831 6.67209 3.02628 6.68605C2.65859 6.71008 2.2909 6.74419 1.924 6.78295C1.8114 6.79457 1.70354 6.84264 1.59174 6.86124C1.47127 6.88062 1.41537 6.84031 1.38151 6.72403C1.36813 6.67829 1.36183 6.62946 1.36183 6.5814C1.36104 5.47674 1.34608 4.37209 1.36498 3.26744C1.38466 2.11163 1.92714 1.26202 2.98849 0.748062C3.40893 0.545736 3.8648 0.5 4.32618 0.5C6.18511 0.5 8.04403 0.5 9.90295 0.5Z" fill="white"/>
</g>
<defs>
<clipPath id="clip0_1199_300">
<rect width="22" height="17" fill="white" transform="translate(-1 0.5)"/>
</clipPath>
</defs>
</svg>
