<svg width="20" height="21" viewBox="0 0 20 21" fill="none" xmlns="http://www.w3.org/2000/svg">
<g clip-path="url(#clip0_1199_305)">
<g clip-path="url(#clip1_1199_305)">
<path d="M0.270432 14.2578H10.111V16.0659H16.2625V14.2618H18.7064C18.8646 16.4121 18.8771 18.3266 16.6716 19.786C16.6447 19.8037 16.623 19.828 16.5633 19.8812C16.8345 20.1065 17.1018 20.3291 17.3665 20.5491C17.0092 20.8907 16.7222 21.1652 16.3932 21.4805C16.1029 21.181 15.7889 20.8335 15.4467 20.517C15.3462 20.4237 15.1683 20.3856 15.0224 20.3764C14.784 20.362 14.5423 20.4007 14.302 20.4014C11.1067 20.4033 7.91145 20.4027 4.71554 20.4027C4.56251 20.4027 4.39897 20.4322 4.25777 20.3895C3.83151 20.2615 3.56092 20.4592 3.3074 20.7646C3.09132 21.0247 2.84502 21.2591 2.61975 21.4969C2.31566 21.177 2.04046 20.888 1.73572 20.5669C1.93998 20.3863 2.19941 20.1564 2.49102 19.8976C2.29004 19.7538 2.13964 19.6539 1.99712 19.5436C0.929186 18.7207 0.351873 17.6291 0.276343 16.2886C0.238906 15.6246 0.269775 14.9566 0.269775 14.2578H0.270432Z" fill="white"/>
<path d="M0.275543 9.28721C0.270288 9.16834 0.261093 9.06128 0.261093 8.95423C0.260437 7.21375 0.258466 5.47393 0.261093 3.73345C0.26372 1.8209 1.59108 0.486313 3.50101 0.500106C4.14203 0.504703 4.80275 0.491568 5.41882 0.636717C6.5117 0.894833 7.20001 1.65276 7.53235 2.72069C7.59671 2.92824 7.68012 3.02872 7.90803 3.09046C9.19401 3.43921 10.0964 4.64113 10.1128 5.98228C10.1155 6.19836 10.1128 6.41444 10.1128 6.64891H4.02578C3.73548 5.11401 4.56959 3.52985 6.31335 3.03529C6.15573 2.35027 5.48121 1.7723 4.7732 1.74734C4.23792 1.72829 3.70067 1.72632 3.16539 1.74734C2.24261 1.78346 1.50044 2.63071 1.4965 3.64676C1.48994 5.39774 1.49453 7.14938 1.49453 8.90037C1.49453 9.0199 1.49453 9.13944 1.49453 9.28656H0.274229L0.275543 9.28721Z" fill="white"/>
<path d="M10.0936 13.0348C9.96484 13.0348 9.8683 13.0348 9.77175 13.0348C6.64415 13.0348 3.51589 13.0354 0.388282 13.0341C-0.284921 13.0341 -0.768971 12.7156 -0.939078 12.1717C-1.19522 11.3534 -0.615283 10.5652 0.268748 10.5534C1.20926 10.5409 2.14978 10.5501 3.09029 10.5501C5.29971 10.5501 7.50847 10.5501 9.71789 10.5501C9.83611 10.5501 9.95434 10.5501 10.0936 10.5501V13.0341V13.0348Z" fill="white"/>
<path d="M15.0227 14.8732H11.3625C11.3565 14.7576 11.3467 14.6525 11.3467 14.5474C11.3454 13.2792 11.3454 12.0103 11.3467 10.742C11.3473 9.82449 11.8485 9.32008 12.7621 9.31614C13.101 9.31483 13.4399 9.3076 13.7788 9.31811C14.54 9.34241 15.0372 9.85405 15.0391 10.6172C15.0431 11.9406 15.0404 13.2634 15.0391 14.5868C15.0391 14.6729 15.0299 14.7583 15.0227 14.8732Z" fill="white"/>
<path d="M16.2832 13.0242V10.5514C16.8782 10.5514 17.4648 10.5494 18.0506 10.552C18.356 10.5534 18.668 10.5284 18.9668 10.5777C19.619 10.6854 20.0433 11.2193 20.0164 11.8426C19.9901 12.4541 19.5389 12.9789 18.8985 13.0124C18.0394 13.0577 17.1764 13.0235 16.2839 13.0235L16.2832 13.0242Z" fill="white"/>
</g>
</g>
<defs>
<clipPath id="clip0_1199_305">
<rect width="20" height="20" fill="white" transform="translate(0 0.5)"/>
</clipPath>
<clipPath id="clip1_1199_305">
<rect width="21.0171" height="21" fill="white" transform="translate(-1 0.5)"/>
</clipPath>
</defs>
</svg>
