<svg width="40" height="40" viewBox="0 0 40 40" fill="none" xmlns="http://www.w3.org/2000/svg">
<circle cx="20" cy="20" r="20" fill="#999999"/>
<path d="M28.01 23.38C26.78 23.38 25.59 23.18 24.48 22.82C24.13 22.7 23.74 22.79 23.47 23.06L21.9 25.03C19.07 23.68 16.42 21.13 15.01 18.2L16.96 16.54C17.23 16.26 17.31 15.87 17.2 15.52C16.83 14.41 16.64 13.22 16.64 11.99C16.64 11.45 16.19 11 15.65 11H12.19C11.65 11 11 11.24 11 11.99C11 21.28 18.73 29 28.01 29C28.72 29 29 28.37 29 27.82V24.37C29 23.83 28.55 23.38 28.01 23.38Z" fill="white"/>
</svg>
