<svg width="55" height="24" viewBox="0 0 55 24" fill="none" xmlns="http://www.w3.org/2000/svg">
<g clip-path="url(#clip0_1199_748)">
<path d="M12 24.0156C18.6274 24.0156 24 18.643 24 12.0156C24 5.38814 18.6274 0.015625 12 0.015625C5.37258 0.015625 0 5.38814 0 12.0156C0 18.643 5.37258 24.0156 12 24.0156Z" fill="#666666"/>
<path d="M9.53674e-07 36C6.62742 36 12 30.6274 12 24C12 17.3726 6.62742 12 9.53674e-07 12C-6.62742 12 -12 17.3726 -12 24C-12 30.6274 -6.62742 36 9.53674e-07 36Z" fill="#141414"/>
<path d="M24 36C30.6274 36 36 30.6274 36 24C36 17.3726 30.6274 12 24 12C17.3726 12 12 17.3726 12 24C12 30.6274 17.3726 36 24 36Z" fill="#141414"/>
<path d="M9.53674e-07 12C6.62742 12 12 6.62742 12 9.53674e-07C12 -6.62742 6.62742 -12 9.53674e-07 -12C-6.62742 -12 -12 -6.62742 -12 9.53674e-07C-12 6.62742 -6.62742 12 9.53674e-07 12Z" fill="#141414"/>
<path d="M24 12C30.6274 12 36 6.62742 36 9.53674e-07C36 -6.62742 30.6274 -12 24 -12C17.3726 -12 12 -6.62742 12 9.53674e-07C12 6.62742 17.3726 12 24 12Z" fill="#141414"/>
</g>
<g clip-path="url(#clip1_1199_748)">
<path d="M36.0008 19.2046C39.9772 19.2046 43.2008 15.9811 43.2008 12.0046C43.2008 8.0282 39.9772 4.80469 36.0008 4.80469C32.0243 4.80469 28.8008 8.0282 28.8008 12.0046C28.8008 15.9811 32.0243 19.2046 36.0008 19.2046Z" fill="#333333"/>
<path d="M28.8016 26.3922C32.778 26.3922 36.0016 23.1686 36.0016 19.1922C36.0016 15.2157 32.778 11.9922 28.8016 11.9922C24.8251 11.9922 21.6016 15.2157 21.6016 19.1922C21.6016 23.1686 24.8251 26.3922 28.8016 26.3922Z" fill="#141414"/>
<path d="M43.202 26.3922C47.1784 26.3922 50.402 23.1686 50.402 19.1922C50.402 15.2157 47.1784 11.9922 43.202 11.9922C39.2255 11.9922 36.002 15.2157 36.002 19.1922C36.002 23.1686 39.2255 26.3922 43.202 26.3922Z" fill="#141414"/>
<path d="M28.8016 11.9937C32.778 11.9937 36.0016 8.7702 36.0016 4.79375C36.0016 0.8173 32.778 -2.40625 28.8016 -2.40625C24.8251 -2.40625 21.6016 0.8173 21.6016 4.79375C21.6016 8.7702 24.8251 11.9937 28.8016 11.9937Z" fill="#141414"/>
<path d="M43.202 11.9937C47.1784 11.9937 50.402 8.7702 50.402 4.79375C50.402 0.8173 47.1784 -2.40625 43.202 -2.40625C39.2255 -2.40625 36.002 0.8173 36.002 4.79375C36.002 8.7702 39.2255 11.9937 43.202 11.9937Z" fill="#141414"/>
</g>
<g clip-path="url(#clip2_1199_748)">
<path d="M51.36 15.3684C53.2157 15.3684 54.72 13.8641 54.72 12.0084C54.72 10.1527 53.2157 8.64844 51.36 8.64844C49.5043 8.64844 48 10.1527 48 12.0084C48 13.8641 49.5043 15.3684 51.36 15.3684Z" fill="#333333"/>
<path d="M48.0006 18.72C49.8563 18.72 51.3606 17.2157 51.3606 15.36C51.3606 13.5043 49.8563 12 48.0006 12C46.1449 12 44.6406 13.5043 44.6406 15.36C44.6406 17.2157 46.1449 18.72 48.0006 18.72Z" fill="#141414"/>
<path d="M54.7213 18.72C56.577 18.72 58.0813 17.2157 58.0813 15.36C58.0813 13.5043 56.577 12 54.7213 12C52.8657 12 51.3613 13.5043 51.3613 15.36C51.3613 17.2157 52.8657 18.72 54.7213 18.72Z" fill="#141414"/>
<path d="M48.0006 12.0012C49.8563 12.0012 51.3606 10.4969 51.3606 8.64125C51.3606 6.78557 49.8563 5.28125 48.0006 5.28125C46.1449 5.28125 44.6406 6.78557 44.6406 8.64125C44.6406 10.4969 46.1449 12.0012 48.0006 12.0012Z" fill="#141414"/>
<path d="M54.7213 12.0012C56.577 12.0012 58.0813 10.4969 58.0813 8.64125C58.0813 6.78557 56.577 5.28125 54.7213 5.28125C52.8657 5.28125 51.3613 6.78557 51.3613 8.64125C51.3613 10.4969 52.8657 12.0012 54.7213 12.0012Z" fill="#141414"/>
</g>
<defs>
<clipPath id="clip0_1199_748">
<rect width="24" height="24" fill="white"/>
</clipPath>
<clipPath id="clip1_1199_748">
<rect width="14.4" height="14.4" fill="white" transform="translate(28.8008 4.79688)"/>
</clipPath>
<clipPath id="clip2_1199_748">
<rect width="6.72" height="6.72" fill="white" transform="translate(48 8.64062)"/>
</clipPath>
</defs>
</svg>
