<svg width="61" height="60" viewBox="0 0 61 60" fill="none" xmlns="http://www.w3.org/2000/svg">
<rect x="1" y="0.5" width="59" height="59" rx="29.5" fill="#141414"/>
<rect x="1" y="0.5" width="59" height="59" rx="29.5" stroke="#1FC827"/>
<path d="M30.15 19.2763C30.3734 19.1787 30.6273 19.1787 30.8507 19.2763C35.1893 21.1719 39.3012 23.4892 43.1347 26.1763C43.4121 26.3708 43.5524 26.7079 43.4947 27.0417C43.437 27.3756 43.1919 27.6461 42.8653 27.7363C42.0662 27.9568 41.274 28.1944 40.489 28.4476C37.3028 29.4751 34.2356 30.7681 31.3136 32.3004L31.3098 32.3024C31.1773 32.3719 31.0451 32.4419 30.9132 32.5123C30.6556 32.65 30.3462 32.65 30.0885 32.5123C29.9554 32.4412 29.8219 32.3705 29.6881 32.3004C28.2433 31.5427 26.7629 30.8436 25.2502 30.2061V29.9451C25.2502 29.7918 25.3289 29.6559 25.4506 29.5821C27.2066 28.5183 29.0179 27.5367 30.8791 26.6427C31.3147 26.4335 31.4982 25.9108 31.289 25.4752C31.0797 25.0395 30.557 24.856 30.1214 25.0653C28.2089 25.9839 26.3479 26.9924 24.5438 28.0854C24.0149 28.4058 23.6593 28.9303 23.5423 29.5179C22.5449 29.1342 21.5344 28.7768 20.5116 28.447C19.7266 28.1939 18.9344 27.9568 18.1354 27.7363C17.8088 27.6461 17.5636 27.3756 17.506 27.0417C17.4483 26.7079 17.5885 26.3707 17.866 26.1763C21.6994 23.4892 25.8114 21.1719 30.15 19.2763Z" fill="#1FC827"/>
<path d="M31.7379 34.0558C34.5833 32.5355 37.5727 31.2503 40.6804 30.2258C40.837 31.8765 40.937 33.5435 40.9784 35.2249C40.9873 35.5856 40.7738 35.9148 40.4408 36.0539C37.1144 37.4426 33.9505 39.1432 30.9855 41.1191C30.6917 41.3149 30.3089 41.3149 30.015 41.1191C27.05 39.1432 23.8861 37.4426 20.5598 36.0539C20.2268 35.9148 20.0133 35.5856 20.0222 35.2249C20.0636 33.5433 20.1636 31.8762 20.3202 30.2255C21.3947 30.5796 22.4551 30.965 23.5002 31.3805V32.8626C22.9772 33.1652 22.6252 33.7307 22.6252 34.3785C22.6252 34.9564 22.9053 35.4688 23.3372 35.7875C23.2327 36.2315 23.0782 36.6661 22.8735 37.0822C23.4016 37.3315 23.9252 37.5888 24.4442 37.8539C24.7398 37.2528 24.9541 36.6218 25.0871 35.9776C25.6988 35.7049 26.1252 35.0915 26.1252 34.3785C26.1252 33.7307 25.7733 33.1652 25.2502 32.8626V32.1104C26.6169 32.7075 27.9556 33.3568 29.2638 34.0558C30.0368 34.4688 30.9649 34.4688 31.7379 34.0558Z" fill="#1FC827"/>
<path d="M21.7062 38.7095C22.1952 38.2205 22.5844 37.6697 22.8735 37.0822C23.4016 37.3315 23.9252 37.5888 24.4442 37.8539C24.0725 38.6097 23.5722 39.3184 22.9436 39.9469C22.6019 40.2886 22.0479 40.2886 21.7062 39.9469C21.3645 39.6052 21.3645 39.0512 21.7062 38.7095Z" fill="#1FC827"/>
</svg>
