<svg width="20" height="21" viewBox="0 0 20 21" fill="none" xmlns="http://www.w3.org/2000/svg">
<g clip-path="url(#clip0_1199_6547)">
<g clip-path="url(#clip1_1199_6547)">
<path d="M0.269455 14.2578H10.11V16.0659H16.2615V14.2618H18.7054C18.8637 16.4121 18.8761 18.3266 16.6707 19.786C16.6437 19.8037 16.6221 19.828 16.5623 19.8812C16.8335 20.1065 17.1009 20.3291 17.3655 20.5491C17.0082 20.8907 16.7212 21.1652 16.3922 21.4805C16.1019 21.181 15.7879 20.8335 15.4458 20.517C15.3453 20.4237 15.1673 20.3856 15.0215 20.3764C14.7831 20.362 14.5414 20.4007 14.301 20.4014C11.1057 20.4033 7.91048 20.4027 4.71457 20.4027C4.56154 20.4027 4.398 20.4322 4.25679 20.3895C3.83054 20.2615 3.55994 20.4592 3.30642 20.7646C3.09034 21.0247 2.84405 21.2591 2.61877 21.4969C2.31468 21.177 2.03949 20.888 1.73474 20.5669C1.939 20.3863 2.19843 20.1564 2.49004 19.8976C2.28906 19.7538 2.13866 19.6539 1.99614 19.5436C0.928209 18.7207 0.350896 17.6291 0.275366 16.2886C0.23793 15.6246 0.268798 14.9566 0.268798 14.2578H0.269455Z" fill="#999999"/>
<path d="M0.275543 9.28721C0.270288 9.16834 0.261093 9.06128 0.261093 8.95423C0.260437 7.21375 0.258466 5.47393 0.261093 3.73345C0.26372 1.8209 1.59108 0.486313 3.50101 0.500106C4.14203 0.504703 4.80275 0.491568 5.41882 0.636717C6.5117 0.894833 7.20001 1.65276 7.53235 2.72069C7.59671 2.92824 7.68012 3.02872 7.90803 3.09046C9.19401 3.43921 10.0964 4.64113 10.1128 5.98228C10.1155 6.19836 10.1128 6.41444 10.1128 6.64891H4.02578C3.73548 5.11401 4.56959 3.52985 6.31335 3.03529C6.15573 2.35027 5.48121 1.7723 4.7732 1.74734C4.23792 1.72829 3.70067 1.72632 3.16539 1.74734C2.24261 1.78346 1.50044 2.63071 1.4965 3.64676C1.48994 5.39774 1.49453 7.14938 1.49453 8.90037C1.49453 9.0199 1.49453 9.13944 1.49453 9.28656H0.274229L0.275543 9.28721Z" fill="#999999"/>
<path d="M10.0926 13.0348C9.96387 13.0348 9.86732 13.0348 9.77077 13.0348C6.64317 13.0348 3.51491 13.0354 0.387306 13.0341C-0.285898 13.0341 -0.769947 12.7156 -0.940054 12.1717C-1.1962 11.3534 -0.61626 10.5652 0.267771 10.5534C1.20829 10.5409 2.1488 10.5501 3.08931 10.5501C5.29873 10.5501 7.5075 10.5501 9.71692 10.5501C9.83514 10.5501 9.95336 10.5501 10.0926 10.5501V13.0341V13.0348Z" fill="#999999"/>
<path d="M15.0237 14.8732H11.3634C11.3575 14.7576 11.3477 14.6525 11.3477 14.5474C11.3464 13.2792 11.3464 12.0103 11.3477 10.742C11.3483 9.82449 11.8494 9.32008 12.763 9.31614C13.1019 9.31483 13.4408 9.3076 13.7797 9.31811C14.5409 9.34241 15.0381 9.85405 15.0401 10.6172C15.044 11.9406 15.0414 13.2634 15.0401 14.5868C15.0401 14.6729 15.0309 14.7583 15.0237 14.8732Z" fill="#999999"/>
<path d="M16.2832 13.0242V10.5514C16.8782 10.5514 17.4648 10.5494 18.0506 10.552C18.356 10.5534 18.668 10.5284 18.9668 10.5777C19.619 10.6854 20.0433 11.2193 20.0164 11.8426C19.9901 12.4541 19.5389 12.9789 18.8985 13.0124C18.0394 13.0577 17.1764 13.0235 16.2839 13.0235L16.2832 13.0242Z" fill="#999999"/>
</g>
</g>
<defs>
<clipPath id="clip0_1199_6547">
<rect width="20" height="20" fill="white" transform="translate(0 0.5)"/>
</clipPath>
<clipPath id="clip1_1199_6547">
<rect width="21.0171" height="21" fill="white" transform="translate(-1 0.5)"/>
</clipPath>
</defs>
</svg>
