<svg width="20" height="21" viewBox="0 0 20 21" fill="none" xmlns="http://www.w3.org/2000/svg">
<g clip-path="url(#clip0_1199_6559)">
<g clip-path="url(#clip1_1199_6559)">
<path d="M0.837286 3.76484C0.612648 4.029 0.387352 4.2925 0.167984 4.55008C-0.262846 4.1153 -0.63834 3.73717 -1 3.37287C-0.083004 2.45456 0.852437 1.51846 1.77602 0.594217C2.70026 1.52044 3.63505 2.45654 4.55072 3.37419C4.19302 3.7319 3.81489 4.10937 3.40382 4.52044C3.16601 4.25496 2.91041 3.96971 2.59025 3.61332V7.40318C4.31555 5.67524 6.08234 3.90713 7.8386 2.14824C7.37549 2.14824 6.85112 2.11596 6.33333 2.15812C5.88472 2.19435 5.57115 2.04679 5.27866 1.71609C4.92358 1.3149 4.51976 0.956536 4.08235 0.526365C4.24769 0.513848 4.33794 0.501332 4.42885 0.501332C8.82148 0.500673 13.2141 0.498697 17.6067 0.501332C19.0086 0.50199 20.0079 1.47893 20.0099 2.87221C20.0171 7.28789 20.0125 11.7029 20.0125 16.1186C20.0125 16.1799 20.0059 16.2418 19.9209 16.3617C19.5231 15.9453 19.143 15.5099 18.72 15.1206C18.4453 14.8676 18.3347 14.6041 18.357 14.2326C18.3887 13.7128 18.365 13.1897 18.365 12.6733C16.6008 14.4394 14.8544 16.1871 13.112 17.9315H16.9091C16.554 17.6416 16.2615 17.4032 15.9743 17.1687C16.4453 16.7154 16.8287 16.3465 17.2016 15.9868C18.0837 16.8788 19.0152 17.8202 19.9401 18.755C19.0441 19.6443 18.1047 20.5771 17.1752 21.4994C16.8261 21.1436 16.4545 20.7655 16.0586 20.3623C16.2813 20.166 16.5349 19.942 16.7885 19.7181C16.7727 19.6792 16.7569 19.6403 16.7404 19.6021H16.3775C12.0507 19.6021 7.72398 19.6034 3.39723 19.6015C2.21278 19.6015 1.35903 19.027 1.03294 17.9822C0.943346 17.695 0.917655 17.3788 0.916996 17.0751C0.90975 12.7694 0.912385 8.46378 0.912385 4.15812C0.912385 4.04218 0.912385 3.92557 0.912385 3.80963C0.886693 3.79448 0.861001 3.77999 0.83531 3.76484H0.837286ZM2.56258 16.6818C7.40975 11.834 12.249 6.99343 17.0935 2.14824C16.4032 2.14824 15.6937 2.14231 14.9842 2.15548C14.8933 2.15746 14.7879 2.24046 14.7154 2.31293C10.7167 6.30766 6.72003 10.305 2.72596 14.305C2.65415 14.3775 2.57115 14.4829 2.56917 14.5738C2.55599 15.2826 2.56192 15.9915 2.56192 16.6812L2.56258 16.6818ZM18.365 3.45654C13.5296 8.29053 8.69499 13.1245 3.86693 17.9513C4.52569 17.9513 5.22464 17.9572 5.92358 17.944C6.01449 17.942 6.11858 17.8557 6.19104 17.7826C10.1963 13.7813 14.1996 9.77735 18.1996 5.77142C18.2721 5.69896 18.3557 5.59356 18.357 5.50265C18.3702 4.80436 18.3643 4.10542 18.3643 3.45654H18.365ZM18.365 8.08631C15.0758 11.3729 11.7833 14.6627 8.49144 17.9513C9.15876 17.9513 9.85705 17.9572 10.556 17.944C10.6462 17.942 10.749 17.8518 10.8221 17.7787C13.2846 15.3208 15.7444 12.8604 18.2016 10.3972C18.2734 10.3248 18.3557 10.2187 18.3577 10.1272C18.3709 9.42821 18.365 8.72926 18.365 8.08565V8.08631ZM2.56258 12.0218C5.861 8.72465 9.14624 5.44007 12.4387 2.14824C11.7793 2.14824 11.1028 2.14231 10.4262 2.15482C10.334 2.1568 10.2266 2.23387 10.1548 2.30502C7.67589 4.77867 5.20026 7.25495 2.72727 9.73387C2.65547 9.80634 2.5718 9.91108 2.56983 10.0026C2.55665 10.6805 2.56258 11.3584 2.56258 12.0218Z" fill="#999999"/>
</g>
</g>
<defs>
<clipPath id="clip0_1199_6559">
<rect width="20" height="20" fill="white" transform="translate(0 0.5)"/>
</clipPath>
<clipPath id="clip1_1199_6559">
<rect width="21.0145" height="21" fill="white" transform="translate(-1 0.5)"/>
</clipPath>
</defs>
</svg>
