<svg width="1924" height="1286" viewBox="0 0 1924 1286" fill="none" xmlns="http://www.w3.org/2000/svg">
<path d="M0.845703 1284.69C641.521 1281.97 1282.35 1280.77 1923.03 1284.69" stroke="url(#paint0_linear_1199_14174)" stroke-miterlimit="10"/>
<path d="M0.845703 1259.12C186.323 1246.71 374.646 1242.47 560.38 1252.27C636.242 1256.27 712.309 1258.25 788.196 1254.04C870.953 1249.45 949.736 1231.14 1031.39 1219.95C1176.61 1200.05 1323.84 1246.81 1468.44 1254.61C1620.76 1262.84 1770.33 1241.45 1923.03 1260.94" stroke="url(#paint1_linear_1199_14174)" stroke-miterlimit="10"/>
<path d="M0.845703 1230.55C193.499 1209.24 393.176 1205.34 586.291 1224.47C663.716 1232.14 741.782 1236.19 819.336 1228.06C910.857 1218.5 990.282 1183.25 1078.34 1161.74C1225.43 1125.8 1370.64 1213.06 1515.04 1227.24C1578.42 1233.47 1641.16 1219.86 1704.38 1215.78C1779.14 1210.93 1850.47 1218.65 1923.03 1237.19" stroke="url(#paint2_linear_1199_14174)" stroke-miterlimit="10"/>
<path d="M0.845703 1199.57C199.42 1170.77 403.581 1174.31 602.309 1201.01C680.503 1211.5 758.749 1217.27 837.122 1205.11C877.898 1198.77 917.674 1188.13 956.579 1174.41C1009.48 1155.76 1058.25 1121.49 1110.71 1104.36C1257.95 1056.27 1397.68 1178.97 1537.31 1200.9C1601.38 1210.96 1659.84 1190.1 1722.97 1182.9C1793.27 1174.87 1857.29 1188.62 1923.05 1213.47" stroke="url(#paint3_linear_1199_14174)" stroke-miterlimit="10"/>
<path d="M0.845703 1166.63C195.242 1132.55 393.842 1143.22 587.546 1177.72C671.61 1192.69 755.801 1202.57 840.377 1185.38C947.763 1163.56 1026.96 1098.95 1125.27 1057.65C1284.71 990.685 1411.67 1153.14 1560.4 1177.84C1619.12 1187.59 1667.53 1162.71 1723.73 1151.86C1795.88 1137.93 1858.21 1158.43 1923.03 1189.74" stroke="url(#paint4_linear_1199_14174)" stroke-miterlimit="10"/>
<path d="M0.845703 1132.29C195.396 1092.33 386.23 1115.98 577.91 1159.25C662.23 1178.28 746.78 1188.69 831.843 1167.64C876.002 1156.71 917.726 1138.88 958.015 1117.95C1018.32 1086.64 1071.68 1034.31 1132.19 1006.33C1294.83 931.103 1410.88 1120.8 1555.56 1152.3C1621.4 1166.63 1665.2 1135.14 1725.91 1119.67C1798.08 1101.31 1861 1130.93 1923.03 1165.99" stroke="url(#paint5_linear_1199_14174)" stroke-miterlimit="10"/>
<path d="M0.845703 1097.07C191.552 1051.75 366.47 1089.58 551.256 1139.93C637.062 1163.3 722.817 1177.43 810.186 1153.19C856.421 1140.37 899.452 1119.23 940.766 1095.15C1005.51 1057.42 1061.35 997.275 1126.53 963.059C1297.7 873.212 1399.22 1093.51 1547.15 1128.6C1616.68 1145.09 1657.41 1107.28 1719.33 1087.76C1794.27 1064.14 1860.88 1103.38 1923 1142.24" stroke="url(#paint6_linear_1199_14174)" stroke-miterlimit="10"/>
<path d="M0.845703 1061.47C182.966 1011.25 337.637 1060.85 510.224 1117.64C595.825 1145.8 681.195 1166.89 770.41 1143.8C906.141 1108.69 994.613 1001.84 1108.69 929.84C1293.93 812.959 1376.49 1073.24 1538.1 1106.38C1608.07 1120.74 1647.64 1076.09 1709.48 1054.52C1787.81 1027.2 1860.11 1076.4 1923.03 1118.44" stroke="url(#paint7_linear_1199_14174)" stroke-miterlimit="10"/>
<path d="M0.845703 1026.05C177.558 968.929 313.238 1033.13 475.522 1096.76C563.148 1131.11 651.773 1158.96 745.14 1130.57C883.562 1088.48 973.777 973.828 1088.21 894.086C1282.76 758.533 1346.63 1048.18 1513.73 1082.24C1584.85 1096.74 1628.75 1047.18 1689.65 1023C1775.66 988.832 1854.62 1046.98 1923.03 1094.76" stroke="url(#paint8_linear_1199_14174)" stroke-miterlimit="10"/>
<path d="M0.845703 991.272C80.0139 961.083 157.286 954.133 239.17 978.499C314.776 1000.99 379.695 1046.42 451.046 1078.55C535.314 1116.51 621.889 1149.81 714.103 1119.57C860.573 1071.53 948.737 941.077 1068.27 854.539C1261.82 714.394 1318.13 1013.12 1477.03 1053.42C1557.48 1073.81 1604.1 1014.69 1672.5 987.655C1764.95 951.106 1851.32 1019.33 1923.03 1071.01" stroke="url(#paint9_linear_1199_14174)" stroke-miterlimit="10"/>
<path d="M0.845703 957.698C72.0945 925.406 143.087 915.352 218.334 940.59C292.453 965.444 352.656 1017.77 420.932 1053.98C500.356 1096.12 582.087 1138.42 673.481 1111.44C826.717 1066.24 922.903 919.738 1041.82 824.94C1244.6 663.277 1278.25 988.374 1444.38 1025.8C1529.62 1045.01 1582.7 976.447 1655.89 949.721C1754.36 913.788 1848.8 992.298 1923 1047.24" stroke="url(#paint10_linear_1199_14174)" stroke-miterlimit="10"/>
<path d="M0.845703 925.816C165.512 837.328 264.415 942 398.532 1026.59C474.702 1074.63 556.715 1130.21 650.056 1099.28C801.216 1049.19 900.657 898.577 1015.24 798.419C1089.21 733.784 1160.02 718.78 1223.38 800.548C1278.33 871.441 1313.62 973.548 1411.39 994.093C1496.53 1011.97 1556.66 941.795 1629.7 913.197C1737.19 871.082 1843.6 963.16 1923.03 1023.51" stroke="url(#paint11_linear_1199_14174)" stroke-miterlimit="10"/>
<path d="M0.845703 896.166C160.335 795.854 259.725 900.013 385.512 994.554C452.609 1044.98 528.574 1114.82 619.224 1091.15C674.403 1076.73 723.329 1035.77 765.464 999.607C846.451 930.125 913.676 848.151 990.564 774.745C1064.27 704.365 1136.93 676.664 1200.13 769.512C1247.24 838.713 1283.38 945.616 1378.08 960.723C1468.11 975.087 1534 897.782 1612.97 871.056C1726.86 832.48 1841.68 936.152 1923.03 999.709" stroke="url(#paint12_linear_1199_14174)" stroke-miterlimit="10"/>
<path d="M0.845703 869.29C63.0218 824.533 131.631 796.448 207.39 823.712C274.846 848.002 327.283 904.429 379.131 951.443C437.565 1004.43 511.377 1098.51 601.079 1080.02C651.568 1069.61 695.983 1030.93 733.709 997.995C816.978 925.281 889.969 841.051 964.832 760.027C1034.9 684.158 1112.56 629.577 1177.91 735.173C1221.92 806.246 1256.08 918.664 1355.88 922.614C1444.45 926.127 1511.01 855.337 1590.85 829.227C1713.3 789.189 1837.53 906.865 1923.05 975.989" stroke="url(#paint13_linear_1199_14174)" stroke-miterlimit="10"/>
<path d="M0.845703 844.612C64.6621 794.853 135.757 761.818 216.361 790.493C284.38 814.68 340.713 869.824 390.997 919.403C443.28 970.983 513.453 1072.29 599.054 1055.01C646.955 1045.34 689.089 1006.58 724.406 975.138C805.163 903.193 877.283 821.169 950.249 741.581C1017.06 668.713 1095.54 602.283 1161.82 707.391C1205.18 776.155 1238.11 885.906 1336.04 887.265C1423.85 888.471 1497.07 824.683 1579.06 802.83C1706.67 768.794 1831.38 880.366 1923.03 951.644" stroke="url(#paint14_linear_1199_14174)" stroke-miterlimit="10"/>
<path d="M0.845703 817.121C71.2488 761.694 146.368 731.89 232.43 770.363C303.602 802.193 365.932 862.416 421.009 915.74C470.422 963.6 531.649 1044.37 609.562 1019.21C657.104 1003.84 698.443 962.805 733.914 929.821C805.009 863.724 871.081 792.139 938.152 722.015C1002.07 655.149 1079.62 590.104 1148.34 683.337C1197.21 749.665 1228.32 855.748 1325.89 860.595C1412.8 864.904 1496.84 807.528 1580.62 792.139C1707.33 768.85 1825.17 856.261 1923.05 923.614" stroke="url(#paint15_linear_1199_14174)" stroke-miterlimit="10"/>
<path d="M0.845703 786.57C76.554 728.758 153.697 703.34 242.143 748.995C309.907 783.954 372.442 840.253 428.185 891.627C480.135 939.513 543.926 1022.03 622.428 985.501C663.408 966.444 697.136 930.152 729.326 899.45C797.038 834.815 861.085 766.282 927.208 700.057C995.612 631.549 1073.11 578.431 1144.08 669.51C1192.93 732.221 1228.12 830.942 1320.74 835.046C1405.96 838.842 1490.61 797.984 1573.78 784.39C1702.15 763.409 1816.13 828.916 1923.05 892.038" stroke="url(#paint16_linear_1199_14174)" stroke-miterlimit="10"/>
<path d="M0.845703 753.534C88.1639 690.489 171.458 676.228 264.441 734.887C331.256 777.028 393.022 834.122 452.814 885.599C502.74 928.586 558.893 996.068 628.758 956.979C666.176 936.05 697.316 898.731 727.122 868.542C790.58 804.241 852.372 738.375 917.674 675.921C985.335 611.209 1062.79 564.503 1134.8 646.271C1188.57 707.315 1225.81 804.677 1318.21 813.5C1399.63 821.272 1488.36 789.416 1568.45 777.002C1696.44 757.176 1809.05 802.446 1923 857.718" stroke="url(#paint17_linear_1199_14174)" stroke-miterlimit="10"/>
<path d="M0.845703 718.623C95.4426 654.938 182.428 648.115 277.23 714.75C348.76 765.022 413.038 828.554 481.058 883.647C527.831 921.504 579.576 973.417 638.036 929.917C676.684 901.165 708.234 857.844 740.321 822.552C794.578 762.919 850.193 704.081 909.883 649.859C983.029 583.403 1062.35 552.009 1136.01 632.11C1189.93 690.743 1231.25 782.258 1319.85 792.184C1403.7 801.571 1494.38 779.539 1577.44 768.125C1699.59 751.351 1808.31 778.667 1923.03 821.167" stroke="url(#paint18_linear_1199_14174)" stroke-miterlimit="10"/>
<path d="M0.845703 682.386C108.693 614.904 200.368 622.086 299.373 701.186C374.492 761.204 438.513 831.045 516.81 887.678C570.529 926.51 609.254 948.44 658.283 894.321C741.603 802.345 809.084 697.518 906.705 618.213C978.364 560.016 1057.2 538.317 1128.6 606.055C1188.93 663.277 1229.53 751.124 1316.62 771.746C1397.01 790.751 1497.92 772.002 1578.75 760.973C1698.05 744.686 1805.72 754.253 1923.05 783.185" stroke="url(#paint19_linear_1199_14174)" stroke-miterlimit="10"/>
<path d="M0.845703 645.423C121.61 574.915 219.949 597.819 321.773 688.077C394.713 752.737 455.377 827.606 538.159 880.724C598.926 919.736 630.911 926.635 672.481 864.514C738.348 766.1 804.65 665.506 900.605 592.92C978.185 534.21 1056.79 521.027 1132.6 588.714C1195.72 645.09 1240.65 735.783 1329.92 755.738C1409.09 773.436 1501.48 765.023 1581.29 754.148C1697.16 738.348 1806 731.218 1923.05 744.273" stroke="url(#paint20_linear_1199_14174)" stroke-miterlimit="10"/>
<path d="M0.845703 608.335C132.477 535.621 235.454 571.452 339.79 670.943C413.628 741.349 474.497 827.349 565.403 877.261C632.884 914.324 656.565 895.062 688.756 831.53C739.962 730.5 804.727 628.392 899.58 562.578C979.876 506.843 1061.09 505.124 1136.52 569.169C1202.31 625.058 1250.24 713.392 1338.38 738.168C1527.42 791.313 1733.14 711.879 1923.05 705.287" stroke="url(#paint21_linear_1199_14174)" stroke-miterlimit="10"/>
<path d="M0.845703 571.688C66.328 536.78 127.889 516.056 201.163 541.473C261.775 562.505 311.419 606.647 355.885 651.609C429.236 725.836 491.95 825.712 589.674 869.828C662.973 902.915 680.324 858.337 705.056 796.139C745.37 694.673 806.239 590.719 901.349 531.317C1108.64 401.816 1183.45 663.843 1348.37 720.655C1540.97 787.008 1734.7 703.291 1923.05 666.793" stroke="url(#paint22_linear_1199_14174)" stroke-miterlimit="10"/>
<path d="M0.845703 536.063C69.1472 499.898 132.092 479.738 206.698 507.208C269.285 530.241 319.876 577.306 365.214 624.987C436.514 699.958 510.249 829.741 616.61 859.596C691.062 880.499 702.8 810.786 721.663 754.667C754.674 656.432 811.57 548.118 906.757 496.154C1104.36 388.275 1203.87 630.835 1353.06 699.394C1548.79 789.344 1738.32 697.111 1923.03 629.45" stroke="url(#paint23_linear_1199_14174)" stroke-miterlimit="10"/>
<path d="M0.845703 502.078C69.8135 464.529 131.938 444.138 207.852 470.736C270.797 492.793 322.234 542.013 366.983 589.976C439.59 667.82 517.425 815.685 630.321 837.743C707.055 852.747 717.819 776.032 734.58 718.425C763.362 619.601 815.184 510.209 914.65 464.246C1112.53 372.809 1219.25 605.673 1365.21 680.978C1441.2 720.169 1539.59 740.252 1624.24 726.607C1731.55 709.32 1829.68 645.685 1923.05 594.054" stroke="url(#paint24_linear_1199_14174)" stroke-miterlimit="10"/>
<path d="M0.845703 470.273C74.2986 427.773 145.291 403.278 226.612 440.007C287.635 467.58 336.048 518.261 379.797 567.456C445.356 641.17 527.984 796.473 638.266 808.117C721.279 816.889 731.761 726.17 749.548 664.921C777.048 570.251 826.563 468.759 926.235 432.236C1122.63 360.24 1236.19 576.125 1377.9 660.483C1449.5 703.112 1543.1 732.3 1626.86 721.861C1739.06 707.857 1836.17 626.601 1923 561.069" stroke="url(#paint25_linear_1199_14174)" stroke-miterlimit="10"/>
<path d="M0.845703 441.265C70.198 397.047 138.474 366.268 220.41 399.381C286.072 425.927 338.355 482.277 383.462 534.934C447.945 610.213 529.035 764.772 643.597 767.491C725.277 769.415 740.398 677.387 759.671 615.933C789.478 520.981 836.61 428.877 941.151 402.023C1141.34 350.571 1252.49 547.964 1395.73 642.659C1465.85 689.032 1559.38 727.274 1644.8 714.937C1756.51 698.778 1846.27 605.853 1923.03 531.318" stroke="url(#paint26_linear_1199_14174)" stroke-miterlimit="10"/>
<path d="M0.845703 415.637C64.5083 369.443 130.631 330.74 211.594 357.876C274.692 379.01 324.387 430.769 366.854 479.861C436.412 560.244 506.379 703.235 626.118 712.366C717.153 719.292 740.808 630.752 767.001 560.706C802.728 465.139 852.525 384.217 961.936 369.418C1155.9 343.179 1267.67 510.075 1402.42 615.132C1469.98 667.789 1561.45 718.214 1649.85 709.596C1767.1 698.157 1853.39 589.048 1923.03 505.407" stroke="url(#paint27_linear_1199_14174)" stroke-miterlimit="10"/>
<path d="M0.845703 395.43C64.2008 351.186 129.529 314.765 208.877 340.619C270.669 360.753 319.851 410.229 361.806 457.833C429.389 534.472 500.92 681.593 617.225 685.619C707.157 688.723 737.938 609.007 770.179 538.934C811.519 449.138 867.467 366.934 973.572 352.597C1160.74 327.307 1277.66 483.226 1410.5 582.948C1475.67 631.86 1567.6 681.618 1651.31 679.977C1768.33 677.668 1855.01 566.276 1923.03 484.97" stroke="url(#paint28_linear_1199_14174)" stroke-miterlimit="10"/>
<path d="M0.845703 381.601C63.2012 338.896 127.581 303.475 205.366 327.021C265.466 345.206 313.93 391.527 355.219 436.874C421.726 509.947 492.949 655.529 605.487 656.222C693.728 656.76 731.3 586.483 769.82 518.027C816.875 434.412 878.641 354.183 980.978 340.127C1161.38 315.376 1283.25 455.213 1416.16 548.292C1480.69 593.485 1571.63 643.91 1651.49 651.041C1767.92 661.428 1856.01 548.933 1923 470.551" stroke="url(#paint29_linear_1199_14174)" stroke-miterlimit="10"/>
<path d="M0.845703 373.035C60.664 332.126 124.608 296.756 199.317 315.736C263.005 331.895 313.597 380.089 356.962 426.744C422.88 497.662 488.977 629.394 599.105 624.495C682.425 620.802 724.893 557.501 768.411 495.2C821.847 418.664 886.356 346.899 984.208 332.998C1161.89 307.734 1286.37 428.616 1424.62 514.847C1488.49 554.705 1569.52 601.976 1643.11 621.033C1762.38 651.914 1853.21 540.06 1923.03 461.062" stroke="url(#paint30_linear_1199_14174)" stroke-miterlimit="10"/>
<path d="M0.845703 368.622C59.0237 328.328 121.61 292.189 195.088 307.142C256.265 319.607 305.985 362.492 348.607 405.556C415.447 473.063 477.675 594.305 584.368 589.56C665.305 585.969 713.975 532.671 763.49 475.243C822.821 406.454 891.302 341.101 985.386 327.404C1155.56 302.628 1285.96 399.272 1425.82 476.167C1495.23 514.332 1568.22 560.987 1641.08 591.868C1758.38 641.601 1850.6 533.979 1923 455.468" stroke="url(#paint31_linear_1199_14174)" stroke-miterlimit="10"/>
<path d="M0.845703 367.262C123.25 280.415 229.124 280.851 340.277 383.831C408.527 447.055 466.526 555.575 569.478 551.881C647.775 549.06 702.211 505.868 757.39 455.16C822.411 395.424 894.044 337.638 984.387 324.198C1146.54 300.062 1283.84 369.955 1424.95 436.257C1502.63 472.755 1565.47 518.538 1637.83 562.936C1752.08 633.034 1845.34 532.953 1923.05 452.8" stroke="url(#paint32_linear_1199_14174)" stroke-miterlimit="10"/>
<path d="M0.845703 367.854C114.767 284.342 219.615 268.132 332.435 361.083C402.479 418.792 456.428 513.333 555.203 511.384C719.664 508.152 820.95 346.95 981.696 322.635C1135.68 299.346 1280.33 340.641 1421.95 395.349C1508.53 428.795 1563.04 476.168 1633.26 533.955C1743.42 624.597 1837.04 535.93 1923.03 451.879" stroke="url(#paint33_linear_1199_14174)" stroke-miterlimit="10"/>
<path d="M0.845703 369.289C105.028 289.83 209.056 256.179 322.849 334.894C393.201 383.55 444.792 464.856 535.699 467.986C699.161 473.654 820.797 345.513 977.672 321.018C1120.81 298.678 1273.79 311.067 1411.88 352.515C1510.19 382.037 1560.4 435.719 1629.7 507.382C1655.59 534.159 1684.7 562.039 1723.58 566.246C1800.93 574.582 1873.28 497.866 1923.03 451.801" stroke="url(#paint34_linear_1199_14174)" stroke-miterlimit="10"/>
<path d="M0.845703 370.47C97.7748 293.575 201.316 244.715 317.647 309.093C389.613 348.925 439.667 416.535 525.498 421.537C685.193 430.847 819.72 345.206 973.341 321.327C1111.15 299.911 1267.31 282.059 1404.93 311.606C1510.81 334.331 1558.43 397.709 1622.6 478.708C1647.18 509.743 1675.01 545.446 1715.64 555.192C1794.11 574.018 1871.54 496.636 1923 451.52" stroke="url(#paint35_linear_1199_14174)" stroke-miterlimit="10"/>
<path d="M0.845703 370.265C95.4426 292.293 200.573 231.942 322.362 283.957C388.767 312.325 438.18 364.315 512.069 371.547C670.867 387.116 815.261 344.873 970.317 322.097C1052.02 310.093 1132.52 298.192 1213.54 281.854C1276.51 269.158 1337.71 262.566 1401.73 271.748C1512.35 287.599 1559.07 366.7 1616.43 452.88C1639.39 487.377 1666.99 530.21 1708.72 543.932C1788.68 570.248 1868.44 495.354 1923.03 449.879" stroke="url(#paint36_linear_1199_14174)" stroke-miterlimit="10"/>
<path d="M0.845703 367.602C91.957 290.092 197.139 218.276 321.67 251.491C387.691 269.111 440.974 310.098 509.583 318.767C666.099 338.517 811.109 343.005 967.497 321.204C1050.3 309.662 1127.94 292.657 1206.92 265.264C1267.74 244.181 1326.1 226.894 1391.3 231.51C1507.4 239.718 1554.56 333.156 1606.97 423.901C1629.29 462.554 1656.25 512.287 1699.51 531.087C1781.02 566.508 1865 492.075 1923.08 445.985" stroke="url(#paint37_linear_1199_14174)" stroke-miterlimit="10"/>
<path d="M0.845703 361.367C90.6756 283.138 195.447 203.242 321.465 215.349C389.126 221.838 451.046 253.847 518.22 263.748C671.764 286.395 806.829 338.078 964.55 318.815C1048 308.607 1122.99 286.806 1198.18 249.513C1254.83 221.427 1308.8 193.009 1373.69 192.188C1499.84 190.649 1547.48 300.913 1598.28 398.172C1620.22 440.185 1646.59 494.842 1691.29 517.362C1774.22 559.169 1861.67 485.532 1923.03 438.672" stroke="url(#paint38_linear_1199_14174)" stroke-miterlimit="10"/>
<path d="M0.845703 350.466C92.5209 269.699 197.574 184.596 324.823 176.183C393.432 171.644 465.655 192.06 532.418 205.91C682.579 237.048 807.598 331.768 967.062 314.533C1049.05 305.684 1121.45 278.983 1190.19 233.944C1245.65 197.6 1296.47 158.64 1365.34 154.613C1494.23 147.098 1541.43 275.162 1588.46 372.345C1610.81 418.487 1636.47 474.298 1682.55 501.614C1765.3 550.654 1860.72 473.17 1923.03 427.002" stroke="url(#paint39_linear_1199_14174)" stroke-miterlimit="10"/>
<path d="M0.845703 333.744C157.721 195.857 323.054 89.5433 536.621 141.2C688.653 177.98 805.752 321.023 970.701 307.532C1054.28 300.683 1124.68 267.109 1188.27 213.939C1238.06 172.312 1282.43 126.657 1350.37 119.296C1479.95 105.266 1527.44 236.433 1571.86 333.488C1596.1 386.453 1622.35 452.703 1674.96 484.251C1759.79 535.112 1858.31 456.961 1923 409.87" stroke="url(#paint40_linear_1199_14174)" stroke-miterlimit="10"/>
<path d="M0.845703 311.017C151.801 181.953 345.992 39.192 557.176 98.3892C705.414 139.94 817.414 298.167 980.338 289.805C1061.81 285.625 1131.04 246.562 1188.55 191.212C1234.17 147.327 1274.94 97.8249 1342.04 90.3868C1466.34 76.5622 1516.93 206.037 1560.73 298.09C1586.95 353.158 1614.43 420.562 1668.35 454.444C1754.69 508.691 1854.42 434.618 1923 386.809" stroke="url(#paint41_linear_1199_14174)" stroke-miterlimit="10"/>
<path d="M0.845703 287.264C152.339 163.689 351.221 27.2375 559.073 78.4836C711.847 116.136 832.868 273.157 998.278 262.41C1073.24 257.537 1136.06 221.09 1188.7 169.69C1230.71 128.678 1267.54 81.9462 1328.87 71.9176C1451.19 51.9116 1511.63 184.644 1559.09 272.67C1586.36 323.198 1615.94 381.754 1665.43 414.353C1751.98 471.37 1849.37 408.249 1923.03 360.799" stroke="url(#paint42_linear_1199_14174)" stroke-miterlimit="10"/>
<path d="M0.845703 263.517C155.21 144.302 363.779 12.4679 570.093 64.9964C720.1 103.187 848.502 246.512 1010.37 237.715C1079.39 233.97 1139.83 197.164 1188.09 150.33C1226.76 112.806 1261.18 68.0999 1316.74 56.3271C1437.15 30.8323 1506.4 164.59 1558.84 248.102C1590.36 298.297 1623.32 353.544 1677.45 381.937C1763.1 426.848 1848.29 377.269 1923.03 332.871" stroke="url(#paint43_linear_1199_14174)" stroke-miterlimit="10"/>
<path d="M0.845703 239.769C160.156 124.273 373.8 2.98013 579.909 54.0723C728.481 90.9038 862.341 223.61 1021.73 212.709C1085.93 208.324 1140.8 176.032 1186.68 132.865C1225.25 96.5722 1259.9 52.3282 1315 42.1457C1429.49 20.9599 1504.07 146.562 1559.94 224.38C1592 269.034 1625.99 314.586 1674.86 341.645C1759.9 388.685 1845.6 345.621 1923.03 303.352" stroke="url(#paint44_linear_1199_14174)" stroke-miterlimit="10"/>
<path d="M0.845703 216.015C161.258 107.906 368.238 3.54164 569.375 41.4761C725.046 70.8438 865.724 201.037 1029.21 189.572C1091.21 185.211 1144 153.561 1189.16 112.882C1226.09 79.59 1259.64 41.2196 1310.82 31.55C1416.77 11.5184 1495.66 119.705 1553.89 190.392C1592 236.688 1633.65 287.498 1690.67 311.172C1771.3 344.644 1850.68 308.889 1923.05 272.622" stroke="url(#paint45_linear_1199_14174)" stroke-miterlimit="10"/>
<path d="M0.845703 192.262C165.256 90.5392 376.517 -2.79636 575.783 35.3432C727.686 64.4289 875.284 179.951 1034.16 168.229C1149.54 159.714 1199.9 46.5261 1303.9 23.5961C1408.47 0.563621 1493.61 102.492 1557.89 168.46C1596.54 208.139 1636.88 249.818 1689.06 271.363C1769.84 304.706 1848.24 275.133 1923 241.02" stroke="url(#paint46_linear_1199_14174)" stroke-miterlimit="10"/>
<path d="M0.845703 168.517C169.587 74.104 376.85 -2.53434 574.245 29.2444C727.379 53.8928 877.693 158.616 1036.26 146.741C1145.18 138.585 1203.41 36.8877 1303.96 17.1639C1401.99 -2.04701 1486.33 78.8746 1553.66 137.995C1595.23 174.519 1638 212.838 1690.37 233.126C1770.56 264.212 1847.27 240.359 1923.05 208.99" stroke="url(#paint47_linear_1199_14174)" stroke-miterlimit="10"/>
<path d="M0.845703 144.763C172.125 59.8144 377.08 -2.92227 570.913 24.727C724.149 46.5797 878.026 137.171 1035.29 125.757C1139.8 118.165 1207.41 29.9337 1306.11 11.9796C1403.47 -5.74363 1492.15 67.3808 1564.96 120.807C1604.51 149.816 1645.72 179.158 1692.36 195.676C1772.76 224.146 1846.14 205.371 1923.03 176.849" stroke="url(#paint48_linear_1199_14174)" stroke-miterlimit="10"/>
<path d="M0.845703 121.009C173.944 46.9356 376.03 -2.66893 566.044 20.8253C719.536 39.8053 874.848 115.546 1031.26 105.184C1133.91 98.3869 1212.38 24.5956 1311.41 8.5139C1402.81 -6.31105 1488.97 48.885 1563.76 93.8215C1685.32 166.869 1785.63 189.927 1923.03 144.914" stroke="url(#paint49_linear_1199_14174)" stroke-miterlimit="10"/>
<path d="M0.845703 97.2611C174.97 35.3708 366.649 1.28369 552.076 16.955C708.772 30.2154 864.597 92.1314 1022.91 84.1803C1129.09 78.8454 1220.07 15.9035 1324.59 5.23359C1410.93 -3.58956 1492.43 35.6786 1568.4 71.5868C1690.24 129.219 1790.68 150.969 1923.03 113.651" stroke="url(#paint50_linear_1199_14174)" stroke-miterlimit="10"/>
<path d="M0.845703 73.5136C178.096 24.3194 367.341 1.41508 551.384 14.4703C704.979 25.371 859.163 71.1539 1013.78 64.5109C1122.37 59.8428 1223.71 13.6239 1331.46 4.13384C1422.13 -3.8429 1507.27 27.8076 1591.59 56.9958C1704.85 96.2127 1804.65 110.807 1923.03 83.414" stroke="url(#paint51_linear_1199_14174)" stroke-miterlimit="10"/>
<path d="M0.845703 49.7864C175.508 15.9301 356.449 2.56711 534.34 10.5182C689.243 17.4434 843.965 47.8114 999.303 43.7076C1118.22 40.5785 1234.24 8.85104 1352.91 2.66971C1437.59 -1.74187 1519.45 17.7768 1601.38 36.7312C1710.51 61.9695 1811.67 73.7166 1923.03 54.5057" stroke="url(#paint52_linear_1199_14174)" stroke-miterlimit="10"/>
<path d="M0.845703 26.0383C174.124 8.08418 349.17 2.56971 523.346 6.49396C676.479 9.95653 829.536 25.2175 982.798 23.1656C1113.15 21.4215 1242.83 5.10893 1373.13 1.87719C1557.94 -2.71392 1737.65 46.0186 1923.03 27.3464" stroke="url(#paint53_linear_1199_14174)" stroke-miterlimit="10"/>
<path d="M0.845703 2.28452C641.547 -1.255 1282.32 6.15747 1923.03 2.28452" stroke="url(#paint54_linear_1199_14174)" stroke-miterlimit="10"/>
<defs>
<linearGradient id="paint0_linear_1199_14174" x1="961.936" y1="1282.18" x2="961.936" y2="1284.69" gradientUnits="userSpaceOnUse">
<stop stop-color="#1FC827" stop-opacity="0.41"/>
<stop offset="1" stop-color="#00C782" stop-opacity="0"/>
</linearGradient>
<linearGradient id="paint1_linear_1199_14174" x1="961.936" y1="1215.06" x2="961.936" y2="1260.94" gradientUnits="userSpaceOnUse">
<stop stop-color="#1FC827" stop-opacity="0.41"/>
<stop offset="1" stop-color="#00C782" stop-opacity="0"/>
</linearGradient>
<linearGradient id="paint2_linear_1199_14174" x1="961.936" y1="1153.12" x2="961.936" y2="1237.19" gradientUnits="userSpaceOnUse">
<stop stop-color="#1FC827" stop-opacity="0.41"/>
<stop offset="1" stop-color="#00C782" stop-opacity="0"/>
</linearGradient>
<linearGradient id="paint3_linear_1199_14174" x1="961.949" y1="1093.28" x2="961.949" y2="1213.47" gradientUnits="userSpaceOnUse">
<stop stop-color="#1FC827" stop-opacity="0.41"/>
<stop offset="1" stop-color="#00C782" stop-opacity="0"/>
</linearGradient>
<linearGradient id="paint4_linear_1199_14174" x1="961.936" y1="1041.59" x2="961.936" y2="1194.46" gradientUnits="userSpaceOnUse">
<stop stop-color="#1FC827" stop-opacity="0.41"/>
<stop offset="1" stop-color="#00C782" stop-opacity="0"/>
</linearGradient>
<linearGradient id="paint5_linear_1199_14174" x1="961.936" y1="988.828" x2="961.936" y2="1179.27" gradientUnits="userSpaceOnUse">
<stop stop-color="#1FC827" stop-opacity="0.41"/>
<stop offset="1" stop-color="#00C782" stop-opacity="0"/>
</linearGradient>
<linearGradient id="paint6_linear_1199_14174" x1="961.923" y1="941.688" x2="961.923" y2="1165.82" gradientUnits="userSpaceOnUse">
<stop stop-color="#1FC827" stop-opacity="0.41"/>
<stop offset="1" stop-color="#00C782" stop-opacity="0"/>
</linearGradient>
<linearGradient id="paint7_linear_1199_14174" x1="961.936" y1="899.859" x2="961.936" y2="1153.65" gradientUnits="userSpaceOnUse">
<stop stop-color="#1FC827" stop-opacity="0.41"/>
<stop offset="1" stop-color="#00C782" stop-opacity="0"/>
</linearGradient>
<linearGradient id="paint8_linear_1199_14174" x1="961.936" y1="858.195" x2="961.936" y2="1142.29" gradientUnits="userSpaceOnUse">
<stop stop-color="#1FC827" stop-opacity="0.41"/>
<stop offset="1" stop-color="#00C782" stop-opacity="0"/>
</linearGradient>
<linearGradient id="paint9_linear_1199_14174" x1="961.936" y1="817.398" x2="961.936" y2="1131.33" gradientUnits="userSpaceOnUse">
<stop stop-color="#1FC827" stop-opacity="0.41"/>
<stop offset="1" stop-color="#00C782" stop-opacity="0"/>
</linearGradient>
<linearGradient id="paint10_linear_1199_14174" x1="961.923" y1="780.148" x2="961.923" y2="1119.93" gradientUnits="userSpaceOnUse">
<stop stop-color="#1FC827" stop-opacity="0.41"/>
<stop offset="1" stop-color="#00C782" stop-opacity="0"/>
</linearGradient>
<linearGradient id="paint11_linear_1199_14174" x1="961.936" y1="744.477" x2="961.936" y2="1108.21" gradientUnits="userSpaceOnUse">
<stop stop-color="#1FC827" stop-opacity="0.41"/>
<stop offset="1" stop-color="#00C782" stop-opacity="0"/>
</linearGradient>
<linearGradient id="paint12_linear_1199_14174" x1="961.936" y1="710.305" x2="961.936" y2="1095.9" gradientUnits="userSpaceOnUse">
<stop stop-color="#1FC827" stop-opacity="0.41"/>
<stop offset="1" stop-color="#00C782" stop-opacity="0"/>
</linearGradient>
<linearGradient id="paint13_linear_1199_14174" x1="961.949" y1="676.453" x2="961.949" y2="1082.39" gradientUnits="userSpaceOnUse">
<stop stop-color="#1FC827" stop-opacity="0.41"/>
<stop offset="1" stop-color="#00C782" stop-opacity="0"/>
</linearGradient>
<linearGradient id="paint14_linear_1199_14174" x1="961.936" y1="652.805" x2="961.936" y2="1056.97" gradientUnits="userSpaceOnUse">
<stop stop-color="#1FC827" stop-opacity="0.41"/>
<stop offset="1" stop-color="#00C782" stop-opacity="0"/>
</linearGradient>
<linearGradient id="paint15_linear_1199_14174" x1="961.949" y1="636.883" x2="961.949" y2="1023.95" gradientUnits="userSpaceOnUse">
<stop stop-color="#1FC827" stop-opacity="0.41"/>
<stop offset="1" stop-color="#00C782" stop-opacity="0"/>
</linearGradient>
<linearGradient id="paint16_linear_1199_14174" x1="961.949" y1="621.078" x2="961.949" y2="994.565" gradientUnits="userSpaceOnUse">
<stop stop-color="#1FC827" stop-opacity="0.41"/>
<stop offset="1" stop-color="#00C782" stop-opacity="0"/>
</linearGradient>
<linearGradient id="paint17_linear_1199_14174" x1="961.923" y1="602.648" x2="961.923" y2="968.719" gradientUnits="userSpaceOnUse">
<stop stop-color="#1FC827" stop-opacity="0.41"/>
<stop offset="1" stop-color="#00C782" stop-opacity="0"/>
</linearGradient>
<linearGradient id="paint18_linear_1199_14174" x1="961.936" y1="584.523" x2="961.936" y2="946.44" gradientUnits="userSpaceOnUse">
<stop stop-color="#1FC827" stop-opacity="0.41"/>
<stop offset="1" stop-color="#00C782" stop-opacity="0"/>
</linearGradient>
<linearGradient id="paint19_linear_1199_14174" x1="961.949" y1="564.07" x2="961.949" y2="926.654" gradientUnits="userSpaceOnUse">
<stop stop-color="#1FC827" stop-opacity="0.41"/>
<stop offset="1" stop-color="#00C782" stop-opacity="0"/>
</linearGradient>
<linearGradient id="paint20_linear_1199_14174" x1="961.949" y1="543.195" x2="961.949" y2="910.625" gradientUnits="userSpaceOnUse">
<stop stop-color="#1FC827" stop-opacity="0.41"/>
<stop offset="1" stop-color="#00C782" stop-opacity="0"/>
</linearGradient>
<linearGradient id="paint21_linear_1199_14174" x1="961.949" y1="520.938" x2="961.949" y2="896.006" gradientUnits="userSpaceOnUse">
<stop stop-color="#1FC827" stop-opacity="0.41"/>
<stop offset="1" stop-color="#00C782" stop-opacity="0"/>
</linearGradient>
<linearGradient id="paint22_linear_1199_14174" x1="961.949" y1="495.797" x2="961.949" y2="881.067" gradientUnits="userSpaceOnUse">
<stop stop-color="#1FC827" stop-opacity="0.41"/>
<stop offset="1" stop-color="#00C782" stop-opacity="0"/>
</linearGradient>
<linearGradient id="paint23_linear_1199_14174" x1="961.936" y1="468.898" x2="961.936" y2="863.391" gradientUnits="userSpaceOnUse">
<stop stop-color="#1FC827" stop-opacity="0.41"/>
<stop offset="1" stop-color="#00C782" stop-opacity="0"/>
</linearGradient>
<linearGradient id="paint24_linear_1199_14174" x1="961.949" y1="443.289" x2="961.949" y2="839.649" gradientUnits="userSpaceOnUse">
<stop stop-color="#1FC827" stop-opacity="0.41"/>
<stop offset="1" stop-color="#00C782" stop-opacity="0"/>
</linearGradient>
<linearGradient id="paint25_linear_1199_14174" x1="961.923" y1="417.773" x2="961.923" y2="808.709" gradientUnits="userSpaceOnUse">
<stop stop-color="#1FC827" stop-opacity="0.41"/>
<stop offset="1" stop-color="#00C782" stop-opacity="0"/>
</linearGradient>
<linearGradient id="paint26_linear_1199_14174" x1="961.936" y1="385.461" x2="961.936" y2="767.521" gradientUnits="userSpaceOnUse">
<stop stop-color="#1FC827" stop-opacity="0.41"/>
<stop offset="1" stop-color="#00C782" stop-opacity="0"/>
</linearGradient>
<linearGradient id="paint27_linear_1199_14174" x1="961.936" y1="348.891" x2="961.936" y2="712.749" gradientUnits="userSpaceOnUse">
<stop stop-color="#1FC827" stop-opacity="0.41"/>
<stop offset="1" stop-color="#00C782" stop-opacity="0"/>
</linearGradient>
<linearGradient id="paint28_linear_1199_14174" x1="961.936" y1="332" x2="961.936" y2="685.707" gradientUnits="userSpaceOnUse">
<stop stop-color="#1FC827" stop-opacity="0.41"/>
<stop offset="1" stop-color="#00C782" stop-opacity="0"/>
</linearGradient>
<linearGradient id="paint29_linear_1199_14174" x1="961.923" y1="319.492" x2="961.923" y2="656.225" gradientUnits="userSpaceOnUse">
<stop stop-color="#1FC827" stop-opacity="0.41"/>
<stop offset="1" stop-color="#00C782" stop-opacity="0"/>
</linearGradient>
<linearGradient id="paint30_linear_1199_14174" x1="961.936" y1="310.469" x2="961.936" y2="626.292" gradientUnits="userSpaceOnUse">
<stop stop-color="#1FC827" stop-opacity="0.41"/>
<stop offset="1" stop-color="#00C782" stop-opacity="0"/>
</linearGradient>
<linearGradient id="paint31_linear_1199_14174" x1="961.923" y1="303.695" x2="961.923" y2="604.521" gradientUnits="userSpaceOnUse">
<stop stop-color="#1FC827" stop-opacity="0.41"/>
<stop offset="1" stop-color="#00C782" stop-opacity="0"/>
</linearGradient>
<linearGradient id="paint32_linear_1199_14174" x1="961.949" y1="304.219" x2="961.949" y2="586.63" gradientUnits="userSpaceOnUse">
<stop stop-color="#1FC827" stop-opacity="0.41"/>
<stop offset="1" stop-color="#00C782" stop-opacity="0"/>
</linearGradient>
<linearGradient id="paint33_linear_1199_14174" x1="961.936" y1="298.016" x2="961.936" y2="572.086" gradientUnits="userSpaceOnUse">
<stop stop-color="#1FC827" stop-opacity="0.41"/>
<stop offset="1" stop-color="#00C782" stop-opacity="0"/>
</linearGradient>
<linearGradient id="paint34_linear_1199_14174" x1="961.936" y1="290.109" x2="961.936" y2="566.873" gradientUnits="userSpaceOnUse">
<stop stop-color="#1FC827" stop-opacity="0.41"/>
<stop offset="1" stop-color="#00C782" stop-opacity="0"/>
</linearGradient>
<linearGradient id="paint35_linear_1199_14174" x1="961.923" y1="279.281" x2="961.923" y2="558.089" gradientUnits="userSpaceOnUse">
<stop stop-color="#1FC827" stop-opacity="0.41"/>
<stop offset="1" stop-color="#00C782" stop-opacity="0"/>
</linearGradient>
<linearGradient id="paint36_linear_1199_14174" x1="961.936" y1="264.508" x2="961.936" y2="549.395" gradientUnits="userSpaceOnUse">
<stop stop-color="#1FC827" stop-opacity="0.41"/>
<stop offset="1" stop-color="#00C782" stop-opacity="0"/>
</linearGradient>
<linearGradient id="paint37_linear_1199_14174" x1="961.961" y1="230.758" x2="961.961" y2="540.344" gradientUnits="userSpaceOnUse">
<stop stop-color="#1FC827" stop-opacity="0.41"/>
<stop offset="1" stop-color="#00C782" stop-opacity="0"/>
</linearGradient>
<linearGradient id="paint38_linear_1199_14174" x1="961.936" y1="192.172" x2="961.936" y2="529.746" gradientUnits="userSpaceOnUse">
<stop stop-color="#1FC827" stop-opacity="0.41"/>
<stop offset="1" stop-color="#00C782" stop-opacity="0"/>
</linearGradient>
<linearGradient id="paint39_linear_1199_14174" x1="961.936" y1="154.297" x2="961.936" y2="517.298" gradientUnits="userSpaceOnUse">
<stop stop-color="#1FC827" stop-opacity="0.41"/>
<stop offset="1" stop-color="#00C782" stop-opacity="0"/>
</linearGradient>
<linearGradient id="paint40_linear_1199_14174" x1="961.923" y1="118.258" x2="961.923" y2="500.819" gradientUnits="userSpaceOnUse">
<stop stop-color="#1FC827" stop-opacity="0.41"/>
<stop offset="1" stop-color="#00C782" stop-opacity="0"/>
</linearGradient>
<linearGradient id="paint41_linear_1199_14174" x1="961.923" y1="84.6016" x2="961.923" y2="473.485" gradientUnits="userSpaceOnUse">
<stop stop-color="#1FC827" stop-opacity="0.41"/>
<stop offset="1" stop-color="#00C782" stop-opacity="0"/>
</linearGradient>
<linearGradient id="paint42_linear_1199_14174" x1="961.936" y1="67.4141" x2="961.936" y2="436.974" gradientUnits="userSpaceOnUse">
<stop stop-color="#1FC827" stop-opacity="0.41"/>
<stop offset="1" stop-color="#00C782" stop-opacity="0"/>
</linearGradient>
<linearGradient id="paint43_linear_1199_14174" x1="961.936" y1="53.125" x2="961.936" y2="399.627" gradientUnits="userSpaceOnUse">
<stop stop-color="#1FC827" stop-opacity="0.41"/>
<stop offset="1" stop-color="#00C782" stop-opacity="0"/>
</linearGradient>
<linearGradient id="paint44_linear_1199_14174" x1="961.936" y1="39.7734" x2="961.936" y2="362.124" gradientUnits="userSpaceOnUse">
<stop stop-color="#1FC827" stop-opacity="0.41"/>
<stop offset="1" stop-color="#00C782" stop-opacity="0"/>
</linearGradient>
<linearGradient id="paint45_linear_1199_14174" x1="961.949" y1="29.1172" x2="961.949" y2="324.515" gradientUnits="userSpaceOnUse">
<stop stop-color="#1FC827" stop-opacity="0.41"/>
<stop offset="1" stop-color="#00C782" stop-opacity="0"/>
</linearGradient>
<linearGradient id="paint46_linear_1199_14174" x1="961.923" y1="20.2734" x2="961.923" y2="285.972" gradientUnits="userSpaceOnUse">
<stop stop-color="#1FC827" stop-opacity="0.41"/>
<stop offset="1" stop-color="#00C782" stop-opacity="0"/>
</linearGradient>
<linearGradient id="paint47_linear_1199_14174" x1="961.949" y1="14.2812" x2="961.949" y2="247.657" gradientUnits="userSpaceOnUse">
<stop stop-color="#1FC827" stop-opacity="0.41"/>
<stop offset="1" stop-color="#00C782" stop-opacity="0"/>
</linearGradient>
<linearGradient id="paint48_linear_1199_14174" x1="961.936" y1="9.27344" x2="961.936" y2="209.814" gradientUnits="userSpaceOnUse">
<stop stop-color="#1FC827" stop-opacity="0.41"/>
<stop offset="1" stop-color="#00C782" stop-opacity="0"/>
</linearGradient>
<linearGradient id="paint49_linear_1199_14174" x1="961.936" y1="6.05469" x2="961.936" y2="167.939" gradientUnits="userSpaceOnUse">
<stop stop-color="#1FC827" stop-opacity="0.41"/>
<stop offset="1" stop-color="#00C782" stop-opacity="0"/>
</linearGradient>
<linearGradient id="paint50_linear_1199_14174" x1="961.936" y1="3.97656" x2="961.936" y2="132.142" gradientUnits="userSpaceOnUse">
<stop stop-color="#1FC827" stop-opacity="0.41"/>
<stop offset="1" stop-color="#00C782" stop-opacity="0"/>
</linearGradient>
<linearGradient id="paint51_linear_1199_14174" x1="961.936" y1="2.88281" x2="961.936" y2="97.4911" gradientUnits="userSpaceOnUse">
<stop stop-color="#1FC827" stop-opacity="0.41"/>
<stop offset="1" stop-color="#00C782" stop-opacity="0"/>
</linearGradient>
<linearGradient id="paint52_linear_1199_14174" x1="961.936" y1="2.03906" x2="961.936" y2="64.0521" gradientUnits="userSpaceOnUse">
<stop stop-color="#1FC827" stop-opacity="0.41"/>
<stop offset="1" stop-color="#00C782" stop-opacity="0"/>
</linearGradient>
<linearGradient id="paint53_linear_1199_14174" x1="961.936" y1="1.57031" x2="961.936" y2="31.6274" gradientUnits="userSpaceOnUse">
<stop stop-color="#1FC827" stop-opacity="0.41"/>
<stop offset="1" stop-color="#00C782" stop-opacity="0"/>
</linearGradient>
<linearGradient id="paint54_linear_1199_14174" x1="961.936" y1="1.29687" x2="961.936" y2="3.43884" gradientUnits="userSpaceOnUse">
<stop stop-color="#1FC827" stop-opacity="0.41"/>
<stop offset="1" stop-color="#00C782" stop-opacity="0"/>
</linearGradient>
</defs>
</svg>
