<svg width="17" height="20" viewBox="0 0 17 20" fill="none" xmlns="http://www.w3.org/2000/svg">
<path d="M1.05 20C0.783333 20 0.541667 19.8917 0.325 19.675C0.108333 19.4583 0 19.2167 0 18.95V16.325C0 14.825 0.466667 13.5 1.4 12.35C2.33333 11.2 3.53333 10.4667 5 10.15C4.33333 10.6167 3.81667 11.2042 3.45 11.9125C3.08333 12.6208 2.9 13.3833 2.9 14.2V18.95C2.9 19.1333 2.925 19.3167 2.975 19.5C3.025 19.6833 3.10833 19.85 3.225 20H1.05ZM4.725 20C4.44167 20 4.19583 19.8958 3.9875 19.6875C3.77917 19.4792 3.675 19.2333 3.675 18.95V14.2C3.675 13.0333 4.0875 12.0417 4.9125 11.225C5.7375 10.4083 6.73333 10 7.9 10H12.625C13.7917 10 14.7833 10.4083 15.6 11.225C16.4167 12.0417 16.825 13.0333 16.825 14.2V15.8C16.825 16.9667 16.4167 17.9583 15.6 18.775C14.7833 19.5917 13.7917 20 12.625 20H4.725ZM8.425 7.9C7.325 7.9 6.39167 7.51667 5.625 6.75C4.85833 5.98333 4.475 5.05 4.475 3.95C4.475 2.85 4.85833 1.91667 5.625 1.15C6.39167 0.383333 7.325 0 8.425 0C9.525 0 10.4583 0.383333 11.225 1.15C11.9917 1.91667 12.375 2.85 12.375 3.95C12.375 5.05 11.9917 5.98333 11.225 6.75C10.4583 7.51667 9.525 7.9 8.425 7.9Z" fill="#79DE7D"/>
</svg>
