<svg width="95" height="95" viewBox="0 0 95 95" fill="none" xmlns="http://www.w3.org/2000/svg">
<circle cx="47.5" cy="47.5" r="47.5" fill="#1A1A1A"/>
<path d="M46.9993 52.5026H43.3327V48.8359H46.9993V52.5026ZM57.9993 52.5026H50.666V48.8359H57.9993V52.5026ZM39.666 45.1693H35.9993V41.5026H39.666V45.1693ZM57.9993 45.1693H43.3327V41.5026H57.9993V45.1693ZM61.666 61.6693H32.3327C31.3602 61.6693 30.4276 61.283 29.74 60.5953C29.0523 59.9077 28.666 58.9751 28.666 58.0026V36.0026C28.666 35.0301 29.0523 34.0975 29.74 33.4099C30.4276 32.7222 31.3602 32.3359 32.3327 32.3359H61.666C62.6385 32.3359 63.5711 32.7222 64.2587 33.4099C64.9464 34.0975 65.3327 35.0301 65.3327 36.0026V58.0026C65.3327 58.9751 64.9464 59.9077 64.2587 60.5953C63.5711 61.283 62.6385 61.6693 61.666 61.6693ZM32.3327 36.0026V58.0026H61.666V36.0026H32.3327Z" fill="#1FC827"/>
</svg>
