<svg width="95" height="95" viewBox="0 0 95 95" fill="none" xmlns="http://www.w3.org/2000/svg">
<circle cx="47.5" cy="47.5" r="47.5" fill="#1A1A1A"/>
<path d="M34.1673 41.5026V63.5026H26.834V41.5026H34.1673ZM41.5007 63.5026C40.5282 63.5026 39.5956 63.1163 38.9079 62.4287C38.2203 61.741 37.834 60.8084 37.834 59.8359V41.5026C37.834 40.4943 38.2373 39.5776 38.9157 38.9176L50.979 26.8359L52.9223 28.7793C53.4173 29.2743 53.729 29.9526 53.729 30.7043L53.674 31.2909L51.9323 39.6693H63.5006C65.5356 39.6693 67.1673 41.3193 67.1673 43.3359V47.0026C67.1673 47.4793 67.0756 47.9193 66.9107 48.3409L61.374 61.2659C60.824 62.5859 59.5223 63.5026 58.0007 63.5026H41.5007ZM41.5007 59.8359H58.0557L63.5006 47.0026V43.3359H47.3857L49.4573 33.5826L41.5007 41.5576V59.8359Z" fill="#1FC827"/>
</svg>
