<svg width="95" height="95" viewBox="0 0 95 95" fill="none" xmlns="http://www.w3.org/2000/svg">
<circle cx="47.5" cy="47.5" r="47.5" fill="#1A1A1A"/>
<path d="M61.6667 53.4167C59.4667 53.4167 57.0833 53.05 55.0667 52.3167C54.8833 52.3167 54.7 52.3167 54.5167 52.3167C53.9667 52.3167 53.6 52.5 53.2333 52.8667L49.2 56.9C44.0667 54.15 39.6667 49.9333 37.1 44.8L41.1333 40.7667C41.6833 40.2167 41.8667 39.4833 41.5 38.9333C40.95 36.9167 40.5833 34.5333 40.5833 32.3333C40.5833 31.4167 39.6667 30.5 38.75 30.5H32.3333C31.4167 30.5 30.5 31.4167 30.5 32.3333C30.5 49.5667 44.4333 63.5 61.6667 63.5C62.5833 63.5 63.5 62.5833 63.5 61.6667V55.25C63.5 54.3333 62.5833 53.4167 61.6667 53.4167ZM34.1667 34.1667H36.9167C37.1 35.8167 37.4667 37.4667 37.8333 38.9333L35.6333 41.1333C34.9 38.9333 34.35 36.55 34.1667 34.1667ZM59.8333 59.8333C57.45 59.65 55.0667 59.1 52.8667 58.3667L55.0667 56.1667C56.5333 56.5333 58.1833 56.9 59.8333 56.9V59.8333Z" fill="#1FC827"/>
</svg>
