<svg width="44" height="44" viewBox="0 0 44 44" fill="none" xmlns="http://www.w3.org/2000/svg">
<rect width="44" height="44" rx="5" fill="#00C782"/>
<g clip-path="url(#clip0_1199_6371)">
<path d="M27.5003 26.9901C26.5714 26.9901 25.7403 27.3568 25.1048 27.9312L16.3903 22.859C16.4514 22.5779 16.5003 22.2968 16.5003 22.0035C16.5003 21.7101 16.4514 21.429 16.3903 21.1479L25.007 16.1246C25.667 16.7357 26.5348 17.1146 27.5003 17.1146C29.5292 17.1146 31.167 15.4768 31.167 13.4479C31.167 11.419 29.5292 9.78125 27.5003 9.78125C25.4714 9.78125 23.8337 11.419 23.8337 13.4479C23.8337 13.7413 23.8825 14.0224 23.9437 14.3035L15.327 19.3268C14.667 18.7157 13.7992 18.3368 12.8337 18.3368C10.8048 18.3368 9.16699 19.9746 9.16699 22.0035C9.16699 24.0324 10.8048 25.6701 12.8337 25.6701C13.7992 25.6701 14.667 25.2912 15.327 24.6801L24.0292 29.7646C23.9681 30.0212 23.9314 30.2901 23.9314 30.559C23.9314 32.5268 25.5325 34.1279 27.5003 34.1279C29.4681 34.1279 31.0692 32.5268 31.0692 30.559C31.0692 28.5912 29.4681 26.9901 27.5003 26.9901ZM27.5003 12.2257C28.1725 12.2257 28.7225 12.7757 28.7225 13.4479C28.7225 14.1201 28.1725 14.6701 27.5003 14.6701C26.8281 14.6701 26.2781 14.1201 26.2781 13.4479C26.2781 12.7757 26.8281 12.2257 27.5003 12.2257ZM12.8337 23.2257C12.1614 23.2257 11.6114 22.6757 11.6114 22.0035C11.6114 21.3313 12.1614 20.7812 12.8337 20.7812C13.5059 20.7812 14.0559 21.3313 14.0559 22.0035C14.0559 22.6757 13.5059 23.2257 12.8337 23.2257ZM27.5003 31.8057C26.8281 31.8057 26.2781 31.2557 26.2781 30.5835C26.2781 29.9113 26.8281 29.3612 27.5003 29.3612C28.1725 29.3612 28.7225 29.9113 28.7225 30.5835C28.7225 31.2557 28.1725 31.8057 27.5003 31.8057Z" fill="white"/>
</g>
<defs>
<clipPath id="clip0_1199_6371">
<rect width="29.3333" height="29.3333" fill="white" transform="translate(5.5 7.33594)"/>
</clipPath>
</defs>
</svg>
