<svg width="40" height="40" viewBox="0 0 40 40" fill="none" xmlns="http://www.w3.org/2000/svg">
<rect width="40" height="40" rx="20" fill="#141414"/>
<path d="M27.0585 11.6642H12.9418C12.7831 11.662 12.6255 11.6911 12.4781 11.7497C12.3307 11.8084 12.1962 11.8956 12.0825 12.0063C11.9687 12.1169 11.8779 12.2489 11.8151 12.3947C11.7524 12.5405 11.719 12.6972 11.7168 12.8558V27.1392C11.719 27.2979 11.7524 27.4546 11.8151 27.6003C11.8779 27.7461 11.9687 27.8781 12.0825 27.9888C12.1962 28.0994 12.3307 28.1866 12.4781 28.2453C12.6255 28.304 12.7831 28.333 12.9418 28.3308H27.0585C27.2171 28.333 27.3747 28.304 27.5222 28.2453C27.6696 28.1866 27.804 28.0994 27.9178 27.9888C28.0316 27.8781 28.1224 27.7461 28.1851 27.6003C28.2479 27.4546 28.2813 27.2979 28.2835 27.1392V12.8558C28.2813 12.6972 28.2479 12.5405 28.1851 12.3947C28.1224 12.2489 28.0316 12.1169 27.9178 12.0063C27.804 11.8956 27.6696 11.8084 27.5222 11.7497C27.3747 11.6911 27.2171 11.662 27.0585 11.6642V11.6642ZM16.7418 25.6142H14.2418V18.1142H16.7418V25.6142ZM15.4918 17.0642C15.147 17.0642 14.8164 16.9272 14.5726 16.6834C14.3288 16.4396 14.1918 16.109 14.1918 15.7642C14.1918 15.4194 14.3288 15.0887 14.5726 14.8449C14.8164 14.6011 15.147 14.4642 15.4918 14.4642C15.6749 14.4434 15.8603 14.4616 16.0359 14.5174C16.2114 14.5733 16.3732 14.6656 16.5107 14.7883C16.6481 14.911 16.7581 15.0614 16.8334 15.2296C16.9086 15.3978 16.9476 15.5799 16.9476 15.7642C16.9476 15.9484 16.9086 16.1306 16.8334 16.2988C16.7581 16.4669 16.6481 16.6173 16.5107 16.74C16.3732 16.8628 16.2114 16.9551 16.0359 17.0109C15.8603 17.0668 15.6749 17.0849 15.4918 17.0642V17.0642ZM25.7585 25.6142H23.2585V21.5892C23.2585 20.5808 22.9001 19.9225 21.9918 19.9225C21.7107 19.9246 21.437 20.0127 21.2075 20.1752C20.978 20.3376 20.8039 20.5664 20.7085 20.8308C20.6433 21.0267 20.615 21.233 20.6251 21.4392V25.6058H18.1251C18.1251 25.6058 18.1251 18.7892 18.1251 18.1058H20.6251V19.1642C20.8522 18.7701 21.1826 18.4454 21.5805 18.2252C21.9784 18.0049 22.4289 17.8974 22.8835 17.9142C24.5501 17.9142 25.7585 18.9892 25.7585 21.2975V25.6142Z" fill="white"/>
</svg>
