<svg width="129" height="129" viewBox="0 0 129 129" fill="none" xmlns="http://www.w3.org/2000/svg">
<rect x="0.586364" y="0.586364" width="127.827" height="127.827" rx="63.9136" fill="#141414"/>
<rect x="0.586364" y="0.586364" width="127.827" height="127.827" rx="63.9136" stroke="#262626" stroke-width="1.17273"/>
<rect x="35.768" y="35.7661" width="57.4636" height="57.4636" rx="28.7318" fill="#1A1A1A" stroke="#262626" stroke-width="1.17273"/>
<path d="M57.5 71.5L72.5 56.5M72.5 56.5L61.25 56.5M72.5 56.5V67.75" stroke="white" stroke-width="1.5" stroke-linecap="round" stroke-linejoin="round"/>
<path d="M75.7822 103.986L64.8265 105.521L66.3616 116.477L77.3174 114.942L75.7822 103.986Z" fill="white"/>
<path d="M61.5441 107.654L60.3816 115.31L57.8496 114.926C57.321 114.846 56.8404 114.67 56.4078 114.399C55.9747 114.132 55.61 113.795 55.3137 113.388C55.0168 112.985 54.8051 112.537 54.6785 112.044C54.5478 111.555 54.5225 111.045 54.6028 110.517C54.6831 109.988 54.8586 109.507 55.1294 109.075C55.396 108.645 55.7312 108.28 56.1349 107.98C56.538 107.683 56.9863 107.47 57.4798 107.339C57.9727 107.213 58.4835 107.19 59.0121 107.27L61.5441 107.654ZM60.2339 108.619L58.8394 108.407C58.4675 108.351 58.1107 108.368 57.7688 108.457C57.4233 108.547 57.1077 108.696 56.8222 108.907C56.533 109.116 56.2945 109.373 56.1067 109.676C55.9189 109.98 55.7967 110.318 55.7403 110.689C55.6838 111.061 55.7002 111.42 55.7895 111.765C55.8788 112.111 56.0304 112.427 56.2443 112.713C56.4545 112.998 56.7114 113.235 57.0148 113.423C57.3146 113.61 57.6505 113.732 58.0223 113.789L59.4169 114L60.2339 108.619Z" fill="white"/>
<path d="M48.9926 110.559L47.9086 110.174L49.7615 104.962L50.8456 105.348L48.9926 110.559ZM48.1715 111.119C48.3383 111.178 48.4581 111.281 48.531 111.428C48.6039 111.576 48.6113 111.731 48.5532 111.894C48.4964 112.054 48.3933 112.168 48.2438 112.236C48.0931 112.308 47.9361 112.315 47.7728 112.257C47.6129 112.2 47.4972 112.096 47.4255 111.945C47.3526 111.798 47.3446 111.645 47.4014 111.485C47.4595 111.322 47.5633 111.206 47.7127 111.138C47.8587 111.068 48.0117 111.062 48.1715 111.119Z" fill="white"/>
<path d="M44.3907 102.416C44.6379 102.572 44.8594 102.759 45.055 102.978C45.2506 103.198 45.4003 103.432 45.5041 103.681C45.603 103.932 45.6424 104.184 45.6223 104.438L44.5613 104.34C44.5667 104.23 44.5404 104.105 44.4824 103.964C44.4211 103.822 44.3342 103.684 44.2214 103.552C44.107 103.423 43.9719 103.316 43.8164 103.231C43.664 103.149 43.5116 103.093 43.3591 103.065C43.2016 103.038 43.0561 103.047 42.9226 103.092C42.789 103.137 42.688 103.223 42.6194 103.35C42.542 103.492 42.5308 103.629 42.5859 103.759C42.6359 103.891 42.7208 104.017 42.8405 104.137C42.9603 104.256 43.0809 104.374 43.2024 104.49C43.4814 104.734 43.7203 104.99 43.9193 105.257C44.1132 105.526 44.2352 105.8 44.2853 106.079C44.3336 106.361 44.2803 106.644 44.1256 106.93C43.9567 107.241 43.7265 107.464 43.4348 107.599C43.1414 107.738 42.8252 107.795 42.4861 107.771C42.1438 107.744 41.817 107.647 41.5059 107.478C41.1169 107.267 40.8052 106.991 40.5708 106.65C40.3364 106.308 40.2115 105.947 40.1963 105.565L41.257 105.524C41.2529 105.648 41.2783 105.775 41.3333 105.905C41.3884 106.036 41.4651 106.157 41.5637 106.269C41.6605 106.385 41.7735 106.482 41.9029 106.561C42.0647 106.657 42.2292 106.721 42.3964 106.753C42.5587 106.786 42.7074 106.779 42.8427 106.731C42.978 106.682 43.0852 106.585 43.1643 106.439C43.2417 106.297 43.2495 106.163 43.1877 106.037C43.1242 105.914 43.0277 105.791 42.8982 105.666C42.7655 105.539 42.6322 105.406 42.4982 105.266C42.259 105.019 42.0491 104.76 41.8683 104.49C41.6859 104.223 41.5687 103.952 41.5169 103.676C41.4651 103.401 41.5172 103.127 41.6732 102.855C41.8385 102.55 42.0759 102.333 42.3856 102.203C42.6919 102.072 43.0235 102.025 43.3803 102.063C43.7371 102.102 44.0739 102.219 44.3907 102.416Z" fill="white"/>
<path d="M35.2713 98.1163L34.839 97.0283C35.2559 96.9198 35.6804 96.9089 36.1124 96.9955C36.5415 97.0797 36.9289 97.2659 37.2744 97.554C37.6652 97.88 37.9381 98.2781 38.0933 98.7484C38.2456 99.2164 38.2775 99.6991 38.1891 100.197C38.0954 100.695 37.8773 101.149 37.5348 101.56C37.275 101.871 36.9777 102.116 36.6429 102.292C36.3057 102.472 35.9558 102.584 35.5932 102.627C35.2254 102.671 34.8642 102.643 34.5096 102.544C34.1551 102.446 33.832 102.275 33.5403 102.031C33.1948 101.743 32.9421 101.396 32.7822 100.989C32.6195 100.579 32.5552 100.158 32.5893 99.7257L33.7373 99.9556C33.7381 100.196 33.7871 100.42 33.8843 100.626C33.9791 100.834 34.1101 101.008 34.2772 101.148C34.5094 101.341 34.7735 101.454 35.0695 101.484C35.3604 101.516 35.6472 101.474 35.9301 101.359C36.2078 101.245 36.4481 101.066 36.6513 100.823C36.852 100.582 36.9834 100.312 37.0453 100.014C37.105 99.7176 37.0933 99.4293 37.0103 99.1488C36.9245 98.866 36.7668 98.6289 36.5375 98.4376C36.3619 98.2912 36.1617 98.1915 35.937 98.1385C35.7123 98.0855 35.4904 98.0781 35.2713 98.1163Z" fill="white"/>
<path d="M30.9769 91.0505C31.2875 91.4536 31.4674 91.9016 31.5165 92.3944C31.5635 92.8843 31.4896 93.3624 31.2951 93.8289C31.0953 94.2947 30.7837 94.6908 30.3601 95.0171C30.0388 95.2647 29.6955 95.4384 29.3302 95.5383C28.962 95.6404 28.5962 95.6732 28.2329 95.6366C27.8643 95.5993 27.5178 95.4939 27.1932 95.3204C26.8686 95.1469 26.5904 94.9096 26.3586 94.6088C26.048 94.2057 25.8693 93.7592 25.8223 93.2693C25.7732 92.7765 25.8485 92.2972 26.0482 91.8314C26.2457 91.3627 26.5577 90.964 26.9842 90.6354C27.3026 90.3901 27.6444 90.2175 28.0097 90.1176C28.375 90.0177 28.7419 89.9864 29.1104 90.0237C29.4738 90.0603 29.8177 90.1653 30.1423 90.3389C30.4646 90.5095 30.7428 90.7467 30.9769 91.0505ZM30.0655 91.7527C29.8787 91.5103 29.6468 91.3421 29.3697 91.2484C29.0926 91.1546 28.8062 91.1333 28.5103 91.1843C28.2093 91.2347 27.9347 91.3555 27.6864 91.5468C27.4322 91.7426 27.2435 91.9811 27.1203 92.2622C26.9949 92.5405 26.9436 92.8244 26.9665 93.1139C26.9865 93.4057 27.0877 93.67 27.27 93.9066C27.4546 94.1461 27.6865 94.3142 27.9658 94.4109C28.2429 94.5047 28.5319 94.5264 28.8329 94.476C29.1317 94.4227 29.4067 94.2993 29.6579 94.1057C29.9179 93.9054 30.108 93.6658 30.2283 93.3869C30.3486 93.108 30.3973 92.8238 30.3744 92.5342C30.3463 92.244 30.2433 91.9835 30.0655 91.7527Z" fill="white"/>
<path d="M25.4889 82.2039L26.1143 83.5418L21.9484 87.7179L21.4283 86.6055L24.6001 83.4375L20.133 83.8345L19.6153 82.727L25.4889 82.2039Z" fill="white"/>
<path d="M22.9872 74.2419C23.0973 74.7388 23.0701 75.2207 22.9054 75.6878C22.7399 76.1513 22.4701 76.5529 22.0959 76.8927C21.7174 77.2296 21.2671 77.456 20.745 77.5716C20.349 77.6594 19.9644 77.671 19.5913 77.6064C19.2146 77.5426 18.8695 77.417 18.556 77.2296C18.2381 77.0394 17.9691 76.7969 17.7488 76.502C17.5286 76.2071 17.3774 75.8742 17.2953 75.5034C17.2035 75.0894 17.2057 74.6904 17.3019 74.3065C17.3946 73.9233 17.5649 73.5759 17.8131 73.264C18.0577 72.953 18.3634 72.6964 18.7303 72.4942C19.0936 72.2928 19.5 72.1669 19.9496 72.1163L20.8724 76.28C21.1104 76.1781 21.3155 76.0383 21.4876 75.8604C21.6553 75.6797 21.7736 75.4722 21.8425 75.2378C21.9107 74.9999 21.9178 74.7509 21.8639 74.4909C21.8033 74.2173 21.6799 73.984 21.4936 73.7911C21.3065 73.5946 21.0764 73.4511 20.8033 73.3605L20.8154 72.1624C21.3421 72.2723 21.8067 72.5112 22.2093 72.879C22.6082 73.2476 22.8675 73.7019 22.9872 74.2419ZM20.0221 76.5081L19.3423 73.4407C19.0911 73.5341 18.8774 73.6778 18.7013 73.8717C18.5208 74.0628 18.3937 74.2817 18.32 74.5284C18.2418 74.7724 18.2315 75.024 18.2889 75.2832C18.3456 75.5388 18.4594 75.7628 18.6305 75.9553C18.8008 76.1442 19.0081 76.2871 19.2524 76.3841C19.4924 76.4782 19.7489 76.5195 20.0221 76.5081Z" fill="white"/>
<path d="M21.8088 67.0649L16.2786 67.1762L16.2555 66.0259L16.8417 66.0141C16.6092 65.827 16.4238 65.5947 16.2855 65.3171C16.1471 65.0396 16.0746 64.7386 16.0681 64.4142C16.064 64.2077 16.0875 64.0025 16.1387 63.7986L17.3093 64.2343C17.2569 64.3792 17.2321 64.5235 17.235 64.6673C17.2399 64.9107 17.3053 65.1325 17.431 65.3328C17.5531 65.5332 17.7167 65.6922 17.9219 65.8098C18.1271 65.9274 18.3533 65.9837 18.6003 65.9787L21.7857 65.9146L21.8088 67.0649Z" fill="white"/>
<path d="M17.2502 46.8413L17.6846 45.5577L20.8609 49.424L24.1722 50.5447L23.8034 51.6345L20.492 50.5138L15.6223 51.6511L16.0568 50.3674L19.4871 49.5664L17.2502 46.8413Z" fill="white"/>
<path d="M28.2914 42.2372C28.0213 42.6684 27.6636 42.9926 27.2186 43.2099C26.7755 43.424 26.3014 43.5208 25.7964 43.5003C25.2903 43.4748 24.8106 43.32 24.3575 43.0362C24.0138 42.8208 23.7316 42.5592 23.5111 42.2513C23.2875 41.9415 23.1297 41.6099 23.0379 41.2564C22.9448 40.8979 22.9233 40.5363 22.9734 40.1716C23.0234 39.807 23.1493 39.4637 23.3509 39.1419C23.6211 38.7106 23.9777 38.3879 24.4208 38.1738C24.8659 37.9566 25.3415 37.8608 25.8477 37.8863C26.3558 37.9088 26.838 38.0629 27.2942 38.3487C27.6348 38.5621 27.9154 38.8228 28.1359 39.1306C28.3564 39.4385 28.5132 39.7717 28.6062 40.1303C28.6981 40.4837 28.719 40.8428 28.669 41.2074C28.6209 41.5689 28.495 41.9122 28.2914 42.2372ZM27.3165 41.6263C27.479 41.367 27.5561 41.0911 27.5478 40.7987C27.5395 40.5063 27.4601 40.2302 27.3095 39.9705C27.1577 39.7057 26.949 39.4901 26.6834 39.3237C26.4115 39.1534 26.1224 39.0593 25.8159 39.0413C25.5115 39.0203 25.2274 39.0708 24.9638 39.1929C24.6971 39.313 24.4845 39.4996 24.3259 39.7527C24.1653 40.0089 24.0882 40.2848 24.0946 40.5803C24.1028 40.8727 24.1829 41.1513 24.3346 41.4161C24.4884 41.6778 24.6996 41.8928 24.9683 42.0612C25.2465 42.2354 25.5372 42.3305 25.8405 42.3465C26.1438 42.3625 26.4272 42.3094 26.6908 42.1873C26.9532 42.0602 27.1618 41.8732 27.3165 41.6263Z" fill="white"/>
<path d="M30.8188 34.9715L28.3584 32.5429L29.1666 31.7241L31.4263 33.9545C31.6021 34.128 31.8049 34.2428 32.0348 34.2986C32.2646 34.3545 32.4941 34.353 32.7231 34.2941C32.9496 34.2327 33.1483 34.1154 33.3193 33.9421C33.4928 33.7663 33.6076 33.5661 33.6635 33.3415C33.7193 33.1116 33.7165 32.8835 33.6551 32.657C33.5962 32.4279 33.4789 32.2266 33.303 32.0531L31.0434 29.8227L31.8516 29.0038L35.7922 32.8856L34.984 33.7044L34.5549 33.2887C34.5855 33.5832 34.5496 33.8768 34.4472 34.1695C34.3448 34.4622 34.181 34.7227 33.9556 34.951C33.668 35.2424 33.3355 35.4375 32.9581 35.5364C32.5806 35.6354 32.2026 35.6378 31.8238 35.5438C31.4451 35.4498 31.1101 35.259 30.8188 34.9715Z" fill="white"/>
<path d="M39.1944 30.1536L36.0665 25.5915L37.0155 24.9409L37.347 25.4245C37.3759 25.1275 37.4683 24.845 37.6244 24.577C37.7805 24.309 37.9924 24.0833 38.26 23.8998C38.4303 23.783 38.6148 23.6901 38.8133 23.621L39.0915 24.8387C38.9416 24.8744 38.8074 24.9329 38.6887 25.0142C38.488 25.1519 38.3384 25.3282 38.24 25.5433C38.1394 25.7553 38.0963 25.9793 38.1106 26.2154C38.1249 26.4515 38.202 26.6714 38.3417 26.8752L40.1433 29.503L39.1944 30.1536Z" fill="white"/>
<path d="M50.9486 23.9077L49.0517 16.3997L51.5347 15.7724C52.0531 15.6414 52.5641 15.6169 53.0679 15.6988C53.5707 15.7772 54.0375 15.9464 54.4684 16.2065C54.8983 16.463 55.2672 16.7939 55.575 17.1991C55.8854 17.5999 56.1061 18.0595 56.2371 18.5779C56.3681 19.0964 56.3926 19.6074 56.3107 20.1112C56.2315 20.6104 56.064 21.0768 55.8084 21.5103C55.5519 21.9403 55.2215 22.3109 54.8171 22.6223C54.4118 22.93 53.95 23.1494 53.4316 23.2804L50.9486 23.9077ZM51.7822 22.5104L53.1497 22.1649C53.5144 22.0728 53.8369 21.9191 54.1172 21.7037C54.4011 21.4875 54.6339 21.2271 54.8155 20.9225C55.0008 20.6171 55.1212 20.2881 55.1766 19.9356C55.2321 19.583 55.2138 19.2244 55.1216 18.8598C55.0295 18.4951 54.8753 18.1708 54.6591 17.887C54.4428 17.6031 54.1806 17.3708 53.8725 17.19C53.568 17.0083 53.2394 16.8897 52.8869 16.8342C52.538 16.7779 52.1812 16.7957 51.8165 16.8879L50.449 17.2334L51.7822 22.5104Z" fill="white"/>
<path d="M61.6887 21.8687L61.4932 16.3408L62.643 16.3001L62.6637 16.8861C62.8473 16.6508 63.0767 16.4619 63.3521 16.3193C63.6275 16.1768 63.9274 16.0997 64.2517 16.0883C64.458 16.081 64.6635 16.1014 64.8682 16.1495L64.4504 17.3266C64.3047 17.2764 64.16 17.2538 64.0163 17.2589C63.7731 17.2675 63.5523 17.3362 63.3539 17.465C63.1554 17.5901 62.9989 17.7561 62.8844 17.9631C62.77 18.1701 62.7171 18.3971 62.7259 18.644L62.8385 21.8281L61.6887 21.8687Z" fill="white"/>
<path d="M71.3401 22.449C70.8379 22.3666 70.4006 22.1622 70.0282 21.8358C69.6594 21.5099 69.3868 21.1102 69.2104 20.6366C69.0382 20.1599 68.9954 19.6577 69.082 19.1301C69.1477 18.7298 69.2798 18.3685 69.4784 18.0461C69.6777 17.72 69.9225 17.4463 70.213 17.2249C70.5076 17.0004 70.8328 16.8408 71.1884 16.7459C71.544 16.651 71.9092 16.6344 72.284 16.6959C72.7025 16.7645 73.0721 16.9148 73.3928 17.1468C73.714 17.3752 73.9733 17.6625 74.1706 18.0088C74.3685 18.3514 74.4931 18.7306 74.5445 19.1463C74.5965 19.5584 74.5624 19.9826 74.4422 20.4188L70.2338 19.7283C70.2399 19.9871 70.2936 20.2295 70.3948 20.4554C70.5002 20.6782 70.6489 20.8651 70.8409 21.0162C71.0365 21.1679 71.265 21.267 71.5264 21.3137C71.8029 21.359 72.0654 21.3311 72.3137 21.2298C72.5656 21.1292 72.7844 20.9689 72.9699 20.7489L74.0778 21.2054C73.78 21.6535 73.3856 21.9961 72.8945 22.2332C72.4041 22.4666 71.8859 22.5386 71.3401 22.449ZM70.338 18.8541L73.4384 19.3628C73.445 19.0948 73.391 18.8431 73.2764 18.6075C73.1661 18.369 73.0101 18.1696 72.8084 18.0095C72.611 17.8463 72.3813 17.7432 72.1193 17.7002C71.8609 17.6578 71.6106 17.6803 71.3683 17.7676C71.1297 17.8555 70.9199 17.9948 70.7392 18.1856C70.5626 18.3734 70.4289 18.5962 70.338 18.8541Z" fill="white"/>
<path d="M84.5348 20.4793L85.5994 20.9155L83.5021 26.0338L82.4324 25.5955L82.6955 24.8366C82.4377 25.0378 82.148 25.1662 81.8264 25.2217C81.5047 25.2772 81.1699 25.2336 80.8219 25.091C80.4465 24.9372 80.122 24.7225 79.8484 24.447C79.5761 24.1681 79.3654 23.8506 79.2164 23.4947C79.0708 23.1401 78.9951 22.7703 78.9894 22.3854C78.9852 21.9971 79.0606 21.6136 79.2158 21.2348C79.3654 20.8697 79.5742 20.5548 79.8421 20.2899C80.1114 20.0217 80.4169 19.8161 80.7584 19.6731C81.0999 19.5301 81.4573 19.4554 81.8306 19.4489C82.2087 19.4404 82.5803 19.511 82.9454 19.6606C83.3173 19.813 83.6099 20.0325 83.8232 20.3192C84.0414 20.6039 84.1904 20.916 84.2704 21.2556L84.5348 20.4793ZM81.2178 24.0517C81.5181 24.1748 81.8109 24.2091 82.0962 24.1546C82.383 24.0968 82.6395 23.9668 82.8658 23.7646C83.0955 23.5638 83.2733 23.3099 83.3991 23.0028C83.5264 22.6923 83.5786 22.3849 83.5558 22.0806C83.533 21.7764 83.4391 21.5048 83.274 21.2658C83.1137 21.0248 82.8834 20.8427 82.5832 20.7197C82.2863 20.598 81.9843 20.562 81.6771 20.6114C81.3699 20.6609 81.0929 20.7825 80.8461 20.9763C80.5993 21.1701 80.413 21.4205 80.2872 21.7276C80.1599 22.0381 80.1179 22.3497 80.1612 22.6623C80.2093 22.973 80.3237 23.253 80.5044 23.5024C80.69 23.7498 80.9278 23.9329 81.2178 24.0517Z" fill="white"/>
<path d="M87.3044 27.9769L90.6541 23.5752L91.5697 24.2719L91.2146 24.7385C91.5056 24.6727 91.8014 24.6707 92.1019 24.7326C92.4053 24.7966 92.6861 24.9269 92.9444 25.1235C93.2583 25.3624 93.4893 25.6587 93.6373 26.0122C93.7875 26.3629 93.8455 26.7221 93.8112 27.0899C94.1565 26.9588 94.5153 26.9167 94.8874 26.9636C95.2647 27.0097 95.6103 27.1523 95.9243 27.3912C96.2501 27.6391 96.4862 27.9439 96.6326 28.3056C96.7791 28.6673 96.8299 29.0419 96.7851 29.4295C96.7404 29.8172 96.5941 30.1738 96.3462 30.4996L94.2459 33.2595L93.3303 32.5627L95.2531 30.0361C95.4005 29.8424 95.4886 29.6292 95.5176 29.3963C95.5465 29.1635 95.5197 28.9369 95.4371 28.7165C95.3546 28.4961 95.2165 28.3122 95.0228 28.1649C94.8291 28.0175 94.6173 27.9304 94.3874 27.9037C94.1575 27.8771 93.9342 27.9087 93.7174 27.9986C93.5007 28.0886 93.3142 28.2362 93.1579 28.4416L91.2351 30.9683L90.3196 30.2715L92.2423 27.7449C92.3986 27.5395 92.4912 27.3204 92.5202 27.0875C92.5491 26.8546 92.5186 26.6298 92.4286 26.4131C92.3416 26.1986 92.2013 26.0177 92.0076 25.8703C91.8169 25.7251 91.6028 25.641 91.3655 25.618C91.1311 25.5972 90.9056 25.6317 90.6888 25.7217C90.4721 25.8116 90.2901 25.9534 90.1427 26.1471L88.2199 28.6737L87.3044 27.9769Z" fill="white"/>
<path d="M100.644 41.1356L107.348 37.2588L108.683 39.5667C108.891 39.9274 108.99 40.3047 108.98 40.6986C108.971 41.0957 108.864 41.4681 108.661 41.8158C108.459 42.1668 108.175 42.4484 107.808 42.6607C107.434 42.8767 107.044 42.983 106.637 42.9796C106.236 42.9776 105.861 42.8814 105.512 42.6911C105.164 42.5008 104.888 42.2301 104.685 41.879L103.926 40.567L101.22 42.1316L100.644 41.1356ZM104.922 39.991L105.622 41.2024C105.733 41.394 105.882 41.5402 106.068 41.6413C106.256 41.7455 106.457 41.7978 106.67 41.798C106.885 41.8015 107.093 41.7451 107.294 41.6288C107.495 41.5124 107.648 41.3603 107.752 41.1722C107.861 40.9855 107.916 40.7855 107.916 40.5724C107.921 40.3606 107.869 40.1589 107.758 39.9674L107.057 38.7559L104.922 39.991Z" fill="white"/>
<path d="M104.768 49.2594L109.995 47.4491L110.371 48.5362L109.817 48.7281C110.096 48.8345 110.344 48.9984 110.561 49.2197C110.778 49.4411 110.94 49.7051 111.046 50.0118C111.114 50.2069 111.155 50.4093 111.169 50.6191L109.921 50.5654C109.926 50.4114 109.905 50.2665 109.858 50.1306C109.778 49.9006 109.648 49.7097 109.467 49.5579C109.289 49.4049 109.084 49.304 108.853 49.2554C108.621 49.2068 108.389 49.2229 108.155 49.3038L105.145 50.3465L104.768 49.2594Z" fill="white"/>
<path d="M107.047 58.6577C106.978 58.1534 107.045 57.6754 107.248 57.2235C107.451 56.7753 107.753 56.3973 108.154 56.0896C108.559 55.785 109.027 55.5966 109.556 55.5244C109.958 55.4697 110.343 55.4899 110.709 55.5851C111.079 55.6798 111.413 55.8334 111.71 56.046C112.011 56.2618 112.259 56.5257 112.454 56.8378C112.649 57.1499 112.772 57.4941 112.824 57.8704C112.892 58.3747 112.825 58.8509 112.622 59.2991C112.419 59.751 112.116 60.1292 111.71 60.4338C111.306 60.742 110.837 60.9325 110.303 61.0052C109.905 61.0594 109.523 61.039 109.156 60.9438C108.79 60.8486 108.456 60.6931 108.155 60.4773C107.858 60.2647 107.612 60.0024 107.417 59.6903C107.222 59.3819 107.099 59.0377 107.047 58.6577ZM108.187 58.5023C108.228 58.8056 108.346 59.0668 108.539 59.2861C108.733 59.5053 108.971 59.6664 109.253 59.7694C109.539 59.8756 109.837 59.9075 110.148 59.8652C110.466 59.8218 110.748 59.7089 110.995 59.5264C111.242 59.3476 111.428 59.1269 111.552 58.8643C111.68 58.6013 111.724 58.3217 111.684 58.0258C111.643 57.7262 111.525 57.4649 111.331 57.242C111.138 57.0228 110.898 56.8601 110.612 56.7539C110.326 56.6514 110.026 56.6216 109.712 56.6644C109.387 56.7087 109.102 56.8219 108.859 57.0039C108.616 57.1859 108.432 57.4082 108.308 57.6708C108.188 57.9365 108.148 58.2137 108.187 58.5023Z" fill="white"/>
<path d="M104.829 66.7975L104.934 65.6517L113.197 66.4042L113.092 67.55L112.283 67.4762C112.549 67.6856 112.757 67.9415 112.907 68.244C113.057 68.5465 113.114 68.8924 113.079 69.2817C113.043 69.682 112.933 70.0497 112.751 70.3849C112.568 70.7237 112.331 71.0131 112.039 71.2531C111.75 71.4935 111.424 71.673 111.062 71.7918C110.699 71.9106 110.318 71.9518 109.918 71.9153C109.517 71.8789 109.148 71.7693 108.809 71.5866C108.47 71.404 108.179 71.1682 107.935 70.8794C107.694 70.5909 107.515 70.2635 107.396 69.8972C107.278 69.5347 107.236 69.1532 107.273 68.7529C107.308 68.3637 107.427 68.0338 107.63 67.7634C107.836 67.4934 108.087 67.2792 108.382 67.121L104.829 66.7975ZM111.973 69.1698C112.002 68.8503 111.947 68.562 111.807 68.305C111.668 68.0479 111.468 67.839 111.209 67.6784C110.953 67.5181 110.66 67.4229 110.329 67.3928C109.999 67.3627 109.692 67.4032 109.407 67.5143C109.123 67.6255 108.889 67.7948 108.706 68.0225C108.522 68.2502 108.416 68.5238 108.387 68.8433C108.358 69.1591 108.41 69.4564 108.544 69.7352C108.682 70.0143 108.879 70.2452 109.137 70.4279C109.394 70.6105 109.69 70.7171 110.024 70.7475C110.351 70.7773 110.657 70.7256 110.943 70.5924C111.229 70.4629 111.465 70.2733 111.651 70.0236C111.836 69.7739 111.944 69.4893 111.973 69.1698Z" fill="white"/>
<path d="M105.431 77.7804C105.59 77.2968 105.859 76.8962 106.239 76.5784C106.618 76.2641 107.055 76.0562 107.55 75.9548C108.047 75.858 108.55 75.893 109.058 76.0597C109.443 76.1862 109.78 76.3724 110.068 76.6182C110.36 76.8653 110.592 77.1493 110.767 77.4703C110.943 77.796 111.051 78.1419 111.09 78.5078C111.129 78.8738 111.089 79.2373 110.971 79.5981C110.838 80.0011 110.633 80.3431 110.354 80.6243C110.079 80.9066 109.756 81.1186 109.383 81.2603C109.014 81.4031 108.62 81.4679 108.202 81.4547C107.786 81.4427 107.373 81.3437 106.96 81.1579L108.29 77.1058C108.033 77.072 107.785 77.0878 107.547 77.153C107.31 77.2229 107.103 77.3411 106.924 77.5075C106.744 77.6774 106.611 77.888 106.524 78.1391C106.437 78.4054 106.424 78.669 106.486 78.9299C106.547 79.1943 106.672 79.4351 106.86 79.6523L106.239 80.6767C105.842 80.3136 105.564 79.8712 105.405 79.3495C105.25 78.829 105.259 78.3059 105.431 77.7804ZM109.137 77.3432L108.158 80.3284C108.422 80.3762 108.679 80.3616 108.929 80.2846C109.182 80.2123 109.403 80.0888 109.592 79.9142C109.784 79.7442 109.921 79.5331 110.004 79.2808C110.085 79.032 110.102 78.7812 110.053 78.5284C110.002 78.2791 109.897 78.0505 109.736 77.8425C109.578 77.6391 109.378 77.4727 109.137 77.3432Z" fill="white"/>
<path d="M102.783 84.5658L107.597 87.2905L107.03 88.2918L106.52 88.003C106.624 88.2825 106.665 88.5768 106.643 88.8861C106.62 89.1954 106.529 89.4913 106.369 89.7737C106.267 89.9534 106.142 90.1179 105.994 90.2671L105.21 89.2954C105.329 89.1975 105.424 89.086 105.494 88.9608C105.614 88.749 105.671 88.5249 105.665 88.2884C105.662 88.0538 105.603 87.8336 105.486 87.6278C105.37 87.422 105.204 87.2582 104.989 87.1365L102.216 85.5671L102.783 84.5658Z" fill="white"/>
<path d="M100.431 95.7457L101.166 94.846L97.7762 92.0709L98.5039 91.1797L101.894 93.9548L102.45 93.2736L103.341 94.0013L102.785 94.6825L104.134 95.7768L103.406 96.6679L102.057 95.5737L101.322 96.4734L100.431 95.7457Z" fill="white"/>
<path d="M94.6675 102.811L93.7245 103.597L90.7382 95.2839L91.677 94.501L92.6795 97.2662L97.7473 100.242L96.783 101.046L93.2474 98.8453L94.6675 102.811Z" fill="white"/>
</svg>
