<svg width="14" height="21" viewBox="0 0 14 21" fill="none" xmlns="http://www.w3.org/2000/svg">
<path d="M7 9.96875C6.33696 9.96875 5.70107 9.70536 5.23223 9.23652C4.76339 8.76768 4.5 8.13179 4.5 7.46875C4.5 6.80571 4.76339 6.16982 5.23223 5.70098C5.70107 5.23214 6.33696 4.96875 7 4.96875C7.66304 4.96875 8.29893 5.23214 8.76777 5.70098C9.23661 6.16982 9.5 6.80571 9.5 7.46875C9.5 7.79705 9.43534 8.12214 9.3097 8.42546C9.18406 8.72877 8.99991 9.00437 8.76777 9.23652C8.53562 9.46866 8.26002 9.65281 7.95671 9.77845C7.65339 9.90409 7.3283 9.96875 7 9.96875ZM7 0.46875C5.14348 0.46875 3.36301 1.20625 2.05025 2.519C0.737498 3.83176 0 5.61223 0 7.46875C0 12.7188 7 20.4688 7 20.4688C7 20.4688 14 12.7188 14 7.46875C14 5.61223 13.2625 3.83176 11.9497 2.519C10.637 1.20625 8.85652 0.46875 7 0.46875Z" fill="#1FC827"/>
</svg>
