<svg width="474" height="258" viewBox="0 0 474 258" fill="none" xmlns="http://www.w3.org/2000/svg">
<g clip-path="url(#clip0_1199_1088)">
<path fill-rule="evenodd" clip-rule="evenodd" d="M116.016 3.90536C116.364 3.40687 116.867 3.58814 116.554 1.43103C115.382 -2.10193 116.874 2.09447 116.736 1.49447C116.563 2.53677 115.923 2.02922 115.531 1.97302C115.652 2.4407 115.814 3.19478 116.016 3.90536Z" fill="#1A1A1A"/>
<path fill-rule="evenodd" clip-rule="evenodd" d="M41.6062 220.081C38.8966 215.577 36.6862 210.622 34.5177 206.203C33.3642 207.983 30.0587 227.461 25.4922 257.999H35.3724C38.3645 235.582 40.5894 221.68 41.6062 220.081Z" fill="#1A1A1A"/>
<path fill-rule="evenodd" clip-rule="evenodd" d="M33.1471 207.159C30.9567 202.977 28.9213 198.994 26.8622 195.969C25.7415 197.591 21.7417 221.464 16.2422 257.998H25.173C29.1691 228.01 32.0738 208.875 33.1471 207.159Z" fill="#1A1A1A"/>
<path fill-rule="evenodd" clip-rule="evenodd" d="M25.8756 194.753C24.0297 192.123 22.2676 189.625 20.5274 187.25C18.4664 199.169 16.38 210.929 14.3773 222.618C12.3401 234.487 10.3301 246.297 8.37305 257.971L8.50425 257.994H16.533C19.5251 237.223 22.7031 216.07 25.8756 194.751V194.753Z" fill="#1A1A1A"/>
<path fill-rule="evenodd" clip-rule="evenodd" d="M19.8041 186.021C18.2624 183.561 16.7919 181.374 15.3924 179.312C12.7393 192.397 10.0897 205.337 7.53859 218.03C4.96377 230.851 2.43633 243.526 0 255.954V256.463C2.31424 256.9 4.69226 257.333 7.13405 257.728C9.12576 245.962 11.2323 234.011 13.357 221.956C15.4453 210.105 17.6684 198.139 19.8041 186.021Z" fill="#1A1A1A"/>
<path fill-rule="evenodd" clip-rule="evenodd" d="M14.6963 178.399C13.377 176.428 12.3384 174.44 11.42 172.328C8.19095 186.397 4.92368 200.342 1.90059 214.067L0 222.698V250.506C2.15753 239.65 4.39706 228.636 6.66027 217.508C9.26971 204.663 11.9684 191.574 14.6982 178.401L14.6963 178.399Z" fill="#1A1A1A"/>
<path fill-rule="evenodd" clip-rule="evenodd" d="M10.7475 171.527C9.62869 169.758 8.62464 168.077 7.73904 166.227C5.13871 176.769 2.54566 187.221 0 197.57V218.447L1.09334 213.6C4.19661 199.83 7.44201 185.753 10.7475 171.529V171.527Z" fill="#1A1A1A"/>
<path fill-rule="evenodd" clip-rule="evenodd" d="M7.24339 165.456C6.35778 163.995 5.7528 162.278 5.15146 160.57C3.41487 167.074 1.69832 173.54 0 179.963V194.569C2.39806 184.969 4.83257 175.259 7.24339 165.457V165.456Z" fill="#1A1A1A"/>
<path fill-rule="evenodd" clip-rule="evenodd" d="M4.50457 160.11C3.90505 158.626 3.36385 157.103 2.97936 155.633L0 166.233V177.028C1.48694 171.42 2.98847 165.777 4.50457 160.11Z" fill="#1A1A1A"/>
<path fill-rule="evenodd" clip-rule="evenodd" d="M2.73518 154.467C2.25411 153.035 1.87326 151.665 1.54161 150.438L0 155.703V164.172L2.73518 154.467Z" fill="#1A1A1A"/>
<path fill-rule="evenodd" clip-rule="evenodd" d="M1.43592 149.675C1.15894 148.377 1.03503 147.072 0.860095 145.812L0 148.668V154.548L1.43592 149.675Z" fill="#1A1A1A"/>
<path fill-rule="evenodd" clip-rule="evenodd" d="M0.789028 145.334C0.666938 144.092 0.748939 142.698 0.876495 141.375L0 144.201V147.941L0.789028 145.334Z" fill="#1A1A1A"/>
<path fill-rule="evenodd" clip-rule="evenodd" d="M0.927518 140.469C0.940274 139.418 1.16076 138.19 1.38125 136.891L0 141.324V143.447L0.927518 140.469Z" fill="#1A1A1A"/>
<path fill-rule="evenodd" clip-rule="evenodd" d="M1.40325 136.554C1.61099 135.447 1.96086 134.381 2.36357 133.172L0.00195312 140.774V141.026L1.40507 136.554H1.40325Z" fill="#1A1A1A"/>
<path fill-rule="evenodd" clip-rule="evenodd" d="M2.59304 132.461C3.0814 131.41 3.62078 130.258 3.99799 129.359C2.66958 133.665 1.33388 137.97 0 142.266V140.801C0.871029 138.022 1.73841 135.245 2.59304 132.461Z" fill="#1A1A1A"/>
<path fill-rule="evenodd" clip-rule="evenodd" d="M4.41332 128.675C4.98551 127.676 5.7472 126.553 6.50525 125.492C4.33315 132.6 2.15557 139.704 -0.00195312 146.788V142.981C1.47406 138.214 2.95189 133.437 4.4115 128.675H4.41332Z" fill="#1A1A1A"/>
<path fill-rule="evenodd" clip-rule="evenodd" d="M117.662 257.998C112.408 252.893 107.415 248.144 102.677 243.297C99.7618 248.088 96.7132 253.031 93.6719 257.998H117.662Z" fill="#1A1A1A"/>
<path fill-rule="evenodd" clip-rule="evenodd" d="M99.9729 240.849C94.5499 235.15 89.5187 230.426 84.7846 226.062C79.4363 233.433 74.4798 240.588 69.25 248.518C71.5879 251.382 73.9751 254.598 76.4733 258.001H89.2509C92.8516 252.115 96.4232 246.425 99.9729 240.849Z" fill="#1A1A1A"/>
<path fill-rule="evenodd" clip-rule="evenodd" d="M82.5669 223.725C77.8764 219.537 73.7454 215.557 69.7347 211.727C65.0461 218.011 60.2354 224.715 55.5449 231.327C59.1256 235.904 63.078 240.585 67.1435 245.756C72.3113 238.283 77.2605 231.037 82.5669 223.725Z" fill="#1A1A1A"/>
<path fill-rule="evenodd" clip-rule="evenodd" d="M67.7918 209.965C64.0926 206.725 60.5466 203.437 57.2265 200.383C53.0699 205.888 48.7585 211.235 44.3906 216.94C47.4319 220.694 50.5334 224.657 53.8389 229.114C58.4947 222.695 63.2016 216.074 67.7936 209.965H67.7918Z" fill="#1A1A1A"/>
<path fill-rule="evenodd" clip-rule="evenodd" d="M45.7039 189.149C43.1583 186.628 40.6527 184.378 38.2328 182.203C34.8015 186.265 31.0531 190.734 27.6328 195.053C29.5717 197.66 31.8221 200.444 34.0653 203.617C37.9612 198.516 41.7661 194.067 45.7039 189.149Z" fill="#1A1A1A"/>
<path fill-rule="evenodd" clip-rule="evenodd" d="M36.8258 181.458C34.6628 179.341 32.4743 177.42 30.5719 175.273C27.5033 178.893 24.2852 182.624 21.2949 186.244C22.9258 188.689 24.7444 191.14 26.6432 193.752C29.9615 189.684 33.4984 185.441 36.8258 181.458Z" fill="#1A1A1A"/>
<path fill-rule="evenodd" clip-rule="evenodd" d="M29.1947 174.031C27.4363 172.086 25.7507 170.315 24.1362 168.555C21.3318 171.747 18.4399 175.12 15.7812 178.265C17.0696 180.283 18.5911 182.328 20.1856 184.579C23.1741 180.997 26.3356 177.41 29.1966 174.031H29.1947Z" fill="#1A1A1A"/>
<path fill-rule="evenodd" clip-rule="evenodd" d="M23.1202 167.58C21.5841 166.072 20.2174 164.502 18.7578 163.047C16.3287 165.782 13.7667 168.585 11.334 171.32C12.3581 173.29 13.5553 175.226 14.6559 177.309C17.4767 174.141 20.4197 170.782 23.1202 167.58Z" fill="#1A1A1A"/>
<path fill-rule="evenodd" clip-rule="evenodd" d="M18.1923 162.284C16.9076 160.899 15.7377 159.291 14.73 157.859C12.4686 160.299 10.3421 162.703 7.92578 165.301C8.9189 167.052 9.92295 168.707 10.9853 170.505C13.3597 167.855 15.8142 165.105 18.1941 162.284H18.1923Z" fill="#1A1A1A"/>
<path fill-rule="evenodd" clip-rule="evenodd" d="M14.0808 156.731C12.9874 155.456 12.049 154.247 11.0686 153C8.97121 155.275 6.90115 157.615 5.08984 159.609C5.693 161.184 6.51301 162.664 7.17813 164.357C9.43223 161.815 11.7702 159.199 14.0826 156.731H14.0808Z" fill="#1A1A1A"/>
<path fill-rule="evenodd" clip-rule="evenodd" d="M10.6762 152.608C9.80696 151.366 9.09811 150.019 8.33824 148.93C6.66907 150.666 4.9835 152.588 3.33984 154.444C3.8282 155.885 4.26554 157.417 4.86323 158.901C6.78023 156.79 8.68811 154.676 10.6762 152.608Z" fill="#1A1A1A"/>
<path fill-rule="evenodd" clip-rule="evenodd" d="M8.01676 148.192C7.26418 147.15 6.81591 145.947 6.37128 144.828C4.9226 146.342 3.41197 147.926 1.99609 149.472C2.27307 150.796 2.70494 152.099 2.97828 153.66C4.61829 151.885 6.40773 149.887 8.01858 148.192H8.01676Z" fill="#1A1A1A"/>
<path fill-rule="evenodd" clip-rule="evenodd" d="M6.04402 144.338C5.70508 143.173 5.31148 142.192 4.97255 141.094C3.68605 142.435 2.54168 143.749 1.19141 145.167C1.36999 146.371 1.54492 147.668 1.8219 148.921C3.29062 147.304 4.69921 145.772 6.04402 144.34V144.338Z" fill="#1A1A1A"/>
<path fill-rule="evenodd" clip-rule="evenodd" d="M4.81519 140.312C4.62567 139.237 4.38514 138.285 4.34687 137.148C3.16971 138.423 2.14197 139.538 1.16343 140.574C1.03587 141.916 1.06685 143.09 1.13791 144.405C2.28228 143.158 3.62891 141.646 4.81519 140.313V140.312Z" fill="#1A1A1A"/>
<path fill-rule="evenodd" clip-rule="evenodd" d="M22.1507 110.774C23.6377 109.974 25.0335 109.222 26.5642 108.609C26.5624 108.829 26.6079 108.961 26.7464 108.947C25.121 109.708 23.399 110.716 22.0469 111.439C22.0523 111.144 22.0523 111.058 22.1507 110.774Z" fill="#1A1A1A"/>
<path fill-rule="evenodd" clip-rule="evenodd" d="M4.16285 133.286C4.3633 132.264 4.50908 131.283 4.74597 130.422C4.14463 131.016 3.3392 131.887 2.67955 132.633C2.32604 133.79 1.97617 134.921 1.61719 136.092C2.58662 135.064 3.30276 134.241 4.16103 133.286H4.16285Z" fill="#1A1A1A"/>
<path fill-rule="evenodd" clip-rule="evenodd" d="M5.02198 129.652C5.35727 128.706 5.73447 127.745 6.11167 126.82C5.51216 127.511 5.06024 128.109 4.45891 128.776C3.83206 129.886 3.34552 130.941 2.85352 132.103C3.61703 131.203 4.22201 130.504 5.0238 129.652H5.02198Z" fill="#1A1A1A"/>
<path fill-rule="evenodd" clip-rule="evenodd" d="M12.1292 118.46C12.9966 117.555 13.9059 116.723 14.8589 115.977C14.6165 116.314 14.3724 116.667 14.1774 116.952C13.1241 117.889 12.1183 118.759 11.1543 119.655C11.4951 119.279 11.6919 118.998 12.1292 118.46Z" fill="#1A1A1A"/>
<path fill-rule="evenodd" clip-rule="evenodd" d="M171.669 249.553C162.49 243.374 154.543 237.521 146.25 232.141C141.305 240.533 136.164 248.83 130.973 257.999H167.151C168.644 255.153 170.149 252.338 171.669 249.553Z" fill="#1A1A1A"/>
<path fill-rule="evenodd" clip-rule="evenodd" d="M142.533 229.761C135.239 224.618 128.416 219.693 122.102 215.18C116.807 223.063 111.562 230.918 106.34 239.258C112.47 244.933 118.744 251.252 125.914 257.388C131.412 247.725 137.127 238.705 142.533 229.761Z" fill="#1A1A1A"/>
<path fill-rule="evenodd" clip-rule="evenodd" d="M119.081 213.071C113.031 209.569 107.678 205.706 102.472 202.109C97.6682 208.541 92.7063 215.284 87.9102 222.319C92.7937 226.896 97.8031 231.568 103.417 236.926C108.767 228.533 113.768 220.626 119.081 213.071Z" fill="#1A1A1A"/>
<path fill-rule="evenodd" clip-rule="evenodd" d="M100.1 200.199C95.0852 196.969 90.5132 193.695 86.1089 190.945C81.7009 196.45 77.0104 202.692 72.5332 209.058C76.6332 212.66 81.003 216.174 85.7189 220.21C90.3346 213.488 95.2638 206.808 100.1 200.199Z" fill="#1A1A1A"/>
<path fill-rule="evenodd" clip-rule="evenodd" d="M84.0097 189.608C79.8149 187.119 76.0247 184.469 72.2654 182.305C68.0852 187.219 64.0781 192.329 59.8086 197.82C63.1652 200.745 66.8588 203.729 70.5653 207.044C74.9969 201.231 79.5908 195.073 84.0097 189.608Z" fill="#1A1A1A"/>
<path fill-rule="evenodd" clip-rule="evenodd" d="M34.0151 105.802C33.0402 105.703 32.1582 105.598 31.371 105.445C29.7565 107.035 28.2751 108.518 26.6934 110.026C27.4824 110.135 28.2259 110.392 29.0641 110.588C30.6932 109.051 32.2658 107.452 34.0151 105.802Z" fill="#1A1A1A"/>
<path fill-rule="evenodd" clip-rule="evenodd" d="M59.1206 173.435C56.1522 171.66 53.4644 169.78 50.7018 168.055C47.2797 172.122 43.7555 176.21 40.2969 180.367C42.7624 182.351 45.319 184.548 48.0705 186.756C51.7132 182.275 55.3668 177.892 59.1206 173.435Z" fill="#1A1A1A"/>
<path fill-rule="evenodd" clip-rule="evenodd" d="M49.1594 167.498C46.6976 165.77 44.2139 164.215 41.8522 162.625C38.913 166.013 35.8389 169.557 32.8887 173.135C34.8968 175.138 37.0306 177.036 39.2501 179.101C42.5101 175.332 45.8302 171.408 49.1594 167.498Z" fill="#1A1A1A"/>
<path fill-rule="evenodd" clip-rule="evenodd" d="M40.3826 161.69C38.1649 160.343 36.3791 158.768 34.4075 157.484C31.6067 160.609 28.7804 163.702 26.1309 166.785C27.7454 168.475 29.5366 170.124 31.4573 171.975C34.5095 168.255 37.4889 164.909 40.3807 161.69H40.3826Z" fill="#1A1A1A"/>
<path fill-rule="evenodd" clip-rule="evenodd" d="M33.2915 156.628C31.4438 155.334 29.7655 154.021 28.0016 153.008C25.5543 155.658 22.9831 158.417 20.3828 161.518C21.7896 162.979 23.2638 164.406 24.9092 166.067C27.6116 163.007 30.4908 159.682 33.2915 156.628Z" fill="#1A1A1A"/>
<path fill-rule="evenodd" clip-rule="evenodd" d="M27.3795 152.45C25.8342 151.222 24.3509 150.189 23.079 149C20.8376 151.427 18.5252 153.943 16.293 156.307C17.4574 157.681 18.6309 159.2 20.0231 160.688C22.4631 157.833 24.9304 155.141 27.3795 152.448V152.45Z" fill="#1A1A1A"/>
<path fill-rule="evenodd" clip-rule="evenodd" d="M22.1692 148.187C20.8116 147.303 19.7165 146.123 18.6268 145.109C16.4893 147.335 14.3318 149.677 12.207 152.061C13.3459 153.094 14.2315 154.474 15.2793 155.73C17.5134 153.252 19.9297 150.634 22.1692 148.189V148.187Z" fill="#1A1A1A"/>
<path fill-rule="evenodd" clip-rule="evenodd" d="M18.0294 144.79C16.8468 143.929 16.0742 142.781 15.1047 141.797C13.2752 143.7 11.3819 145.727 9.62891 147.659C10.4926 148.74 11.2562 149.947 12.1272 151.194C14.0934 149.053 16.045 146.907 18.0294 144.79Z" fill="#1A1A1A"/>
<path fill-rule="evenodd" clip-rule="evenodd" d="M9.73384 135.27C9.33841 134.327 8.98854 133.49 8.68787 132.625C7.43235 133.952 6.32261 135.127 5.1582 136.37C5.34772 137.378 5.6411 138.306 5.73039 139.486C7.15537 138.016 8.42729 136.631 9.73566 135.272L9.73384 135.27Z" fill="#1A1A1A"/>
<path fill-rule="evenodd" clip-rule="evenodd" d="M8.36352 132.323C8.26329 131.315 7.9608 130.624 7.90613 129.781C6.95675 130.771 5.9527 131.84 4.99602 132.883C4.94682 133.844 5.03976 134.848 5.13634 135.805C6.20052 134.639 7.25924 133.454 8.36352 132.323Z" fill="#1A1A1A"/>
<path fill-rule="evenodd" clip-rule="evenodd" d="M8.05387 126.473C8.13223 125.845 8.36183 124.921 8.53312 124.227C7.89169 124.935 7.1956 125.735 6.60155 126.387C6.12959 127.368 5.79976 128.3 5.51367 129.242C6.35919 128.381 7.16097 127.435 8.05205 126.474L8.05387 126.473Z" fill="#1A1A1A"/>
<path fill-rule="evenodd" clip-rule="evenodd" d="M9.67294 121.736C10.0265 121.126 10.5731 120.213 11.3093 119.305C10.9175 119.818 10.4273 120.371 10.2269 120.766C9.34494 121.823 8.69987 122.664 8.00195 123.615C8.4976 123.026 9.13538 122.341 9.67477 121.736H9.67294Z" fill="#1A1A1A"/>
<path fill-rule="evenodd" clip-rule="evenodd" d="M14.6433 115.442C15.3157 114.7 16.0282 114.042 16.6897 113.453C16.2596 114.01 15.8751 114.537 15.4469 114.994C14.636 115.746 13.8215 116.56 13.1035 117.211C13.683 116.564 14.1149 116.074 14.6451 115.442H14.6433Z" fill="#1A1A1A"/>
<path fill-rule="evenodd" clip-rule="evenodd" d="M12.8922 119.191C13.0052 118.625 13.2603 118.016 13.3732 117.445C12.6954 118.245 11.9683 119.048 11.2886 119.771C11.0335 120.433 10.6763 121.156 10.4121 121.87C11.1938 121.038 12.0685 120.148 12.8922 119.191Z" fill="#1A1A1A"/>
<path fill-rule="evenodd" clip-rule="evenodd" d="M323.393 162.687C308.429 159.536 294.678 156.431 281.728 153.477C276.737 161.527 271.642 169.214 266.871 177.464C279.434 180.961 293.294 185.467 308.64 190.057C313.633 180.557 318.473 171.569 323.395 162.687H323.393Z" fill="#1A1A1A"/>
<path fill-rule="evenodd" clip-rule="evenodd" d="M237.095 153.594C226.648 151.277 217.457 148.993 208.309 147.266C203.823 153.342 198.937 159.636 194.066 166.234C202.992 168.946 212.36 171.857 222.428 175.078C227.118 167.842 232.224 160.41 237.095 153.592V153.594Z" fill="#1A1A1A"/>
<path fill-rule="evenodd" clip-rule="evenodd" d="M224.804 106.307C216.484 105.973 208.699 105.469 201.188 105.07C196.962 109.685 192.826 114.186 188.85 118.863C196.135 119.525 203.872 120.366 212.103 121.57C216.21 116.298 220.311 111.194 224.804 106.307Z" fill="#1A1A1A"/>
<path fill-rule="evenodd" clip-rule="evenodd" d="M269.011 258.002C258.345 252.344 248.365 246.993 238.966 241.836C236.28 247.116 233.588 252.502 230.928 258.002H269.009H269.011Z" fill="#1A1A1A"/>
<path fill-rule="evenodd" clip-rule="evenodd" d="M232.582 238.521C220.336 232.008 209.547 225.729 198.99 220.109C193.453 229.691 187.78 239.997 182.135 250.282C185.59 252.838 189.107 255.401 192.713 257.998H223.077C226.293 251.342 229.455 244.873 232.582 238.521Z" fill="#1A1A1A"/>
<path fill-rule="evenodd" clip-rule="evenodd" d="M194.106 217.587C184.549 212.896 175.726 208.538 167.62 204.219C162.398 212.149 156.834 220.662 151.811 229.444C159.706 234.915 168.2 240.529 177.539 246.576C182.934 236.447 188.567 227.037 194.106 217.587Z" fill="#1A1A1A"/>
<path fill-rule="evenodd" clip-rule="evenodd" d="M163.184 203.014C155.288 198.975 148.092 195.444 141.27 192.07C136.567 198.756 131.605 205.673 126.617 212.708C133.168 217.171 140.34 222.09 147.894 227.266C153.076 218.536 158.074 210.814 163.184 203.012V203.014Z" fill="#1A1A1A"/>
<path fill-rule="evenodd" clip-rule="evenodd" d="M137.062 189.618C130.757 186.71 124.804 183.875 119.166 181.055C114.667 186.821 110.148 192.906 105.623 199.158C110.96 202.854 116.546 206.385 122.643 209.911C127.368 203.226 132.253 196.385 137.062 189.62V189.618Z" fill="#1A1A1A"/>
<path fill-rule="evenodd" clip-rule="evenodd" d="M115.905 179.401C110.781 176.504 105.875 174.367 101.008 172.25C96.7733 177.641 92.4272 183.15 87.9609 188.717C92.5639 191.3 97.3764 194.298 102.227 197.628C106.721 191.466 111.415 185.291 115.905 179.401Z" fill="#1A1A1A"/>
<path fill-rule="evenodd" clip-rule="evenodd" d="M98.8773 171.656C94.5531 169.562 90.2836 167.594 86.1271 165.852C82.4462 170.496 78.5521 175.124 74.709 179.753C78.4828 182.09 82.479 184.606 86.5317 187.303C90.7009 182.003 94.9103 176.699 98.8755 171.656H98.8773Z" fill="#1A1A1A"/>
<path fill-rule="evenodd" clip-rule="evenodd" d="M71.4071 158.919C67.9722 157.672 64.9728 156.274 61.9934 154.898C58.7881 158.509 55.4552 162.302 52.3848 165.874C55.0908 167.62 57.7221 169.5 60.9511 171.155C64.3368 167.082 67.8355 162.967 71.4071 158.917V158.919Z" fill="#1A1A1A"/>
<path fill-rule="evenodd" clip-rule="evenodd" d="M60.4101 154.253C57.5164 152.882 54.9033 151.517 52.3321 150.508C49.3473 153.747 46.5848 156.901 43.4961 160.403C45.8504 161.935 48.274 163.414 50.7796 165.109C54.0614 161.431 57.1446 157.811 60.4101 154.253Z" fill="#1A1A1A"/>
<path fill-rule="evenodd" clip-rule="evenodd" d="M51.0526 150.004C48.7073 148.9 46.579 147.754 44.3704 146.797C41.566 149.799 38.7798 152.744 36.2852 155.717C38.1056 157.059 40.2467 158.344 42.3568 159.723C45.3526 156.408 48.219 153.196 51.0507 150.004H51.0526Z" fill="#1A1A1A"/>
<path fill-rule="evenodd" clip-rule="evenodd" d="M42.7609 146.379C40.6216 145.418 38.7028 144.513 36.8441 143.477C34.621 145.878 31.9824 148.701 29.7246 151.284C31.3355 152.449 33.165 153.61 35.0146 154.924C37.5147 152.022 40.2006 149.163 42.7609 146.379Z" fill="#1A1A1A"/>
<path fill-rule="evenodd" clip-rule="evenodd" d="M35.8151 142.949C34.0293 142.155 32.249 141.37 30.6818 140.57C28.5024 142.883 26.4069 145.171 24.2402 147.431C25.6124 148.468 27.1959 149.425 28.6901 150.705C31.0499 148.04 33.3405 145.495 35.8151 142.95V142.949Z" fill="#1A1A1A"/>
<path fill-rule="evenodd" clip-rule="evenodd" d="M30.2257 140.131C28.6677 139.39 27.3192 138.561 25.8305 137.891C23.9445 139.823 21.9473 141.949 19.9355 144.037C21.1783 144.969 22.3792 146.021 23.7367 147.092C25.8505 144.766 28.0463 142.491 30.2257 140.131Z" fill="#1A1A1A"/>
<path fill-rule="evenodd" clip-rule="evenodd" d="M25.1877 137.239C24.0032 136.363 22.8279 135.54 21.6562 134.922C19.7246 136.948 17.9771 138.79 16.2168 140.668C17.137 141.658 18.1629 142.577 19.2454 143.556C21.2571 141.395 23.2524 139.336 25.1877 137.237V137.239Z" fill="#1A1A1A"/>
<path fill-rule="evenodd" clip-rule="evenodd" d="M20.973 134.482C19.907 133.902 18.8956 133.293 18.0337 132.531C16.3974 134.262 14.9031 135.829 13.1465 137.703C13.9045 138.546 14.6681 139.369 15.5336 140.219C17.2921 138.392 19.0378 136.594 20.973 134.482Z" fill="#1A1A1A"/>
<path fill-rule="evenodd" clip-rule="evenodd" d="M184.165 128.111C177.201 127.154 170.564 126.336 164.122 125.328C160.104 130.148 156.057 134.796 151.797 139.634C157.936 140.928 164.471 142.15 171.431 143.868C175.706 138.477 179.992 133.288 184.167 128.111H184.165Z" fill="#1A1A1A"/>
<path fill-rule="evenodd" clip-rule="evenodd" d="M54.921 103.299C53.0259 103.313 51.2292 103.317 49.5308 103.346C47.541 105.34 45.4891 107.285 43.5703 109.221C45.2285 109.192 46.6663 109.469 48.4812 109.534C50.5768 107.441 52.707 105.352 54.9228 103.297L54.921 103.299Z" fill="#1A1A1A"/>
<path fill-rule="evenodd" clip-rule="evenodd" d="M54.622 97.1016C52.9036 97.31 51.2745 97.4677 49.6965 97.5964C47.7649 99.4091 45.919 101.151 44.1113 102.862C45.5637 102.871 47.0634 102.853 48.6104 102.792C50.5493 100.946 52.6102 98.9995 54.622 97.1016Z" fill="#1A1A1A"/>
<path fill-rule="evenodd" clip-rule="evenodd" d="M384.671 258.004C379.592 255.863 374.63 253.755 369.791 251.672C368.978 253.751 368.18 255.863 367.393 258.004H384.673H384.671Z" fill="#1A1A1A"/>
<path fill-rule="evenodd" clip-rule="evenodd" d="M180.427 82.625C174.421 82.9386 168.718 83.2141 163.286 83.4715C159.936 86.7924 156.622 90.1604 153.203 93.3761C158.637 93.4088 164.075 93.3326 169.924 93.2529C173.317 89.6565 176.909 86.1398 180.426 82.625H180.427Z" fill="#1A1A1A"/>
<path fill-rule="evenodd" clip-rule="evenodd" d="M297.052 221.079C281.767 214.833 267.75 209.31 254.412 204.203C249.215 213.803 243.651 224.119 238.578 235.171C251.673 242.012 265.389 248.959 280.723 256.391C285.907 244.382 291.507 232.483 297.05 221.079H297.052Z" fill="#1A1A1A"/>
<path fill-rule="evenodd" clip-rule="evenodd" d="M210.513 187.043C200.842 183.45 191.636 180.254 183.101 177.109C178.13 184.217 173.064 191.752 168.137 199.371C176.295 203.544 185.28 207.782 194.463 212.069C199.813 203.676 205.152 195.037 210.511 187.045L210.513 187.043Z" fill="#1A1A1A"/>
<path fill-rule="evenodd" clip-rule="evenodd" d="M151.825 166.889C145.143 164.628 139.046 162.564 133.24 160.438C129.031 165.618 124.626 171.247 120.4 177.033C125.929 179.701 131.981 182.533 138.091 185.458C142.508 179.03 147.266 172.731 151.827 166.889H151.825Z" fill="#1A1A1A"/>
<path fill-rule="evenodd" clip-rule="evenodd" d="M129.925 159.41C124.39 157.554 119.206 155.913 114.237 154.414C110.075 159.325 106.035 164.31 101.873 169.267C106.6 171.285 111.416 173.311 116.626 175.833C121.14 170.043 125.464 164.467 129.925 159.41Z" fill="#1A1A1A"/>
<path fill-rule="evenodd" clip-rule="evenodd" d="M112.095 153.868C107.489 152.383 103.019 150.922 98.6325 149.438C94.9789 153.766 91.3235 158.021 87.5879 162.435C91.6278 164.242 95.8936 166.27 100.234 168.224C104.298 163.328 108.31 158.49 112.093 153.866L112.095 153.868Z" fill="#1A1A1A"/>
<path fill-rule="evenodd" clip-rule="evenodd" d="M95.7356 148.564C91.805 147.381 87.9546 146.242 84.4377 145.109C80.7641 149.201 77.2763 153.007 73.8359 157.099C77.1342 158.398 80.6839 159.872 84.5707 161.728C88.2371 157.071 92.1002 152.708 95.7356 148.564Z" fill="#1A1A1A"/>
<path fill-rule="evenodd" clip-rule="evenodd" d="M82.7132 144.739C79.1398 143.755 75.9381 142.628 72.7201 141.703C69.5676 145.106 66.3532 148.764 63.3574 152.307C66.2639 153.578 69.2524 154.99 72.7219 156.167C75.9436 152.489 79.3639 148.506 82.7114 144.739H82.7132Z" fill="#1A1A1A"/>
<path fill-rule="evenodd" clip-rule="evenodd" d="M71.008 141.15C67.9284 140.322 65.0292 139.604 62.2922 138.805C59.404 141.953 56.4319 145.051 53.6895 148.135C56.195 149.086 58.9411 150.208 61.6672 151.555C64.7158 147.986 67.8537 144.591 71.008 141.15Z" fill="#1A1A1A"/>
<path fill-rule="evenodd" clip-rule="evenodd" d="M61.0303 138.415C58.4209 137.697 55.9244 136.935 53.5355 136.102C50.8659 138.975 48.1708 141.839 45.6543 144.632C47.7572 145.64 50.0787 146.641 52.4622 147.578C55.314 144.561 58.133 141.46 61.0321 138.415H61.0303Z" fill="#1A1A1A"/>
<path fill-rule="evenodd" clip-rule="evenodd" d="M51.8978 135.815C49.5872 135.115 47.5353 134.327 45.5528 133.703C43.0982 136.163 40.6819 138.684 38.293 141.13C40.0514 142.219 42.0668 143.203 44.248 144.084C46.8192 141.268 49.3193 138.552 51.8996 135.815H51.8978Z" fill="#1A1A1A"/>
<path fill-rule="evenodd" clip-rule="evenodd" d="M44.0936 133.579C42.1729 132.917 40.2632 132.361 38.4118 131.852C36.3873 133.969 34.1533 136.282 32.0996 138.531C33.7633 139.217 35.3869 139.996 37.1691 140.757C39.4104 138.406 41.7356 136.043 44.0936 133.577V133.579Z" fill="#1A1A1A"/>
<path fill-rule="evenodd" clip-rule="evenodd" d="M37.9077 131.465C36.3096 130.812 34.7243 130.208 33.0952 129.672C31.16 131.675 29.0699 133.915 27.1602 135.938C28.5997 136.662 29.9956 137.432 31.4989 138.175C33.6018 135.949 35.7903 133.76 37.9095 131.466L37.9077 131.465Z" fill="#1A1A1A"/>
<path fill-rule="evenodd" clip-rule="evenodd" d="M32.3534 129.22C30.8829 128.673 29.5636 128.189 28.2005 127.773C26.3109 129.642 24.4595 131.47 22.6445 133.416C23.8618 134.002 25.0371 134.711 26.2671 135.486C28.2771 133.427 30.2724 131.296 32.3516 129.22H32.3534Z" fill="#1A1A1A"/>
<path fill-rule="evenodd" clip-rule="evenodd" d="M139.407 122.793C134.188 122.26 129.164 121.856 124.346 121.328C120.783 125.162 117.15 129.088 113.525 132.96C118.174 133.74 122.815 134.673 128.027 135.728C131.828 131.332 135.589 126.96 139.407 122.793Z" fill="#1A1A1A"/>
<path fill-rule="evenodd" clip-rule="evenodd" d="M122.157 120.98C117.614 120.409 113.175 120.023 109.188 119.492C105.697 123.074 102.244 126.738 99.002 130.325C102.949 131.09 107.022 131.862 111.42 132.565C114.912 128.808 118.593 124.802 122.157 120.98Z" fill="#1A1A1A"/>
<path fill-rule="evenodd" clip-rule="evenodd" d="M107.21 119.27C103.066 118.872 99.3508 118.518 95.7464 118.172C92.625 121.34 89.3504 124.737 86.2344 127.991C89.7003 128.644 93.2846 129.304 97.0585 130.103C100.342 126.402 103.806 122.747 107.21 119.27Z" fill="#1A1A1A"/>
<path fill-rule="evenodd" clip-rule="evenodd" d="M94.0455 117.978C90.5177 117.641 87.1684 117.436 83.9704 117.141C81.042 120.095 77.9279 123.364 75.1016 126.271C78.1465 126.784 81.3391 127.165 84.61 127.68C87.5966 124.564 90.9259 121.167 94.0473 117.978H94.0455Z" fill="#1A1A1A"/>
<path fill-rule="evenodd" clip-rule="evenodd" d="M82.4048 117.032C79.3179 116.689 76.4333 116.27 73.5378 116.156C70.8172 118.863 68.031 121.68 65.2812 124.591C67.8761 125.038 70.6386 125.551 73.618 126.104C76.4844 123.045 79.5238 119.981 82.4048 117.032Z" fill="#1A1A1A"/>
<path fill-rule="evenodd" clip-rule="evenodd" d="M72.1971 116.107C69.5002 115.85 67.0129 115.612 64.4891 115.445C61.8341 118.01 59.1663 120.65 56.8594 123.1C59.0716 123.543 61.4405 123.999 64.0572 124.328C66.7195 121.487 69.369 118.804 72.1953 116.107H72.1971Z" fill="#1A1A1A"/>
<path fill-rule="evenodd" clip-rule="evenodd" d="M63.3544 115.359C60.9363 115.113 58.5801 114.955 56.47 114.727C54.03 117.101 51.6283 119.55 49.2539 121.916C51.242 122.382 53.5216 122.619 55.6627 122.934C58.1665 120.457 60.6465 117.924 63.3544 115.361V115.359Z" fill="#1A1A1A"/>
<path fill-rule="evenodd" clip-rule="evenodd" d="M55.2529 114.767C53.1081 114.577 51.1109 114.387 49.2176 114.211C47.1439 116.357 44.9591 118.516 42.7578 120.619C44.5673 120.923 46.4861 121.386 48.3138 121.793C50.5934 119.424 52.8621 117.175 55.2529 114.767Z" fill="#1A1A1A"/>
<path fill-rule="evenodd" clip-rule="evenodd" d="M48.0587 114.08C46.2255 113.952 44.5874 113.738 42.9091 113.656C40.9101 115.554 38.902 117.528 36.8848 119.531C38.4337 119.818 39.8915 120.164 41.5424 120.436C43.6963 118.328 45.9322 116.172 48.0587 114.079V114.08Z" fill="#1A1A1A"/>
<path fill-rule="evenodd" clip-rule="evenodd" d="M41.9465 113.489C40.3684 113.299 38.9835 113.129 37.5111 113C35.5996 114.865 33.6772 116.673 31.793 118.614C33.0868 118.928 34.4789 119.156 35.924 119.522C37.8956 117.505 39.9511 115.473 41.9483 113.489H41.9465Z" fill="#1A1A1A"/>
<path fill-rule="evenodd" clip-rule="evenodd" d="M36.892 112.965C35.5618 112.746 34.4247 112.465 33.2439 112.242C31.5164 113.97 29.7343 115.721 28.1289 117.343C29.1712 117.653 30.3593 117.952 31.4563 118.318C33.2457 116.529 35.1208 114.713 36.892 112.965Z" fill="#1A1A1A"/>
<path fill-rule="evenodd" clip-rule="evenodd" d="M32.4898 112.089C31.4547 111.884 30.3286 111.822 29.392 111.57C27.7556 113.184 26.1083 114.782 24.5977 116.323C25.4414 116.608 26.2887 116.918 27.28 117.184C28.9309 115.567 30.7167 113.892 32.4916 112.089H32.4898Z" fill="#1A1A1A"/>
<path fill-rule="evenodd" clip-rule="evenodd" d="M20.723 113.058C20.4042 112.786 20.1363 112.363 19.9085 112.062C18.8206 113.214 17.7328 114.227 16.8253 115.246C16.8089 115.746 16.9838 116.188 17.2043 116.616C18.3961 115.436 19.4912 114.308 20.7212 113.058H20.723Z" fill="#1A1A1A"/>
<path fill-rule="evenodd" clip-rule="evenodd" d="M41.9395 103.663C44.5416 103.112 47.0982 102.559 50.0338 101.979C50.7245 101.628 51.375 101.466 52.2059 101.156C49.0899 101.918 46.2545 102.521 43.5139 103.168C42.8724 103.602 42.4442 103.402 41.9395 103.663Z" fill="#1A1A1A"/>
<path fill-rule="evenodd" clip-rule="evenodd" d="M59.6543 100.758C63.3389 100.439 67.0672 100.448 71.1253 100.264C71.887 100.193 72.7471 100.129 73.6363 99.8594C69.3978 100.264 65.5146 100.173 61.7681 100.398C60.8861 100.726 60.2137 100.608 59.6543 100.76V100.758Z" fill="#1A1A1A"/>
<path fill-rule="evenodd" clip-rule="evenodd" d="M133.512 108.417C128.813 108.118 124.15 107.952 119.939 107.68C116.564 111.057 113.229 114.492 109.975 117.989C114.138 118.407 118.576 118.811 122.994 119.324C126.479 115.561 130.083 111.827 133.511 108.416L133.512 108.417Z" fill="#1A1A1A"/>
<path fill-rule="evenodd" clip-rule="evenodd" d="M117.889 107.564C113.684 107.497 109.691 107.411 105.943 107.25C102.902 110.371 99.5559 113.64 96.6094 116.756C100.155 117.104 104.008 117.374 107.986 117.698C111.207 114.296 114.602 110.857 117.889 107.565V107.564Z" fill="#1A1A1A"/>
<path fill-rule="evenodd" clip-rule="evenodd" d="M104.138 107.229C100.424 107.139 96.9347 107.144 93.4925 107.062C90.5696 109.845 87.654 112.805 84.8223 115.854C88.0549 116.03 91.3987 116.264 94.8847 116.672C97.7857 113.57 101.086 110.287 104.14 107.227L104.138 107.229Z" fill="#1A1A1A"/>
<path fill-rule="evenodd" clip-rule="evenodd" d="M91.8887 106.965C88.6105 106.897 85.5546 106.955 82.588 106.859C79.7835 109.548 77.0557 112.227 74.4043 114.886C77.1978 115.009 80.1206 115.361 83.2512 115.7C86.1049 112.789 89.0186 109.781 91.8887 106.965Z" fill="#1A1A1A"/>
<path fill-rule="evenodd" clip-rule="evenodd" d="M81.1563 106.794C78.217 106.85 75.6586 106.712 72.9781 106.738C70.3359 109.288 67.7665 111.742 65.2773 114.24C67.7501 114.463 70.3304 114.674 73.0638 114.844C75.7133 112.138 78.4084 109.578 81.1563 106.794Z" fill="#1A1A1A"/>
<path fill-rule="evenodd" clip-rule="evenodd" d="M71.7532 106.647C69.1292 106.618 66.7511 106.609 64.3768 106.523C61.9422 108.873 59.5879 111.195 57.2227 113.564C59.3437 113.974 61.6452 114.077 64.0542 114.244C66.6382 111.679 69.0635 109.201 71.755 106.647H71.7532Z" fill="#1A1A1A"/>
<path fill-rule="evenodd" clip-rule="evenodd" d="M63.2671 106.547C61.0513 106.547 58.799 106.647 56.8783 106.594C54.6552 108.673 52.3774 110.899 50.127 113.031C52.0603 113.145 54.0502 113.306 56.1513 113.555C58.4236 111.2 60.8781 108.893 63.2671 106.547Z" fill="#1A1A1A"/>
<path fill-rule="evenodd" clip-rule="evenodd" d="M145.287 95.8906C140.344 95.9432 135.573 96.0139 131.116 96.1245C127.863 99.3837 124.62 102.518 121.416 105.75C125.8 105.897 130.412 106.116 135.043 106.315C138.514 102.81 141.996 99.255 145.287 95.8924V95.8906Z" fill="#1A1A1A"/>
<path fill-rule="evenodd" clip-rule="evenodd" d="M129.035 96.2734C124.683 96.2879 120.472 96.4783 116.554 96.607C113.475 99.5997 110.373 102.593 107.387 105.565C111.197 105.527 115.281 105.589 119.395 105.779C122.54 102.473 125.755 99.375 129.035 96.2734Z" fill="#1A1A1A"/>
<path fill-rule="evenodd" clip-rule="evenodd" d="M114.574 96.6406C110.716 96.7168 106.981 96.869 103.453 97.0267C100.641 99.7295 97.7785 102.517 94.9121 105.449C98.2924 105.472 101.837 105.539 105.492 105.595C108.471 102.579 111.573 99.5301 114.572 96.6406H114.574Z" fill="#1A1A1A"/>
<path fill-rule="evenodd" clip-rule="evenodd" d="M101.832 97.0391C98.3221 97.2385 95.2917 97.3001 92.0901 97.4814C89.2474 100.122 86.6671 102.658 83.9355 105.298C86.986 105.312 90.0892 105.28 93.413 105.345C96.099 102.539 98.9672 99.7509 101.832 97.0391Z" fill="#1A1A1A"/>
<path fill-rule="evenodd" clip-rule="evenodd" d="M90.4494 97.625C87.5338 97.6812 84.6784 97.7628 81.8375 97.9295C79.2062 100.466 76.6879 102.873 74.2461 105.242C76.7918 105.371 79.5306 105.389 82.5118 105.324C85.1485 102.673 87.7871 100.19 90.4494 97.625Z" fill="#1A1A1A"/>
<path fill-rule="evenodd" clip-rule="evenodd" d="M80.4399 97.9688C77.661 98.1591 75.2174 98.2642 72.8721 98.3585C70.3884 100.646 67.8482 102.954 65.5723 105.191C67.8938 105.229 70.321 105.305 72.9833 105.238C75.4269 102.878 77.9015 100.476 80.4399 97.9688Z" fill="#1A1A1A"/>
<path fill-rule="evenodd" clip-rule="evenodd" d="M71.4122 98.6328C68.9412 98.8376 66.7546 98.9518 64.526 99.0842C62.2536 101.234 59.8774 103.451 57.6816 105.67C59.779 105.508 61.9858 105.479 64.2891 105.385C66.5723 103.239 68.8428 101.094 71.4122 98.6346V98.6328Z" fill="#1A1A1A"/>
<path fill-rule="evenodd" clip-rule="evenodd" d="M139.511 85.8203C134.987 86.0777 130.705 86.2535 126.564 86.5907C123.496 89.5164 120.533 92.3478 117.537 95.3968C121.623 95.1213 125.708 95.0923 130.136 94.9636C133.145 91.9092 136.286 88.8602 139.51 85.8203H139.511Z" fill="#1A1A1A"/>
<path fill-rule="evenodd" clip-rule="evenodd" d="M124.494 86.8828C120.441 87.0677 116.717 87.4157 112.959 87.8109C110.104 90.4375 107.338 93.1149 104.506 95.8412C108.156 95.5367 111.709 95.5276 115.656 95.4043C118.63 92.4967 121.618 89.5384 124.494 86.8828Z" fill="#1A1A1A"/>
<path fill-rule="evenodd" clip-rule="evenodd" d="M111.224 87.9531C107.656 88.2287 104.349 88.5803 100.999 88.9429C98.2878 91.3973 95.6693 93.9532 92.9414 96.5163C96.1704 96.1882 99.3411 96.1212 102.887 95.8601C105.546 93.2915 108.372 90.6414 111.224 87.9531Z" fill="#1A1A1A"/>
<path fill-rule="evenodd" clip-rule="evenodd" d="M99.3683 89.0625C96.2122 89.3435 93.2401 89.5139 90.2899 89.7948C87.7424 92.1731 85.2696 94.5242 82.7422 96.9351C85.5812 96.7882 88.382 96.6632 91.5254 96.5218C94.2113 93.9912 96.7005 91.5314 99.3683 89.0625Z" fill="#1A1A1A"/>
<path fill-rule="evenodd" clip-rule="evenodd" d="M88.8222 89.9688C86.1581 90.1446 83.5049 90.3965 80.7752 90.7827C78.379 92.9706 75.9791 95.251 73.6484 97.4335C76.1303 97.3138 78.7033 97.0673 81.3492 97.0002C83.9277 94.5875 86.4077 92.2999 88.8222 89.9688Z" fill="#1A1A1A"/>
<path fill-rule="evenodd" clip-rule="evenodd" d="M72.6218 92.4844C70.2784 92.7744 68.0334 93.0409 65.9724 93.2221C63.855 95.1672 61.5954 97.2282 59.416 99.2748C61.4879 99.0899 63.6217 99.0409 65.7501 98.9086C67.9131 96.7859 70.251 94.6415 72.6218 92.4862V92.4844Z" fill="#1A1A1A"/>
<path fill-rule="evenodd" clip-rule="evenodd" d="M64.7086 93.3359C62.7005 93.5118 60.7853 93.6405 58.9266 93.8743C56.9805 95.7486 55.0179 97.4997 53.1465 99.3305C54.7901 99.307 56.667 99.1728 58.4583 99.1166C60.4591 97.2514 62.6294 95.2193 64.7086 93.3359Z" fill="#1A1A1A"/>
<path fill-rule="evenodd" clip-rule="evenodd" d="M134.617 77.5234C130.546 78.0038 126.621 78.466 122.665 78.9373C119.862 81.544 117.127 84.0709 114.248 86.7211C118.129 86.2172 121.772 85.9978 125.925 85.5501C128.762 82.8056 131.711 80.2207 134.617 77.5234Z" fill="#1A1A1A"/>
<path fill-rule="evenodd" clip-rule="evenodd" d="M120.848 79.1268C117.224 79.522 113.583 80.035 110.122 80.4682C107.555 82.89 104.88 85.3353 102.199 87.8423C105.589 87.4671 108.861 87.2042 112.519 86.8997C115.392 84.2078 118.136 81.7045 120.848 79.125V79.1268Z" fill="#1A1A1A"/>
<path fill-rule="evenodd" clip-rule="evenodd" d="M108.466 80.6562C105.248 81.0224 102.092 81.4557 98.8554 81.9415C96.39 84.2545 94.0338 86.3717 91.459 88.7409C94.4055 88.4599 97.4141 88.2225 100.579 88.0122C103.209 85.4907 105.928 82.9874 108.466 80.6562Z" fill="#1A1A1A"/>
<path fill-rule="evenodd" clip-rule="evenodd" d="M97.445 82.1641C94.5877 82.6009 91.7322 82.978 89.0208 83.3441C86.6646 85.5049 84.2009 87.6729 81.8594 89.801C84.549 89.5254 87.1967 89.2354 89.9884 88.92C92.5705 86.5834 95.0141 84.3719 97.445 82.1641Z" fill="#1A1A1A"/>
<path fill-rule="evenodd" clip-rule="evenodd" d="M80.2815 85.2031C77.8233 85.5983 75.5473 85.8702 73.4098 86.1457C71.2012 88.1669 68.9727 90.1572 66.8789 92.1929C68.9818 91.9736 71.1338 91.756 73.521 91.4515C75.7423 89.3868 77.9545 87.3602 80.2815 85.2049V85.2031Z" fill="#1A1A1A"/>
<path fill-rule="evenodd" clip-rule="evenodd" d="M71.8257 86.7518C69.65 87.0418 67.7111 87.3464 65.734 87.7125C63.6785 89.5434 61.6613 91.3561 59.502 93.3065C61.357 93.0636 63.3633 92.9114 65.3696 92.7446C67.4706 90.7361 69.6063 88.7476 71.8276 86.75L71.8257 86.7518Z" fill="#1A1A1A"/>
<path fill-rule="evenodd" clip-rule="evenodd" d="M143.351 67.8924C139.06 68.5649 135.007 69.165 131.111 69.8375C128.312 72.165 125.657 74.5577 122.785 77.1789C126.712 76.5789 130.677 76.1511 134.728 75.6272C137.616 72.9589 140.468 70.4266 143.349 67.8906L143.351 67.8924Z" fill="#1A1A1A"/>
<path fill-rule="evenodd" clip-rule="evenodd" d="M129.263 70.0312C125.427 70.6911 121.764 71.2059 118.171 71.8276C115.681 74.1352 113.074 76.3612 110.432 78.7793C113.918 78.2754 117.516 77.8331 121.155 77.2802C123.821 74.8585 126.486 72.4983 129.263 70.0312Z" fill="#1A1A1A"/>
<path fill-rule="evenodd" clip-rule="evenodd" d="M139.197 61.4531C135.295 62.1401 131.556 62.8942 127.9 63.5758C125.271 65.9015 122.7 68.1329 120.125 70.3716C123.574 69.7807 127.319 69.2097 131.248 68.5426C133.843 66.235 136.551 63.8495 139.198 61.4531H139.197Z" fill="#1A1A1A"/>
<path fill-rule="evenodd" clip-rule="evenodd" d="M181.632 63.8906C176.02 64.6646 170.794 65.3843 165.823 65.9009C162.515 68.7487 159.487 71.6707 156.557 74.4115C161.382 74.0073 166.521 73.4272 171.969 72.8417C175.069 69.8852 178.292 66.8888 181.631 63.8924L181.632 63.8906Z" fill="#1A1A1A"/>
<path fill-rule="evenodd" clip-rule="evenodd" d="M30.1765 119.152C28.9848 118.824 27.8932 118.476 26.8509 118.195C25.2328 119.794 23.56 121.426 21.9746 123.22C22.78 123.639 23.7294 124.143 24.7317 124.6C26.4628 122.854 28.3251 120.945 30.1765 119.152Z" fill="#1A1A1A"/>
<path fill-rule="evenodd" clip-rule="evenodd" d="M34.6405 120.273C33.2429 119.945 31.9472 119.588 30.7027 119.266C28.8021 121.187 26.9871 123.034 25.2578 124.789C26.2637 125.34 27.3716 125.855 28.5816 126.382C30.5496 124.341 32.6014 122.253 34.6405 120.273Z" fill="#1A1A1A"/>
<path fill-rule="evenodd" clip-rule="evenodd" d="M39.8289 121.455C38.2253 121.171 36.7675 120.776 35.3626 120.375C33.2305 122.53 31.1787 124.571 29.2617 126.565C30.5737 126.99 31.893 127.488 33.4583 127.883C35.563 125.733 37.7515 123.573 39.8307 121.455H39.8289Z" fill="#1A1A1A"/>
<path fill-rule="evenodd" clip-rule="evenodd" d="M46.4518 122.775C44.5767 122.37 42.7563 121.943 40.9486 121.656C38.8221 123.764 36.5935 126.128 34.4414 128.36C36.0687 128.802 37.6558 129.449 39.2977 130.091C41.6338 127.578 44.1011 125.191 46.4518 122.773V122.775Z" fill="#1A1A1A"/>
<path fill-rule="evenodd" clip-rule="evenodd" d="M53.6486 123.966C51.4565 123.637 49.2752 123.309 47.4384 122.891C45.0404 125.269 42.5749 127.687 40.1914 130.18C42.0446 130.783 43.9999 131.307 46.0189 131.878C48.4352 129.289 50.979 126.674 53.6486 123.966Z" fill="#1A1A1A"/>
<path fill-rule="evenodd" clip-rule="evenodd" d="M61.8554 125.529C59.3316 125.139 57.0137 124.7 54.8015 124.234C52.039 127.037 49.4514 129.729 47.0352 132.279C49.0651 132.859 51.2627 133.582 53.5187 134.262C56.3523 131.269 58.9726 128.52 61.8554 125.527V125.529Z" fill="#1A1A1A"/>
<path fill-rule="evenodd" clip-rule="evenodd" d="M71.1218 127.476C68.2518 126.987 65.5859 126.434 62.9856 125.906C60.2048 128.861 57.4387 131.705 54.6543 134.645C57.0378 135.421 59.5834 136.177 62.1911 136.938C65.1394 133.726 68.2099 130.507 71.1218 127.476Z" fill="#1A1A1A"/>
<path fill-rule="evenodd" clip-rule="evenodd" d="M82.8435 129.177C79.5489 128.521 76.3946 128.029 73.4608 127.602C70.4505 130.6 67.3964 133.881 64.4043 137.084C67.1796 137.745 70.1753 138.458 73.1638 139.444C76.4547 135.833 79.5872 132.48 82.8453 129.177H82.8435Z" fill="#1A1A1A"/>
<path fill-rule="evenodd" clip-rule="evenodd" d="M94.8991 131.306C91.1872 130.583 87.5317 129.765 84.3246 129.133C81.0373 132.582 77.7099 135.983 74.5684 139.509C77.7336 140.475 81.0829 141.53 84.7383 142.393C88.0875 138.671 91.4641 135.06 94.8991 131.308V131.306Z" fill="#1A1A1A"/>
<path fill-rule="evenodd" clip-rule="evenodd" d="M109.226 133.861C104.928 133.114 100.664 132.467 96.9808 131.406C93.5131 135.227 89.9688 139.081 86.6797 142.834C90.3351 143.89 94.1745 144.965 98.24 145.988C101.957 141.82 105.516 137.876 109.228 133.861H109.226Z" fill="#1A1A1A"/>
<path fill-rule="evenodd" clip-rule="evenodd" d="M125.46 137.292C120.409 136.25 115.764 135.318 111.398 134.328C107.65 138.443 103.863 142.554 100.164 146.841C104.72 148.101 108.922 149.673 113.743 150.903C117.727 146.326 121.665 141.769 125.46 137.292Z" fill="#1A1A1A"/>
<path fill-rule="evenodd" clip-rule="evenodd" d="M144.224 141.585C138.317 140.428 133.081 139.335 127.802 138.188C123.863 142.707 119.932 147.307 115.996 151.805C120.925 153.432 126.146 155.026 131.624 156.657C135.957 151.38 140.075 146.419 144.224 141.585Z" fill="#1A1A1A"/>
<path fill-rule="evenodd" clip-rule="evenodd" d="M339.525 115.459C335.806 112.49 332.165 109.493 328.837 106.758C323.462 109.798 318.11 112.629 312.705 115.839C315.721 118.984 318.708 122.282 322.317 125.655C328.145 122.215 333.969 118.794 339.523 115.459H339.525Z" fill="#1A1A1A"/>
<path fill-rule="evenodd" clip-rule="evenodd" d="M157.089 109.363C155.61 107.875 154.165 106.49 152.661 105.305C150.568 106.769 148.386 108.33 146.232 109.815C147.57 111.223 148.833 112.737 150.19 114.439C152.508 112.708 154.821 110.989 157.091 109.363H157.089Z" fill="#1A1A1A"/>
<path fill-rule="evenodd" clip-rule="evenodd" d="M98.5343 54.3861C97.9585 53.5087 97.43 52.5951 96.9435 51.6797C95.0593 53.2368 93.0476 54.9226 91.0723 56.5649C91.3802 57.6181 91.8157 58.5806 92.3077 59.6121C94.3742 57.8773 96.4752 56.1136 98.5325 54.3861H98.5343Z" fill="#1A1A1A"/>
<path fill-rule="evenodd" clip-rule="evenodd" d="M404.418 206.588C399.77 202.954 395.386 199.472 391.127 196.406C385.582 198.11 380.141 200.128 374.432 202.053C378.572 205.403 382.646 209.023 386.834 212.924C392.789 210.687 398.881 208.671 404.42 206.586L404.418 206.588Z" fill="#1A1A1A"/>
<path fill-rule="evenodd" clip-rule="evenodd" d="M111.804 66.1738C111.347 65.6717 110.986 65.1822 110.627 64.7109C109.402 65.5992 108.17 66.4711 106.98 67.3412C107.256 67.8795 107.54 68.5122 107.859 69.0415C109.176 68.0898 110.445 67.1454 111.804 66.172V66.1738Z" fill="#1A1A1A"/>
<path fill-rule="evenodd" clip-rule="evenodd" d="M153.999 43.1968C152.894 42.7273 151.849 42.3122 150.813 41.9297C149.252 42.9901 147.692 44.0868 146.096 45.2433C146.967 45.7672 147.923 46.233 149.011 46.8349C150.637 45.5678 152.319 44.3841 153.999 43.1986V43.1968Z" fill="#1A1A1A"/>
<path fill-rule="evenodd" clip-rule="evenodd" d="M388.861 86.2143C384.484 84.4161 380.414 82.8464 376.548 81.3672C371.547 83.4373 366.813 85.4204 362.283 87.5231C365.776 89.2651 369.456 91.0488 373.572 93.2422C378.856 90.7824 383.991 88.3425 388.861 86.2143Z" fill="#1A1A1A"/>
<path fill-rule="evenodd" clip-rule="evenodd" d="M136.098 40.3944C135.431 40.0808 134.932 39.6693 134.404 39.3594C133.132 40.1896 131.92 41.1268 130.695 42.0313C131.144 42.4283 131.557 42.8978 132.098 43.2603C133.318 42.3304 134.706 41.3461 136.098 40.3944Z" fill="#1A1A1A"/>
<path fill-rule="evenodd" clip-rule="evenodd" d="M108.273 33.5518C107.92 33.2944 107.534 33.0968 107.186 32.8594C106.269 33.5681 105.265 34.3005 104.385 34.9766C104.689 35.2521 104.953 35.5313 105.225 35.8503C106.229 35.0944 107.271 34.324 108.273 33.5518Z" fill="#1A1A1A"/>
<path fill-rule="evenodd" clip-rule="evenodd" d="M41.0889 103.346C40.9395 102.966 40.7426 102.585 40.6406 102.219C39.9081 102.719 39.2247 103.29 38.4922 103.812C38.5487 104.254 38.6507 104.673 38.7528 105.092C39.5782 104.506 40.3126 103.926 41.0889 103.346Z" fill="#1A1A1A"/>
<path fill-rule="evenodd" clip-rule="evenodd" d="M407.78 145.23C404.664 143.742 402.142 142.337 399.482 140.992C395.575 142.096 391.834 143.095 388.105 144.175C390.392 145.555 392.982 147.163 395.722 148.685C399.806 147.576 403.806 146.369 407.78 145.23Z" fill="#1A1A1A"/>
<path fill-rule="evenodd" clip-rule="evenodd" d="M178.472 35.9987C177.379 35.6761 176.262 35.4549 175.316 35.125C173.795 36.1165 172.188 37.1462 170.748 38.1015C171.665 38.5039 172.523 38.8465 173.536 39.2235C175.05 38.1848 176.822 37.0392 178.472 35.9987Z" fill="#1A1A1A"/>
<path fill-rule="evenodd" clip-rule="evenodd" d="M138.182 11.4925C137.488 11.3638 136.794 11.2532 136.112 11.2188C134.968 11.9438 133.878 12.7722 132.783 13.5662C133.432 13.6786 134.084 13.8019 134.738 13.9451C135.908 13.0895 137.045 12.2756 138.182 11.4925Z" fill="#1A1A1A"/>
<path fill-rule="evenodd" clip-rule="evenodd" d="M120.897 41.5184C120.266 41.319 119.645 41.1776 119.063 41C118.085 41.7033 116.977 42.4755 115.949 43.1716C116.534 43.3783 117.074 43.5704 117.662 43.7807C118.77 43.0121 119.792 42.2888 120.898 41.5184H120.897Z" fill="#1A1A1A"/>
<path fill-rule="evenodd" clip-rule="evenodd" d="M14.5507 122.754C14.3722 122.464 14.2391 122.235 14.0587 121.945C13.4811 122.34 12.9053 122.739 12.375 123.111C12.5044 123.41 12.5882 123.691 12.7686 123.934C13.3481 123.559 13.9749 123.154 14.5507 122.754Z" fill="#1A1A1A"/>
<path fill-rule="evenodd" clip-rule="evenodd" d="M106.039 57.6901C105.408 57.4835 104.818 57.246 104.238 57.0938C103.316 57.7191 102.303 58.3898 101.33 59.0134C101.915 59.22 102.5 59.4376 103.045 59.6841C104.012 59.0261 105.027 58.3645 106.039 57.6901Z" fill="#1A1A1A"/>
<path fill-rule="evenodd" clip-rule="evenodd" d="M204.131 66.3399C202.763 65.9828 201.451 65.6184 200.19 65.2812C198.53 66.1749 196.913 67.0251 195.162 67.9604C196.458 68.2559 197.73 68.6601 199 69.0354C200.651 68.1145 202.458 67.2009 204.131 66.3399Z" fill="#1A1A1A"/>
<path fill-rule="evenodd" clip-rule="evenodd" d="M10.1308 116.49C9.96136 116.195 9.74087 115.939 9.56958 115.711C9.00286 116.072 8.47988 116.449 7.95508 116.871C8.12455 117.123 8.29766 117.386 8.46713 117.68C9.03931 117.275 9.60967 116.871 10.1308 116.49Z" fill="#1A1A1A"/>
<path fill-rule="evenodd" clip-rule="evenodd" d="M90.7733 71.8469C90.1883 71.6421 89.5979 71.372 89.0604 71.1562C88.1547 71.7599 87.3383 72.3128 86.4746 72.9019C86.9666 73.1303 87.4623 73.3877 88.0053 73.6632C88.9128 73.036 89.8239 72.4886 90.7733 71.8451V71.8469Z" fill="#1A1A1A"/>
<path fill-rule="evenodd" clip-rule="evenodd" d="M98.1958 47.8477C97.6838 47.7153 97.1827 47.6646 96.6743 47.5703C95.929 48.0779 95.1472 48.6452 94.3965 49.122C94.8156 49.2126 95.3258 49.3431 95.7522 49.4881C96.5795 48.9171 97.3649 48.3661 98.1958 47.8495V47.8477Z" fill="#1A1A1A"/>
<path fill-rule="evenodd" clip-rule="evenodd" d="M474.001 178.626C469.842 177.375 465.445 175.89 461.001 174.602C456.884 175.483 452.438 176.11 448.258 176.88C452.254 178.102 456.582 179.534 460.58 180.953C465.25 180.168 469.571 179.445 474.001 178.628V178.626Z" fill="#1A1A1A"/>
<path fill-rule="evenodd" clip-rule="evenodd" d="M154.427 18.9609C153.51 18.9972 152.685 19.0063 151.859 19.0135C150.892 19.628 149.882 20.2697 148.84 20.9567C149.662 20.9187 150.414 20.9875 151.243 20.9803C152.286 20.2951 153.33 19.6026 154.425 18.9609H154.427Z" fill="#1A1A1A"/>
<path fill-rule="evenodd" clip-rule="evenodd" d="M21.5405 120.108C21.2599 119.899 20.9793 119.684 20.7952 119.484C20.2723 119.818 19.7001 120.199 19.2227 120.503C19.4067 120.726 19.6381 120.916 19.8696 121.156C20.4417 120.77 20.9684 120.447 21.5405 120.11V120.108Z" fill="#1A1A1A"/>
<path fill-rule="evenodd" clip-rule="evenodd" d="M268.629 97.8944C266.559 97.3905 264.341 97.0896 262.229 96.6328C260.148 97.3561 258.255 97.9887 256.395 98.7319C258.312 99.0836 260.387 99.5784 262.554 100.073C264.578 99.3265 266.657 98.6087 268.627 97.8944H268.629Z" fill="#1A1A1A"/>
<path fill-rule="evenodd" clip-rule="evenodd" d="M261.561 135.453C259.694 134.287 257.846 133.127 255.987 132.117C253.385 133.116 250.732 134.291 248.061 135.424C249.79 136.575 251.508 137.697 253.245 139.005C256.14 137.693 258.883 136.593 261.561 135.451V135.453Z" fill="#1A1A1A"/>
<path fill-rule="evenodd" clip-rule="evenodd" d="M15.6395 129.617C15.4609 129.104 15.3315 128.581 15.2003 128.133C14.4696 128.657 13.6879 129.237 12.9043 129.84C12.9827 130.364 13.0628 130.959 13.1867 131.495C13.974 130.877 14.8067 130.248 15.6395 129.616V129.617Z" fill="#1A1A1A"/>
<path fill-rule="evenodd" clip-rule="evenodd" d="M216.335 89.0757C214.652 88.1149 213.099 87.2575 211.658 86.4219C209.442 87.6491 207.133 88.9524 204.826 90.2793C206.277 91.1693 207.572 92.2388 209.189 93.1579C211.641 91.782 213.983 90.4134 216.335 89.0757Z" fill="#1A1A1A"/>
</g>
<defs>
<clipPath id="clip0_1199_1088">
<rect width="474" height="258" fill="white"/>
</clipPath>
</defs>
</svg>
