<svg width="555" height="252" viewBox="0 0 555 252" fill="none" xmlns="http://www.w3.org/2000/svg">
<g clip-path="url(#clip0_1199_913)">
<path fill-rule="evenodd" clip-rule="evenodd" d="M419.157 3.82968C418.75 3.34085 418.161 3.5186 418.528 1.40329C419.9 -2.06119 418.152 2.05388 418.314 1.46551C418.517 2.48761 419.266 1.98989 419.725 1.93479C419.584 2.3934 419.394 3.13287 419.157 3.82968Z" fill="#1A1A1A"/>
<path fill-rule="evenodd" clip-rule="evenodd" d="M506.283 215.82C509.455 211.403 512.043 206.545 514.583 202.211C515.933 203.957 519.804 223.057 525.15 253.003H513.582C510.078 231.02 507.473 217.388 506.283 215.82Z" fill="#1A1A1A"/>
<path fill-rule="evenodd" clip-rule="evenodd" d="M516.189 203.145C518.753 199.044 521.137 195.139 523.548 192.172C524.86 193.763 529.543 217.173 535.982 252.999H525.525C520.846 223.592 517.445 204.828 516.189 203.145Z" fill="#1A1A1A"/>
<path fill-rule="evenodd" clip-rule="evenodd" d="M524.702 190.982C526.863 188.403 528.926 185.954 530.964 183.625C533.377 195.313 535.82 206.845 538.165 218.307C540.55 229.947 542.904 241.528 545.195 252.975L545.042 252.998H535.641C532.137 232.629 528.416 211.887 524.702 190.981V190.982Z" fill="#1A1A1A"/>
<path fill-rule="evenodd" clip-rule="evenodd" d="M531.812 182.415C533.617 180.003 535.339 177.857 536.977 175.836C540.084 188.666 543.186 201.357 546.173 213.803C549.188 226.376 552.147 238.805 555 250.992V251.491C552.29 251.92 549.506 252.344 546.647 252.732C544.315 241.194 541.848 229.474 539.36 217.653C536.915 206.032 534.312 194.298 531.812 182.415Z" fill="#1A1A1A"/>
<path fill-rule="evenodd" clip-rule="evenodd" d="M537.792 174.937C539.337 173.005 540.553 171.055 541.629 168.984C545.409 182.78 549.235 196.455 552.775 209.915L555 218.378V245.647C552.474 235.002 549.852 224.201 547.202 213.289C544.146 200.693 540.986 187.857 537.79 174.939L537.792 174.937Z" fill="#1A1A1A"/>
<path fill-rule="evenodd" clip-rule="evenodd" d="M542.416 168.205C543.726 166.471 544.902 164.823 545.938 163.008C548.983 173.346 552.019 183.596 555 193.744V214.216L553.72 209.463C550.086 195.96 546.286 182.156 542.416 168.207V168.205Z" fill="#1A1A1A"/>
<path fill-rule="evenodd" clip-rule="evenodd" d="M546.519 162.251C547.556 160.819 548.264 159.135 548.968 157.461C551.002 163.839 553.011 170.179 555 176.477V190.801C552.192 181.387 549.342 171.865 546.519 162.253V162.251Z" fill="#1A1A1A"/>
<path fill-rule="evenodd" clip-rule="evenodd" d="M549.726 157.008C550.428 155.552 551.061 154.059 551.512 152.617L555 163.012V173.598C553.259 168.098 551.501 162.564 549.726 157.008Z" fill="#1A1A1A"/>
<path fill-rule="evenodd" clip-rule="evenodd" d="M551.797 151.475C552.361 150.071 552.807 148.727 553.195 147.523L555 152.687V160.992L551.797 151.475Z" fill="#1A1A1A"/>
<path fill-rule="evenodd" clip-rule="evenodd" d="M553.319 146.772C553.643 145.5 553.788 144.22 553.993 142.984L555 145.784V151.55L553.319 146.772Z" fill="#1A1A1A"/>
<path fill-rule="evenodd" clip-rule="evenodd" d="M554.076 142.515C554.219 141.297 554.123 139.93 553.974 138.633L555 141.404V145.071L554.076 142.515Z" fill="#1A1A1A"/>
<path fill-rule="evenodd" clip-rule="evenodd" d="M553.914 137.743C553.899 136.712 553.641 135.509 553.383 134.234L555 138.582V140.664L553.914 137.743Z" fill="#1A1A1A"/>
<path fill-rule="evenodd" clip-rule="evenodd" d="M553.357 133.911C553.114 132.825 552.704 131.779 552.233 130.594L554.998 138.049V138.296L553.355 133.911H553.357Z" fill="#1A1A1A"/>
<path fill-rule="evenodd" clip-rule="evenodd" d="M551.964 129.893C551.392 128.862 550.76 127.733 550.319 126.852C551.874 131.073 553.438 135.295 555 139.508V138.072C553.98 135.347 552.965 132.623 551.964 129.893Z" fill="#1A1A1A"/>
<path fill-rule="evenodd" clip-rule="evenodd" d="M549.832 126.184C549.162 125.204 548.27 124.102 547.383 123.062C549.926 130.032 552.476 136.999 555.002 143.945V140.213C553.274 135.538 551.543 130.854 549.834 126.184H549.832Z" fill="#1A1A1A"/>
<path fill-rule="evenodd" clip-rule="evenodd" d="M417.231 253.002C423.382 247.996 429.228 243.339 434.776 238.586C438.19 243.284 441.759 248.132 445.32 253.002H417.231Z" fill="#1A1A1A"/>
<path fill-rule="evenodd" clip-rule="evenodd" d="M437.943 236.179C444.293 230.591 450.184 225.958 455.727 221.68C461.989 228.907 467.792 235.923 473.916 243.7C471.179 246.509 468.384 249.662 465.458 252.999H450.497C446.281 247.227 442.099 241.647 437.943 236.179Z" fill="#1A1A1A"/>
<path fill-rule="evenodd" clip-rule="evenodd" d="M458.323 219.391C463.815 215.285 468.652 211.381 473.348 207.625C478.838 213.788 484.471 220.361 489.963 226.846C485.77 231.334 481.142 235.924 476.382 240.995C470.331 233.666 464.536 226.561 458.323 219.391Z" fill="#1A1A1A"/>
<path fill-rule="evenodd" clip-rule="evenodd" d="M475.623 205.896C479.955 202.72 484.107 199.495 487.994 196.5C492.861 201.898 497.909 207.142 503.023 212.736C499.462 216.418 495.831 220.303 491.961 224.675C486.509 218.38 480.998 211.887 475.621 205.896H475.623Z" fill="#1A1A1A"/>
<path fill-rule="evenodd" clip-rule="evenodd" d="M501.487 185.484C504.468 183.011 507.402 180.805 510.235 178.672C514.253 182.655 518.642 187.037 522.646 191.273C520.376 193.829 517.741 196.56 515.115 199.67C510.553 194.668 506.098 190.306 501.487 185.484Z" fill="#1A1A1A"/>
<path fill-rule="evenodd" clip-rule="evenodd" d="M511.881 177.94C514.414 175.864 516.977 173.98 519.204 171.875C522.797 175.425 526.565 179.083 530.066 182.633C528.157 185.031 526.027 187.434 523.804 189.996C519.919 186.007 515.777 181.845 511.881 177.94Z" fill="#1A1A1A"/>
<path fill-rule="evenodd" clip-rule="evenodd" d="M520.818 170.659C522.877 168.752 524.85 167.015 526.741 165.289C530.024 168.419 533.41 171.727 536.523 174.812C535.015 176.79 533.233 178.795 531.366 181.003C527.867 177.49 524.165 173.973 520.816 170.659H520.818Z" fill="#1A1A1A"/>
<path fill-rule="evenodd" clip-rule="evenodd" d="M527.928 164.329C529.727 162.85 531.327 161.31 533.036 159.883C535.88 162.565 538.88 165.313 541.729 167.996C540.529 169.928 539.128 171.826 537.839 173.869C534.536 170.762 531.09 167.468 527.928 164.329Z" fill="#1A1A1A"/>
<path fill-rule="evenodd" clip-rule="evenodd" d="M533.7 159.136C535.204 157.778 536.574 156.201 537.754 154.797C540.402 157.189 542.892 159.547 545.721 162.094C544.558 163.811 543.382 165.434 542.138 167.197C539.358 164.598 536.484 161.902 533.698 159.136H533.7Z" fill="#1A1A1A"/>
<path fill-rule="evenodd" clip-rule="evenodd" d="M538.514 153.689C539.794 152.44 540.893 151.254 542.041 150.031C544.496 152.262 546.92 154.557 549.041 156.512C548.335 158.057 547.375 159.507 546.596 161.168C543.957 158.676 541.219 156.111 538.512 153.689H538.514Z" fill="#1A1A1A"/>
<path fill-rule="evenodd" clip-rule="evenodd" d="M542.5 149.646C543.518 148.428 544.348 147.107 545.237 146.039C547.192 147.742 549.165 149.626 551.09 151.446C550.518 152.86 550.006 154.362 549.306 155.817C547.062 153.747 544.828 151.674 542.5 149.646Z" fill="#1A1A1A"/>
<path fill-rule="evenodd" clip-rule="evenodd" d="M545.615 145.315C546.496 144.293 547.021 143.112 547.541 142.016C549.237 143.5 551.006 145.053 552.664 146.57C552.34 147.867 551.834 149.145 551.514 150.676C549.594 148.936 547.499 146.977 545.612 145.315H545.615Z" fill="#1A1A1A"/>
<path fill-rule="evenodd" clip-rule="evenodd" d="M547.924 141.541C548.32 140.398 548.781 139.437 549.178 138.359C550.685 139.675 552.024 140.964 553.605 142.354C553.396 143.534 553.192 144.807 552.867 146.035C551.148 144.449 549.498 142.947 547.924 141.543V141.541Z" fill="#1A1A1A"/>
<path fill-rule="evenodd" clip-rule="evenodd" d="M549.362 137.594C549.584 136.54 549.866 135.607 549.911 134.492C551.289 135.742 552.492 136.835 553.638 137.852C553.787 139.167 553.751 140.319 553.668 141.608C552.328 140.385 550.751 138.902 549.362 137.596V137.594Z" fill="#1A1A1A"/>
<path fill-rule="evenodd" clip-rule="evenodd" d="M529.064 108.622C527.323 107.839 525.689 107.101 523.896 106.5C523.898 106.715 523.845 106.845 523.683 106.831C525.586 107.577 527.602 108.566 529.186 109.275C529.179 108.985 529.179 108.901 529.064 108.622Z" fill="#1A1A1A"/>
<path fill-rule="evenodd" clip-rule="evenodd" d="M550.125 130.707C549.89 129.704 549.719 128.743 549.442 127.898C550.146 128.481 551.089 129.335 551.862 130.067C552.275 131.201 552.685 132.31 553.105 133.459C551.97 132.451 551.132 131.644 550.127 130.707H550.125Z" fill="#1A1A1A"/>
<path fill-rule="evenodd" clip-rule="evenodd" d="M549.119 127.136C548.727 126.208 548.285 125.266 547.843 124.359C548.545 125.037 549.074 125.623 549.778 126.277C550.512 127.365 551.082 128.4 551.658 129.539C550.764 128.658 550.056 127.971 549.117 127.136H549.119Z" fill="#1A1A1A"/>
<path fill-rule="evenodd" clip-rule="evenodd" d="M540.798 116.162C539.782 115.275 538.718 114.459 537.602 113.727C537.886 114.057 538.171 114.404 538.4 114.683C539.633 115.602 540.811 116.455 541.939 117.333C541.54 116.965 541.31 116.69 540.798 116.162Z" fill="#1A1A1A"/>
<path fill-rule="evenodd" clip-rule="evenodd" d="M353.994 244.724C364.741 238.664 374.046 232.924 383.756 227.648C389.547 235.879 395.566 244.015 401.645 253.006H359.283C357.536 250.215 355.774 247.454 353.994 244.724Z" fill="#1A1A1A"/>
<path fill-rule="evenodd" clip-rule="evenodd" d="M388.11 225.307C396.651 220.264 404.639 215.434 412.032 211.008C418.233 218.738 424.373 226.441 430.488 234.619C423.311 240.185 415.965 246.381 407.569 252.399C401.132 242.922 394.441 234.077 388.11 225.307Z" fill="#1A1A1A"/>
<path fill-rule="evenodd" clip-rule="evenodd" d="M415.569 208.944C422.652 205.51 428.921 201.722 435.017 198.195C440.641 204.502 446.451 211.115 452.066 218.013C446.348 222.502 440.483 227.083 433.909 232.337C427.645 224.107 421.79 216.353 415.569 208.944Z" fill="#1A1A1A"/>
<path fill-rule="evenodd" clip-rule="evenodd" d="M437.793 196.317C443.664 193.149 449.018 189.939 454.175 187.242C459.336 192.641 464.828 198.761 470.07 205.004C465.27 208.536 460.153 211.982 454.631 215.939C449.227 209.348 443.455 202.798 437.793 196.317Z" fill="#1A1A1A"/>
<path fill-rule="evenodd" clip-rule="evenodd" d="M456.634 185.927C461.546 183.487 465.984 180.888 470.385 178.766C475.28 183.585 479.972 188.596 484.971 193.98C481.041 196.849 476.716 199.775 472.376 203.026C467.187 197.325 461.808 191.287 456.634 185.927Z" fill="#1A1A1A"/>
<path fill-rule="evenodd" clip-rule="evenodd" d="M515.171 103.756C516.313 103.659 517.345 103.556 518.267 103.406C520.158 104.965 521.892 106.419 523.744 107.898C522.82 108.005 521.95 108.257 520.968 108.449C519.061 106.942 517.219 105.374 515.171 103.756Z" fill="#1A1A1A"/>
<path fill-rule="evenodd" clip-rule="evenodd" d="M485.776 170.073C489.252 168.332 492.399 166.489 495.633 164.797C499.64 168.786 503.767 172.794 507.816 176.87C504.93 178.817 501.936 180.971 498.714 183.136C494.449 178.742 490.171 174.444 485.776 170.073Z" fill="#1A1A1A"/>
<path fill-rule="evenodd" clip-rule="evenodd" d="M497.439 164.255C500.322 162.561 503.23 161.035 505.995 159.477C509.436 162.799 513.036 166.274 516.49 169.783C514.139 171.747 511.64 173.608 509.042 175.633C505.225 171.937 501.337 168.089 497.439 164.255Z" fill="#1A1A1A"/>
<path fill-rule="evenodd" clip-rule="evenodd" d="M507.717 158.554C510.314 157.233 512.405 155.688 514.713 154.43C517.993 157.494 521.302 160.527 524.404 163.55C522.514 165.207 520.417 166.825 518.168 168.64C514.594 164.992 511.105 161.711 507.719 158.554H507.717Z" fill="#1A1A1A"/>
<path fill-rule="evenodd" clip-rule="evenodd" d="M516.018 153.589C518.182 152.32 520.147 151.033 522.212 150.039C525.078 152.638 528.088 155.343 531.133 158.385C529.486 159.817 527.76 161.216 525.833 162.845C522.669 159.844 519.298 156.584 516.018 153.589Z" fill="#1A1A1A"/>
<path fill-rule="evenodd" clip-rule="evenodd" d="M522.943 149.492C524.752 148.289 526.489 147.275 527.978 146.109C530.603 148.49 533.31 150.957 535.924 153.275C534.56 154.622 533.186 156.112 531.556 157.571C528.699 154.771 525.81 152.132 522.943 149.49V149.492Z" fill="#1A1A1A"/>
<path fill-rule="evenodd" clip-rule="evenodd" d="M529.042 145.315C530.632 144.448 531.914 143.291 533.19 142.297C535.693 144.48 538.219 146.776 540.707 149.114C539.374 150.127 538.337 151.48 537.11 152.712C534.494 150.282 531.665 147.715 529.042 145.317V145.315Z" fill="#1A1A1A"/>
<path fill-rule="evenodd" clip-rule="evenodd" d="M533.891 141.982C535.275 141.137 536.18 140.012 537.315 139.047C539.457 140.913 541.674 142.901 543.727 144.796C542.715 145.855 541.821 147.039 540.801 148.262C538.499 146.162 536.214 144.058 533.891 141.982Z" fill="#1A1A1A"/>
<path fill-rule="evenodd" clip-rule="evenodd" d="M543.601 132.648C544.064 131.724 544.474 130.903 544.826 130.055C546.296 131.356 547.596 132.508 548.959 133.727C548.737 134.715 548.394 135.626 548.289 136.783C546.621 135.341 545.131 133.983 543.599 132.65L543.601 132.648Z" fill="#1A1A1A"/>
<path fill-rule="evenodd" clip-rule="evenodd" d="M545.207 129.758C545.324 128.769 545.679 128.092 545.743 127.266C546.854 128.236 548.03 129.285 549.15 130.307C549.208 131.249 549.099 132.234 548.986 133.172C547.74 132.03 546.5 130.867 545.207 129.758Z" fill="#1A1A1A"/>
<path fill-rule="evenodd" clip-rule="evenodd" d="M545.569 124.023C545.477 123.408 545.208 122.501 545.008 121.82C545.759 122.515 546.574 123.299 547.269 123.939C547.822 124.901 548.208 125.815 548.543 126.739C547.553 125.895 546.614 124.967 545.571 124.025L545.569 124.023Z" fill="#1A1A1A"/>
<path fill-rule="evenodd" clip-rule="evenodd" d="M543.674 119.376C543.26 118.779 542.62 117.883 541.758 116.992C542.217 117.495 542.791 118.037 543.026 118.425C544.058 119.461 544.814 120.286 545.631 121.219C545.051 120.642 544.304 119.97 543.672 119.376H543.674Z" fill="#1A1A1A"/>
<path fill-rule="evenodd" clip-rule="evenodd" d="M537.853 113.2C537.066 112.473 536.232 111.828 535.457 111.25C535.961 111.796 536.411 112.313 536.912 112.761C537.862 113.499 538.816 114.297 539.656 114.935C538.978 114.3 538.472 113.82 537.851 113.2H537.853Z" fill="#1A1A1A"/>
<path fill-rule="evenodd" clip-rule="evenodd" d="M539.905 116.884C539.772 116.329 539.474 115.732 539.341 115.172C540.135 115.956 540.986 116.743 541.782 117.453C542.081 118.101 542.499 118.811 542.809 119.511C541.893 118.695 540.869 117.822 539.905 116.884Z" fill="#1A1A1A"/>
<path fill-rule="evenodd" clip-rule="evenodd" d="M176.342 159.532C193.864 156.442 209.964 153.397 225.128 150.5C230.972 158.394 236.938 165.933 242.523 174.023C227.814 177.452 211.586 181.871 193.616 186.371C187.77 177.055 182.103 168.242 176.34 159.532H176.342Z" fill="#1A1A1A"/>
<path fill-rule="evenodd" clip-rule="evenodd" d="M277.388 150.62C289.62 148.348 300.382 146.108 311.093 144.414C316.346 150.372 322.066 156.544 327.77 163.015C317.319 165.674 306.35 168.529 294.562 171.687C289.07 164.591 283.091 157.303 277.388 150.618V150.62Z" fill="#1A1A1A"/>
<path fill-rule="evenodd" clip-rule="evenodd" d="M291.78 104.244C301.522 103.916 310.637 103.422 319.432 103.031C324.38 107.557 329.223 111.971 333.879 116.557C325.349 117.206 316.289 118.03 306.652 119.211C301.842 114.042 297.042 109.036 291.78 104.244Z" fill="#1A1A1A"/>
<path fill-rule="evenodd" clip-rule="evenodd" d="M240.019 253.001C252.507 247.453 264.193 242.206 275.198 237.148C278.343 242.327 281.494 247.608 284.609 253.001H240.021H240.019Z" fill="#1A1A1A"/>
<path fill-rule="evenodd" clip-rule="evenodd" d="M282.675 233.899C297.013 227.512 309.646 221.354 322.006 215.844C328.49 225.24 335.132 235.345 341.742 245.431C337.697 247.938 333.579 250.451 329.356 252.999H293.804C290.038 246.471 286.336 240.127 282.675 233.899Z" fill="#1A1A1A"/>
<path fill-rule="evenodd" clip-rule="evenodd" d="M327.724 213.375C338.915 208.775 349.246 204.502 358.737 200.266C364.852 208.043 371.366 216.39 377.248 225.002C368.003 230.367 358.058 235.872 347.123 241.802C340.806 231.869 334.211 222.642 327.724 213.375Z" fill="#1A1A1A"/>
<path fill-rule="evenodd" clip-rule="evenodd" d="M363.931 199.083C373.176 195.122 381.601 191.66 389.59 188.352C395.096 194.907 400.906 201.69 406.746 208.589C399.076 212.966 390.678 217.79 381.834 222.865C375.766 214.304 369.913 206.732 363.931 199.081V199.083Z" fill="#1A1A1A"/>
<path fill-rule="evenodd" clip-rule="evenodd" d="M394.517 185.936C401.899 183.085 408.87 180.305 415.471 177.539C420.739 183.194 426.03 189.161 431.328 195.292C425.079 198.916 418.539 202.379 411.4 205.836C405.868 199.281 400.147 192.572 394.517 185.938V185.936Z" fill="#1A1A1A"/>
<path fill-rule="evenodd" clip-rule="evenodd" d="M419.289 175.927C425.288 173.086 431.032 170.99 436.731 168.914C441.69 174.201 446.778 179.603 452.008 185.062C446.618 187.595 440.983 190.535 435.304 193.8C430.042 187.758 424.546 181.702 419.289 175.927Z" fill="#1A1A1A"/>
<path fill-rule="evenodd" clip-rule="evenodd" d="M439.225 168.332C444.288 166.279 449.287 164.349 454.154 162.641C458.464 167.195 463.024 171.733 467.523 176.273C463.105 178.564 458.426 181.031 453.68 183.676C448.799 178.479 443.87 173.278 439.227 168.332H439.225Z" fill="#1A1A1A"/>
<path fill-rule="evenodd" clip-rule="evenodd" d="M471.389 155.841C475.411 154.618 478.923 153.248 482.411 151.898C486.165 155.439 490.067 159.158 493.662 162.662C490.494 164.373 487.413 166.217 483.632 167.84C479.668 163.845 475.571 159.81 471.389 155.839V155.841Z" fill="#1A1A1A"/>
<path fill-rule="evenodd" clip-rule="evenodd" d="M484.266 151.266C487.654 149.922 490.714 148.584 493.724 147.594C497.219 150.77 500.454 153.863 504.07 157.298C501.314 158.8 498.476 160.25 495.542 161.912C491.7 158.305 488.089 154.756 484.266 151.266Z" fill="#1A1A1A"/>
<path fill-rule="evenodd" clip-rule="evenodd" d="M495.225 147.098C497.971 146.015 500.463 144.892 503.049 143.953C506.332 146.897 509.595 149.785 512.516 152.701C510.384 154.016 507.877 155.276 505.406 156.629C501.899 153.378 498.542 150.228 495.227 147.098H495.225Z" fill="#1A1A1A"/>
<path fill-rule="evenodd" clip-rule="evenodd" d="M504.931 143.541C507.436 142.599 509.683 141.712 511.859 140.695C514.462 143.051 517.552 145.818 520.195 148.351C518.309 149.494 516.167 150.632 514.001 151.921C511.074 149.075 507.929 146.272 504.931 143.541Z" fill="#1A1A1A"/>
<path fill-rule="evenodd" clip-rule="evenodd" d="M513.064 140.184C515.155 139.405 517.24 138.635 519.075 137.852C521.627 140.12 524.08 142.363 526.617 144.58C525.011 145.596 523.156 146.535 521.407 147.79C518.644 145.177 515.962 142.681 513.064 140.186V140.184Z" fill="#1A1A1A"/>
<path fill-rule="evenodd" clip-rule="evenodd" d="M519.61 137.416C521.434 136.689 523.013 135.876 524.756 135.219C526.964 137.114 529.303 139.199 531.658 141.246C530.203 142.16 528.797 143.191 527.207 144.242C524.732 141.961 522.161 139.73 519.61 137.416Z" fill="#1A1A1A"/>
<path fill-rule="evenodd" clip-rule="evenodd" d="M525.51 134.576C526.897 133.718 528.273 132.911 529.645 132.305C531.906 134.292 533.953 136.098 536.014 137.94C534.936 138.91 533.735 139.811 532.468 140.771C530.112 138.652 527.776 136.633 525.51 134.575V134.576Z" fill="#1A1A1A"/>
<path fill-rule="evenodd" clip-rule="evenodd" d="M530.442 131.874C531.69 131.305 532.874 130.708 533.883 129.961C535.799 131.659 537.549 133.194 539.605 135.032C538.718 135.859 537.824 136.666 536.81 137.5C534.751 135.708 532.707 133.944 530.442 131.874Z" fill="#1A1A1A"/>
<path fill-rule="evenodd" clip-rule="evenodd" d="M339.364 125.627C347.519 124.688 355.289 123.887 362.832 122.898C367.536 127.625 372.275 132.183 377.264 136.927C370.075 138.196 362.424 139.394 354.274 141.079C349.268 135.793 344.25 130.704 339.362 125.627H339.364Z" fill="#1A1A1A"/>
<path fill-rule="evenodd" clip-rule="evenodd" d="M490.694 101.299C492.913 101.313 495.017 101.316 497.005 101.345C499.335 103.3 501.738 105.208 503.984 107.106C502.043 107.078 500.359 107.35 498.234 107.413C495.781 105.36 493.286 103.313 490.692 101.297L490.694 101.299Z" fill="#1A1A1A"/>
<path fill-rule="evenodd" clip-rule="evenodd" d="M491.045 95.2188C493.057 95.4232 494.964 95.5778 496.812 95.704C499.074 97.4816 501.235 99.1899 503.352 100.868C501.651 100.877 499.895 100.859 498.084 100.799C495.813 98.989 493.4 97.0799 491.045 95.2188Z" fill="#1A1A1A"/>
<path fill-rule="evenodd" clip-rule="evenodd" d="M104.595 252.998C110.542 250.899 116.351 248.831 122.018 246.789C122.97 248.828 123.904 250.899 124.826 252.998H104.593H104.595Z" fill="#1A1A1A"/>
<path fill-rule="evenodd" clip-rule="evenodd" d="M343.741 81.0234C350.773 81.331 357.451 81.6012 363.812 81.8536C367.733 85.1101 371.614 88.4128 375.617 91.5662C369.255 91.5982 362.888 91.5236 356.039 91.4453C352.066 87.9186 347.861 84.4701 343.743 81.0234H343.741Z" fill="#1A1A1A"/>
<path fill-rule="evenodd" clip-rule="evenodd" d="M207.186 216.799C225.083 210.674 241.495 205.257 257.113 200.25C263.198 209.664 269.712 219.78 275.652 230.618C260.32 237.327 244.26 244.138 226.306 251.426C220.236 239.65 213.679 227.982 207.188 216.799H207.186Z" fill="#1A1A1A"/>
<path fill-rule="evenodd" clip-rule="evenodd" d="M308.515 183.421C319.838 179.898 330.618 176.764 340.611 173.68C346.432 180.65 352.363 188.039 358.133 195.51C348.581 199.602 338.06 203.758 327.308 207.962C321.044 199.732 314.792 191.26 308.517 183.423L308.515 183.421Z" fill="#1A1A1A"/>
<path fill-rule="evenodd" clip-rule="evenodd" d="M377.231 163.654C385.055 161.438 392.194 159.413 398.992 157.328C403.921 162.408 409.078 167.928 414.025 173.602C407.552 176.218 400.466 178.995 393.312 181.864C388.14 175.561 382.569 169.384 377.229 163.654H377.231Z" fill="#1A1A1A"/>
<path fill-rule="evenodd" clip-rule="evenodd" d="M402.874 156.321C409.353 154.501 415.424 152.892 421.242 151.422C426.115 156.237 430.846 161.126 435.719 165.987C430.184 167.966 424.545 169.953 418.445 172.426C413.16 166.748 408.097 161.28 402.874 156.321Z" fill="#1A1A1A"/>
<path fill-rule="evenodd" clip-rule="evenodd" d="M423.75 150.891C429.144 149.435 434.378 148.003 439.513 146.547C443.791 150.792 448.071 154.964 452.445 159.292C447.715 161.064 442.72 163.053 437.638 164.97C432.88 160.168 428.182 155.424 423.752 150.889L423.75 150.891Z" fill="#1A1A1A"/>
<path fill-rule="evenodd" clip-rule="evenodd" d="M442.905 145.685C447.507 144.524 452.016 143.408 456.133 142.297C460.435 146.309 464.519 150.042 468.547 154.054C464.685 155.328 460.529 156.773 455.978 158.594C451.685 154.027 447.161 149.748 442.905 145.685Z" fill="#1A1A1A"/>
<path fill-rule="evenodd" clip-rule="evenodd" d="M458.153 141.938C462.337 140.973 466.086 139.867 469.854 138.961C473.545 142.297 477.309 145.885 480.816 149.36C477.413 150.606 473.914 151.991 469.852 153.144C466.079 149.537 462.075 145.632 458.155 141.938H458.153Z" fill="#1A1A1A"/>
<path fill-rule="evenodd" clip-rule="evenodd" d="M471.859 138.417C475.465 137.605 478.859 136.901 482.064 136.117C485.446 139.205 488.926 142.243 492.137 145.266C489.203 146.2 485.988 147.3 482.796 148.621C479.226 145.121 475.552 141.791 471.859 138.417Z" fill="#1A1A1A"/>
<path fill-rule="evenodd" clip-rule="evenodd" d="M483.541 135.729C486.597 135.025 489.52 134.279 492.317 133.461C495.443 136.278 498.598 139.087 501.545 141.826C499.083 142.815 496.364 143.796 493.574 144.715C490.235 141.757 486.934 138.715 483.539 135.729H483.541Z" fill="#1A1A1A"/>
<path fill-rule="evenodd" clip-rule="evenodd" d="M494.234 133.18C496.94 132.494 499.342 131.721 501.664 131.109C504.538 133.522 507.367 135.994 510.164 138.392C508.105 139.46 505.745 140.426 503.191 141.29C500.181 138.527 497.253 135.864 494.232 133.18H494.234Z" fill="#1A1A1A"/>
<path fill-rule="evenodd" clip-rule="evenodd" d="M503.371 130.991C505.619 130.342 507.855 129.796 510.023 129.297C512.394 131.373 515.009 133.641 517.414 135.847C515.466 136.519 513.565 137.284 511.478 138.03C508.854 135.725 506.131 133.407 503.371 130.989V130.991Z" fill="#1A1A1A"/>
<path fill-rule="evenodd" clip-rule="evenodd" d="M510.613 128.922C512.484 128.282 514.341 127.69 516.248 127.164C518.514 129.128 520.961 131.325 523.197 133.309C521.512 134.018 519.877 134.774 518.117 135.503C515.655 133.32 513.092 131.172 510.611 128.924L510.613 128.922Z" fill="#1A1A1A"/>
<path fill-rule="evenodd" clip-rule="evenodd" d="M517.118 126.715C518.84 126.179 520.385 125.704 521.981 125.297C524.193 127.13 526.361 128.921 528.486 130.83C527.061 131.405 525.685 132.1 524.245 132.86C521.891 130.841 519.555 128.751 517.12 126.715H517.118Z" fill="#1A1A1A"/>
<path fill-rule="evenodd" clip-rule="evenodd" d="M391.77 120.413C397.881 119.89 403.763 119.494 409.405 118.977C413.576 122.736 417.83 126.586 422.074 130.383C416.631 131.148 411.197 132.063 405.095 133.098C400.644 128.787 396.24 124.499 391.77 120.413Z" fill="#1A1A1A"/>
<path fill-rule="evenodd" clip-rule="evenodd" d="M411.968 118.639C417.287 118.079 422.485 117.701 427.153 117.18C431.241 120.692 435.284 124.285 439.08 127.802C434.459 128.553 429.69 129.31 424.539 130C420.451 126.315 416.141 122.386 411.968 118.639Z" fill="#1A1A1A"/>
<path fill-rule="evenodd" clip-rule="evenodd" d="M429.469 116.96C434.321 116.569 438.671 116.222 442.892 115.883C446.547 118.99 450.381 122.321 454.029 125.512C449.971 126.152 445.774 126.799 441.356 127.583C437.511 123.953 433.455 120.369 429.469 116.96Z" fill="#1A1A1A"/>
<path fill-rule="evenodd" clip-rule="evenodd" d="M444.883 115.696C449.014 115.366 452.936 115.165 456.68 114.875C460.109 117.772 463.755 120.977 467.064 123.829C463.499 124.332 459.761 124.705 455.931 125.21C452.434 122.154 448.536 118.823 444.881 115.696H444.883Z" fill="#1A1A1A"/>
<path fill-rule="evenodd" clip-rule="evenodd" d="M458.513 114.757C462.127 114.421 465.505 114.01 468.895 113.898C472.081 116.552 475.343 119.315 478.562 122.169C475.524 122.609 472.29 123.112 468.801 123.654C465.445 120.653 461.886 117.649 458.513 114.757Z" fill="#1A1A1A"/>
<path fill-rule="evenodd" clip-rule="evenodd" d="M470.465 113.852C473.623 113.6 476.535 113.367 479.49 113.203C482.599 115.718 485.723 118.307 488.424 120.71C485.834 121.144 483.06 121.591 479.996 121.913C476.879 119.128 473.776 116.497 470.467 113.852H470.465Z" fill="#1A1A1A"/>
<path fill-rule="evenodd" clip-rule="evenodd" d="M480.82 113.12C483.651 112.879 486.41 112.724 488.881 112.5C491.738 114.829 494.55 117.23 497.33 119.55C495.002 120.007 492.333 120.24 489.826 120.549C486.894 118.119 483.991 115.636 480.82 113.122V113.12Z" fill="#1A1A1A"/>
<path fill-rule="evenodd" clip-rule="evenodd" d="M490.303 112.538C492.815 112.351 495.153 112.165 497.37 111.992C499.798 114.097 502.356 116.214 504.934 118.276C502.815 118.575 500.568 119.028 498.428 119.428C495.759 117.104 493.103 114.899 490.303 112.538Z" fill="#1A1A1A"/>
<path fill-rule="evenodd" clip-rule="evenodd" d="M498.729 111.869C500.876 111.743 502.794 111.533 504.759 111.453C507.099 113.314 509.451 115.25 511.812 117.214C509.999 117.495 508.292 117.835 506.359 118.101C503.837 116.034 501.219 113.92 498.729 111.867V111.869Z" fill="#1A1A1A"/>
<path fill-rule="evenodd" clip-rule="evenodd" d="M505.887 111.285C507.735 111.098 509.356 110.931 511.08 110.805C513.318 112.634 515.569 114.406 517.775 116.31C516.261 116.617 514.63 116.841 512.938 117.2C510.63 115.222 508.223 113.229 505.885 111.285H505.887Z" fill="#1A1A1A"/>
<path fill-rule="evenodd" clip-rule="evenodd" d="M511.804 110.772C513.361 110.557 514.693 110.281 516.075 110.062C518.098 111.757 520.185 113.474 522.064 115.065C520.844 115.369 519.453 115.662 518.168 116.021C516.073 114.266 513.878 112.485 511.804 110.772Z" fill="#1A1A1A"/>
<path fill-rule="evenodd" clip-rule="evenodd" d="M516.957 109.915C518.168 109.714 519.487 109.653 520.584 109.406C522.5 110.988 524.428 112.556 526.197 114.067C525.209 114.346 524.217 114.65 523.057 114.911C521.123 113.326 519.033 111.683 516.954 109.915H516.957Z" fill="#1A1A1A"/>
<path fill-rule="evenodd" clip-rule="evenodd" d="M530.736 110.867C531.109 110.6 531.423 110.186 531.689 109.891C532.963 111.019 534.237 112.013 535.3 113.012C535.319 113.503 535.114 113.936 534.856 114.356C533.46 113.199 532.178 112.093 530.738 110.867H530.736Z" fill="#1A1A1A"/>
<path fill-rule="evenodd" clip-rule="evenodd" d="M505.895 101.654C502.848 101.113 499.854 100.571 496.417 100.002C495.608 99.6575 494.847 99.4993 493.874 99.1953C497.522 99.9419 500.842 100.534 504.051 101.168C504.802 101.593 505.304 101.398 505.895 101.654Z" fill="#1A1A1A"/>
<path fill-rule="evenodd" clip-rule="evenodd" d="M485.15 98.8036C480.836 98.4907 476.471 98.4996 471.719 98.3183C470.827 98.2489 469.82 98.1867 468.779 97.9219C473.742 98.3183 478.289 98.2294 482.675 98.4498C483.708 98.7715 484.495 98.656 485.15 98.8053V98.8036Z" fill="#1A1A1A"/>
<path fill-rule="evenodd" clip-rule="evenodd" d="M398.672 106.317C404.175 106.024 409.635 105.86 414.566 105.594C418.517 108.905 422.422 112.274 426.232 115.703C421.357 116.113 416.162 116.51 410.988 117.013C406.908 113.323 402.688 109.661 398.674 106.315L398.672 106.317Z" fill="#1A1A1A"/>
<path fill-rule="evenodd" clip-rule="evenodd" d="M416.964 105.479C421.889 105.414 426.564 105.33 430.952 105.172C434.513 108.233 438.431 111.438 441.881 114.493C437.729 114.835 433.218 115.1 428.561 115.418C424.788 112.081 420.813 108.709 416.964 105.481V105.479Z" fill="#1A1A1A"/>
<path fill-rule="evenodd" clip-rule="evenodd" d="M433.067 105.156C437.415 105.067 441.501 105.072 445.532 104.992C448.954 107.721 452.368 110.624 455.684 113.613C451.899 113.786 447.983 114.015 443.902 114.415C440.505 111.374 436.641 108.154 433.065 105.154L433.067 105.156Z" fill="#1A1A1A"/>
<path fill-rule="evenodd" clip-rule="evenodd" d="M447.409 104.892C451.247 104.826 454.825 104.883 458.299 104.789C461.582 107.425 464.776 110.052 467.881 112.66C464.61 112.781 461.188 113.126 457.522 113.458C454.181 110.604 450.769 107.655 447.409 104.892Z" fill="#1A1A1A"/>
<path fill-rule="evenodd" clip-rule="evenodd" d="M459.974 104.722C463.415 104.777 466.411 104.642 469.55 104.667C472.643 107.168 475.652 109.575 478.566 112.025C475.671 112.243 472.65 112.449 469.449 112.616C466.347 109.963 463.191 107.453 459.974 104.722Z" fill="#1A1A1A"/>
<path fill-rule="evenodd" clip-rule="evenodd" d="M470.986 104.582C474.059 104.553 476.843 104.544 479.623 104.461C482.474 106.765 485.231 109.042 488 111.365C485.516 111.767 482.822 111.868 480.001 112.032C476.976 109.516 474.136 107.086 470.984 104.582H470.986Z" fill="#1A1A1A"/>
<path fill-rule="evenodd" clip-rule="evenodd" d="M480.921 104.484C483.516 104.484 486.153 104.582 488.402 104.531C491.005 106.569 493.672 108.752 496.307 110.843C494.043 110.955 491.713 111.113 489.253 111.356C486.592 109.047 483.718 106.785 480.921 104.484Z" fill="#1A1A1A"/>
<path fill-rule="evenodd" clip-rule="evenodd" d="M384.885 94.0312C390.674 94.0828 396.26 94.1521 401.479 94.2606C405.287 97.4566 409.085 100.53 412.836 103.699C407.702 103.843 402.302 104.059 396.881 104.254C392.816 100.816 388.739 97.3304 384.885 94.033V94.0312Z" fill="#1A1A1A"/>
<path fill-rule="evenodd" clip-rule="evenodd" d="M403.916 94.4062C409.011 94.4205 413.942 94.6071 418.529 94.7333C422.135 97.6681 425.767 100.603 429.264 103.518C424.802 103.481 420.021 103.541 415.203 103.728C411.52 100.486 407.757 97.4477 403.916 94.4062Z" fill="#1A1A1A"/>
<path fill-rule="evenodd" clip-rule="evenodd" d="M420.847 94.7656C425.364 94.8403 429.738 94.9896 433.869 95.1442C437.161 97.7946 440.513 100.529 443.869 103.403C439.911 103.426 435.761 103.492 431.481 103.547C427.993 100.589 424.361 97.5991 420.849 94.7656H420.847Z" fill="#1A1A1A"/>
<path fill-rule="evenodd" clip-rule="evenodd" d="M435.766 95.1641C439.876 95.3596 443.424 95.42 447.173 95.5978C450.501 98.1877 453.522 100.675 456.721 103.263C453.149 103.277 449.515 103.245 445.624 103.309C442.479 100.557 439.12 97.8233 435.766 95.1641Z" fill="#1A1A1A"/>
<path fill-rule="evenodd" clip-rule="evenodd" d="M449.094 95.7266C452.508 95.7817 455.851 95.8617 459.178 96.0252C462.259 98.512 465.207 100.873 468.066 103.196C465.086 103.322 461.879 103.34 458.388 103.276C455.301 100.677 452.211 98.2418 449.094 95.7266Z" fill="#1A1A1A"/>
<path fill-rule="evenodd" clip-rule="evenodd" d="M460.812 96.0703C464.066 96.257 466.927 96.3601 469.673 96.4525C472.582 98.6958 475.556 100.959 478.221 103.152C475.502 103.189 472.66 103.264 469.543 103.198C466.682 100.884 463.785 98.5287 460.812 96.0703Z" fill="#1A1A1A"/>
<path fill-rule="evenodd" clip-rule="evenodd" d="M471.386 96.7266C474.279 96.9274 476.84 97.0394 479.449 97.1692C482.11 99.2774 484.892 101.451 487.463 103.627C485.007 103.469 482.423 103.44 479.726 103.348C477.053 101.243 474.394 99.1405 471.386 96.7283V96.7266Z" fill="#1A1A1A"/>
<path fill-rule="evenodd" clip-rule="evenodd" d="M391.648 84.1562C396.945 84.4087 401.959 84.5811 406.807 84.9117C410.4 87.7807 413.869 90.5573 417.377 93.5472C412.593 93.277 407.81 93.2485 402.625 93.1223C399.102 90.1271 395.424 87.1372 391.65 84.1562H391.648Z" fill="#1A1A1A"/>
<path fill-rule="evenodd" clip-rule="evenodd" d="M409.233 85.1953C413.978 85.3766 418.339 85.7179 422.739 86.1054C426.082 88.6811 429.321 91.3066 432.637 93.9801C428.363 93.6814 424.202 93.6725 419.581 93.5517C416.099 90.7004 412.6 87.7995 409.233 85.1953Z" fill="#1A1A1A"/>
<path fill-rule="evenodd" clip-rule="evenodd" d="M424.769 86.25C428.947 86.5202 432.819 86.865 436.741 87.2206C439.916 89.6274 442.982 92.1338 446.176 94.6473C442.395 94.3255 438.682 94.2597 434.53 94.0038C431.417 91.485 428.108 88.8861 424.769 86.25Z" fill="#1A1A1A"/>
<path fill-rule="evenodd" clip-rule="evenodd" d="M438.652 87.3359C442.347 87.6115 445.827 87.7785 449.282 88.0541C452.264 90.3862 455.16 92.6918 458.119 95.0559C454.795 94.9119 451.516 94.7893 447.835 94.6506C444.69 92.1691 441.776 89.757 438.652 87.3359Z" fill="#1A1A1A"/>
<path fill-rule="evenodd" clip-rule="evenodd" d="M450.999 88.2266C454.118 88.399 457.225 88.6461 460.421 89.0247C463.227 91.1702 466.037 93.4064 468.766 95.5466C465.86 95.4293 462.847 95.1875 459.749 95.1218C456.73 92.7558 453.826 90.5125 450.999 88.2266Z" fill="#1A1A1A"/>
<path fill-rule="evenodd" clip-rule="evenodd" d="M469.969 90.6953C472.713 90.9797 475.342 91.241 477.755 91.4188C480.234 93.3261 482.88 95.3472 485.432 97.3541C483.006 97.1728 480.507 97.1248 478.015 96.995C475.483 94.9135 472.745 92.8106 469.969 90.6971V90.6953Z" fill="#1A1A1A"/>
<path fill-rule="evenodd" clip-rule="evenodd" d="M479.236 91.5234C481.587 91.6959 483.829 91.8221 486.006 92.0514C488.284 93.8894 490.582 95.6065 492.773 97.4019C490.849 97.3788 488.651 97.2472 486.554 97.1921C484.211 95.363 481.67 93.3703 479.236 91.5234Z" fill="#1A1A1A"/>
<path fill-rule="evenodd" clip-rule="evenodd" d="M397.379 76.0156C402.145 76.4867 406.741 76.94 411.373 77.4021C414.655 79.9583 417.857 82.4362 421.229 85.035C416.684 84.5409 412.419 84.3258 407.556 83.8867C404.234 81.1955 400.782 78.6607 397.379 76.0156Z" fill="#1A1A1A"/>
<path fill-rule="evenodd" clip-rule="evenodd" d="M413.502 77.5877C417.746 77.9752 422.009 78.4783 426.061 78.9031C429.067 81.278 432.199 83.6759 435.338 86.1343C431.369 85.7663 427.537 85.5086 423.255 85.2099C419.89 82.5703 416.677 80.1154 413.502 77.5859V77.5877Z" fill="#1A1A1A"/>
<path fill-rule="evenodd" clip-rule="evenodd" d="M427.999 79.0938C431.767 79.4528 435.462 79.8777 439.252 80.354C442.139 82.6222 444.897 84.6984 447.912 87.0217C444.462 86.7462 440.939 86.5133 437.233 86.3071C434.154 83.8345 430.971 81.3797 427.999 79.0938Z" fill="#1A1A1A"/>
<path fill-rule="evenodd" clip-rule="evenodd" d="M440.901 80.5703C444.247 80.9987 447.59 81.3684 450.765 81.7275C453.524 83.8464 456.409 85.9724 459.15 88.0592C456.001 87.789 452.901 87.5046 449.632 87.1953C446.609 84.904 443.748 82.7354 440.901 80.5703Z" fill="#1A1A1A"/>
<path fill-rule="evenodd" clip-rule="evenodd" d="M460.999 83.5547C463.877 83.9422 466.542 84.2088 469.044 84.479C471.63 86.461 474.24 88.4128 476.691 90.409C474.229 90.1939 471.709 89.9806 468.914 89.682C466.313 87.6573 463.723 85.67 460.999 83.5565V83.5547Z" fill="#1A1A1A"/>
<path fill-rule="evenodd" clip-rule="evenodd" d="M470.9 85.0721C473.448 85.3565 475.718 85.6551 478.033 86.0142C480.44 87.8096 482.802 89.5871 485.33 91.4998C483.158 91.2616 480.809 91.1123 478.46 90.9487C476 88.9792 473.499 87.0292 470.898 85.0703L470.9 85.0721Z" fill="#1A1A1A"/>
<path fill-rule="evenodd" clip-rule="evenodd" d="M387.152 66.5721C392.177 67.2316 396.922 67.8199 401.484 68.4794C404.761 70.7618 407.87 73.1082 411.232 75.6786C406.634 75.0902 401.992 74.6707 397.249 74.157C393.867 71.5404 390.528 69.0571 387.154 66.5703L387.152 66.5721Z" fill="#1A1A1A"/>
<path fill-rule="evenodd" clip-rule="evenodd" d="M403.648 68.6719C408.14 69.3189 412.428 69.8237 416.636 70.4334C419.55 72.6963 422.604 74.8792 425.697 77.2504C421.616 76.7563 417.402 76.3225 413.141 75.7804C410.019 73.4055 406.9 71.0911 403.648 68.6719Z" fill="#1A1A1A"/>
<path fill-rule="evenodd" clip-rule="evenodd" d="M392.017 60.2578C396.585 60.9315 400.963 61.671 405.243 62.3393C408.322 64.62 411.333 66.8082 414.348 69.0035C410.309 68.424 405.924 67.864 401.324 67.2099C398.286 64.947 395.115 62.6078 392.015 60.2578H392.017Z" fill="#1A1A1A"/>
<path fill-rule="evenodd" clip-rule="evenodd" d="M342.329 62.6562C348.9 63.4153 355.019 64.121 360.84 64.6276C364.712 67.4201 368.259 70.2856 371.689 72.9733C366.04 72.5769 360.023 72.008 353.643 71.4339C350.014 68.5347 346.24 65.5963 342.331 62.658L342.329 62.6562Z" fill="#1A1A1A"/>
<path fill-rule="evenodd" clip-rule="evenodd" d="M519.668 116.837C521.063 116.515 522.341 116.174 523.562 115.898C525.457 117.466 527.415 119.066 529.271 120.826C528.328 121.236 527.217 121.731 526.043 122.179C524.016 120.467 521.836 118.595 519.668 116.837Z" fill="#1A1A1A"/>
<path fill-rule="evenodd" clip-rule="evenodd" d="M514.44 117.949C516.076 117.628 517.593 117.277 519.05 116.961C521.276 118.845 523.401 120.657 525.426 122.377C524.248 122.918 522.951 123.422 521.534 123.94C519.23 121.938 516.827 119.89 514.44 117.949Z" fill="#1A1A1A"/>
<path fill-rule="evenodd" clip-rule="evenodd" d="M508.365 119.098C510.243 118.819 511.95 118.432 513.595 118.039C516.091 120.153 518.494 122.154 520.738 124.109C519.202 124.525 517.657 125.014 515.825 125.402C513.36 123.294 510.798 121.175 508.363 119.098H508.365Z" fill="#1A1A1A"/>
<path fill-rule="evenodd" clip-rule="evenodd" d="M500.609 120.394C502.805 119.997 504.936 119.578 507.053 119.297C509.543 121.364 512.152 123.682 514.672 125.87C512.767 126.304 510.908 126.939 508.986 127.568C506.25 125.104 503.361 122.763 500.609 120.392V120.394Z" fill="#1A1A1A"/>
<path fill-rule="evenodd" clip-rule="evenodd" d="M492.185 121.562C494.751 121.24 497.305 120.918 499.456 120.508C502.264 122.84 505.151 125.211 507.941 127.655C505.772 128.247 503.482 128.761 501.118 129.321C498.289 126.783 495.31 124.218 492.185 121.562Z" fill="#1A1A1A"/>
<path fill-rule="evenodd" clip-rule="evenodd" d="M482.573 123.097C485.528 122.715 488.242 122.285 490.832 121.828C494.067 124.576 497.097 127.216 499.926 129.717C497.549 130.286 494.976 130.995 492.334 131.662C489.017 128.727 485.948 126.03 482.573 123.096V123.097Z" fill="#1A1A1A"/>
<path fill-rule="evenodd" clip-rule="evenodd" d="M471.724 125C475.085 124.52 478.206 123.978 481.251 123.461C484.507 126.358 487.746 129.147 491.006 132.031C488.215 132.791 485.234 133.533 482.181 134.279C478.729 131.129 475.134 127.972 471.724 125Z" fill="#1A1A1A"/>
<path fill-rule="evenodd" clip-rule="evenodd" d="M458 126.67C461.857 126.026 465.551 125.545 468.986 125.125C472.51 128.065 476.086 131.283 479.59 134.423C476.34 135.072 472.833 135.771 469.333 136.738C465.48 133.197 461.812 129.908 457.997 126.67H458Z" fill="#1A1A1A"/>
<path fill-rule="evenodd" clip-rule="evenodd" d="M443.885 128.756C448.231 128.047 452.511 127.245 456.266 126.625C460.115 130.008 464.011 133.342 467.689 136.8C463.983 137.747 460.062 138.782 455.782 139.628C451.86 135.979 447.906 132.438 443.885 128.758V128.756Z" fill="#1A1A1A"/>
<path fill-rule="evenodd" clip-rule="evenodd" d="M427.108 131.266C432.142 130.534 437.134 129.899 441.446 128.859C445.507 132.606 449.657 136.386 453.508 140.065C449.228 141.102 444.732 142.156 439.972 143.158C435.619 139.072 431.452 135.204 427.106 131.266H427.108Z" fill="#1A1A1A"/>
<path fill-rule="evenodd" clip-rule="evenodd" d="M408.1 134.633C414.014 133.611 419.453 132.697 424.565 131.727C428.954 135.762 433.387 139.793 437.719 143.997C432.385 145.233 427.465 146.774 421.819 147.981C417.155 143.492 412.544 139.023 408.1 134.633Z" fill="#1A1A1A"/>
<path fill-rule="evenodd" clip-rule="evenodd" d="M386.13 138.839C393.047 137.705 399.177 136.633 405.358 135.508C409.971 139.939 414.573 144.451 419.182 148.861C413.41 150.457 407.297 152.02 400.884 153.619C395.81 148.445 390.988 143.58 386.13 138.839Z" fill="#1A1A1A"/>
<path fill-rule="evenodd" clip-rule="evenodd" d="M157.455 113.22C161.809 110.308 166.072 107.37 169.968 104.688C176.263 107.668 182.529 110.445 188.857 113.593C185.326 116.677 181.829 119.911 177.603 123.219C170.779 119.845 163.96 116.491 157.457 113.22H157.455Z" fill="#1A1A1A"/>
<path fill-rule="evenodd" clip-rule="evenodd" d="M371.065 107.246C372.798 105.786 374.49 104.428 376.25 103.266C378.701 104.702 381.255 106.232 383.777 107.688C382.211 109.069 380.733 110.554 379.143 112.223C376.429 110.525 373.722 108.84 371.063 107.246H371.065Z" fill="#1A1A1A"/>
<path fill-rule="evenodd" clip-rule="evenodd" d="M439.628 53.3258C440.302 52.4654 440.921 51.5695 441.491 50.6719C443.697 52.1988 446.052 53.852 448.365 55.4624C448.005 56.4952 447.495 57.4391 446.919 58.4505C444.499 56.7494 442.039 55.0198 439.63 53.3258H439.628Z" fill="#1A1A1A"/>
<path fill-rule="evenodd" clip-rule="evenodd" d="M81.4729 202.578C86.9158 199.014 92.0494 195.6 97.0357 192.594C103.528 194.265 109.899 196.243 116.584 198.131C111.736 201.416 106.966 204.966 102.062 208.791C95.0898 206.597 87.957 204.621 81.4708 202.577L81.4729 202.578Z" fill="#1A1A1A"/>
<path fill-rule="evenodd" clip-rule="evenodd" d="M424.091 64.8876C424.626 64.3952 425.049 63.9153 425.469 63.4531C426.903 64.3241 428.345 65.1791 429.738 66.0324C429.416 66.5603 429.083 67.1807 428.71 67.6997C427.167 66.7665 425.682 65.8404 424.091 64.8858V64.8876Z" fill="#1A1A1A"/>
<path fill-rule="evenodd" clip-rule="evenodd" d="M374.684 42.3597C375.977 41.8993 377.202 41.4923 378.414 41.1172C380.242 42.1571 382.068 43.2325 383.938 44.3666C382.918 44.8803 381.797 45.3371 380.524 45.9273C378.62 44.6848 376.651 43.524 374.684 42.3615V42.3597Z" fill="#1A1A1A"/>
<path fill-rule="evenodd" clip-rule="evenodd" d="M99.6896 84.5501C104.815 82.7867 109.579 81.2474 114.107 79.7969C119.961 81.8269 125.504 83.7715 130.809 85.8335C126.718 87.5418 122.411 89.2909 117.591 91.4417C111.403 89.0296 105.391 86.637 99.6896 84.5501Z" fill="#1A1A1A"/>
<path fill-rule="evenodd" clip-rule="evenodd" d="M395.643 39.6166C396.423 39.309 397.008 38.9055 397.627 38.6016C399.116 39.4157 400.535 40.3347 401.969 41.2217C401.444 41.611 400.96 42.0714 400.326 42.4269C398.898 41.515 397.273 40.5498 395.643 39.6166Z" fill="#1A1A1A"/>
<path fill-rule="evenodd" clip-rule="evenodd" d="M428.224 32.8978C428.638 32.6454 429.09 32.4516 429.498 32.2188C430.571 32.9138 431.747 33.6319 432.777 34.295C432.421 34.5651 432.112 34.8389 431.794 35.1517C430.618 34.4105 429.398 33.655 428.224 32.8978Z" fill="#1A1A1A"/>
<path fill-rule="evenodd" clip-rule="evenodd" d="M506.889 101.348C507.064 100.975 507.295 100.601 507.414 100.242C508.272 100.733 509.072 101.293 509.93 101.805C509.864 102.238 509.744 102.649 509.625 103.06C508.658 102.485 507.798 101.917 506.889 101.348Z" fill="#1A1A1A"/>
<path fill-rule="evenodd" clip-rule="evenodd" d="M77.5355 142.414C81.184 140.954 84.1369 139.577 87.252 138.258C91.8265 139.34 96.2069 140.32 100.572 141.379C97.8946 142.732 94.8627 144.309 91.6537 145.802C86.8723 144.714 82.1889 143.53 77.5355 142.414Z" fill="#1A1A1A"/>
<path fill-rule="evenodd" clip-rule="evenodd" d="M346.03 35.3021C347.31 34.9857 348.618 34.7688 349.725 34.4453C351.507 35.4176 353.389 36.4273 355.074 37.3641C354.001 37.7587 352.996 38.0947 351.81 38.4644C350.037 37.4459 347.963 36.3224 346.03 35.3021Z" fill="#1A1A1A"/>
<path fill-rule="evenodd" clip-rule="evenodd" d="M393.205 11.2684C394.018 11.1422 394.831 11.0338 395.629 11C396.969 11.711 398.245 12.5234 399.527 13.302C398.768 13.4122 398.004 13.533 397.238 13.6735C395.868 12.8345 394.537 12.0363 393.205 11.2684Z" fill="#1A1A1A"/>
<path fill-rule="evenodd" clip-rule="evenodd" d="M413.444 40.7115C414.182 40.516 414.909 40.3773 415.59 40.2031C416.736 40.8928 418.033 41.6501 419.236 42.3327C418.551 42.5353 417.92 42.7237 417.231 42.9299C415.933 42.1762 414.736 41.467 413.441 40.7115H413.444Z" fill="#1A1A1A"/>
<path fill-rule="evenodd" clip-rule="evenodd" d="M537.962 120.379C538.171 120.094 538.327 119.87 538.538 119.586C539.215 119.973 539.889 120.365 540.51 120.729C540.358 121.022 540.26 121.298 540.049 121.536C539.37 121.168 538.636 120.772 537.962 120.379Z" fill="#1A1A1A"/>
<path fill-rule="evenodd" clip-rule="evenodd" d="M430.84 56.5692C431.578 56.3666 432.27 56.1337 432.948 55.9844C434.028 56.5976 435.214 57.2553 436.354 57.8668C435.669 58.0695 434.984 58.2828 434.346 58.5245C433.213 57.8793 432.024 57.2305 430.84 56.5692Z" fill="#1A1A1A"/>
<path fill-rule="evenodd" clip-rule="evenodd" d="M315.987 65.0537C317.589 64.7035 319.125 64.3463 320.602 64.0156C322.545 64.892 324.438 65.7256 326.488 66.6429C324.971 66.9326 323.482 67.329 321.995 67.697C320.062 66.794 317.945 65.8981 315.987 65.0537Z" fill="#1A1A1A"/>
<path fill-rule="evenodd" clip-rule="evenodd" d="M543.136 114.233C543.334 113.943 543.593 113.693 543.793 113.469C544.457 113.822 545.069 114.192 545.684 114.606C545.485 114.853 545.282 115.111 545.084 115.399C544.414 115.003 543.746 114.606 543.136 114.233Z" fill="#1A1A1A"/>
<path fill-rule="evenodd" clip-rule="evenodd" d="M448.715 70.4507C449.4 70.2498 450.091 69.985 450.72 69.7734C451.781 70.3654 452.737 70.9075 453.748 71.4852C453.172 71.7092 452.592 71.9616 451.956 72.2318C450.893 71.6168 449.826 71.08 448.715 70.4489V70.4507Z" fill="#1A1A1A"/>
<path fill-rule="evenodd" clip-rule="evenodd" d="M440.022 46.9204C440.622 46.7906 441.208 46.7409 441.804 46.6484C442.676 47.1462 443.592 47.7025 444.471 48.17C443.98 48.2589 443.383 48.3869 442.883 48.5291C441.915 47.9692 440.995 47.4288 440.022 46.9222V46.9204Z" fill="#1A1A1A"/>
<path fill-rule="evenodd" clip-rule="evenodd" d="M0.000771474 175.165C4.86972 173.938 10.0181 172.483 15.2221 171.219C20.0419 172.083 25.248 172.698 30.1426 173.453C25.4635 174.651 20.3961 176.056 15.7149 177.447C10.2464 176.678 5.18763 175.968 0.000771474 175.167V175.165Z" fill="#1A1A1A"/>
<path fill-rule="evenodd" clip-rule="evenodd" d="M374.183 18.5938C375.256 18.6293 376.223 18.6382 377.189 18.6453C378.322 19.2479 379.504 19.8772 380.725 20.5509C379.762 20.5135 378.881 20.5811 377.91 20.574C376.69 19.902 375.467 19.223 374.185 18.5938H374.183Z" fill="#1A1A1A"/>
<path fill-rule="evenodd" clip-rule="evenodd" d="M529.778 117.783C530.107 117.579 530.435 117.367 530.651 117.172C531.263 117.499 531.933 117.872 532.492 118.171C532.277 118.39 532.006 118.576 531.735 118.811C531.065 118.432 530.448 118.116 529.778 117.785V117.783Z" fill="#1A1A1A"/>
<path fill-rule="evenodd" clip-rule="evenodd" d="M240.466 95.995C242.89 95.5008 245.486 95.2058 247.959 94.7578C250.396 95.4671 252.613 96.0874 254.791 96.8162C252.546 97.1611 250.116 97.6464 247.579 98.1316C245.209 97.3993 242.774 96.6954 240.468 95.995H240.466Z" fill="#1A1A1A"/>
<path fill-rule="evenodd" clip-rule="evenodd" d="M248.741 132.825C250.928 131.682 253.091 130.545 255.268 129.555C258.314 130.534 261.421 131.686 264.549 132.797C262.524 133.926 260.512 135.026 258.479 136.309C255.088 135.022 251.877 133.944 248.741 132.824V132.825Z" fill="#1A1A1A"/>
<path fill-rule="evenodd" clip-rule="evenodd" d="M536.686 127.104C536.895 126.601 537.047 126.087 537.2 125.648C538.056 126.162 538.971 126.731 539.889 127.323C539.797 127.837 539.703 128.42 539.558 128.946C538.636 128.34 537.661 127.723 536.686 127.103V127.104Z" fill="#1A1A1A"/>
<path fill-rule="evenodd" clip-rule="evenodd" d="M301.696 87.3446C303.667 86.4024 305.485 85.5616 307.173 84.7422C309.767 85.9456 312.471 87.2237 315.172 88.5249C313.474 89.3976 311.957 90.4464 310.064 91.3476C307.192 89.9985 304.45 88.6564 301.696 87.3446Z" fill="#1A1A1A"/>
</g>
<defs>
<clipPath id="clip0_1199_913">
<rect width="555" height="253" fill="white" transform="matrix(-1 0 0 1 555 0)"/>
</clipPath>
</defs>
</svg>
