<svg width="462" height="437" viewBox="0 0 462 437" fill="none" xmlns="http://www.w3.org/2000/svg">
<path d="M13.9268 436.332H458.84" stroke="#263238" stroke-linecap="round" stroke-linejoin="round"/>
<path d="M185.914 21.5908H31.5127V231.582H185.914V21.5908Z" stroke="#263238" stroke-linecap="round" stroke-linejoin="round"/>
<path d="M181.626 27.4268H35.7998V225.756H181.626V27.4268Z" stroke="#263238" stroke-linecap="round" stroke-linejoin="round"/>
<path d="M35.8403 37.7588H181.468" stroke="#263238" stroke-linecap="round" stroke-linejoin="round"/>
<path d="M35.8403 48.8838H181.468" stroke="#263238" stroke-linecap="round" stroke-linejoin="round"/>
<path d="M35.8403 60.0107H181.468" stroke="#263238" stroke-linecap="round" stroke-linejoin="round"/>
<path d="M35.8403 71.126H181.468" stroke="#263238" stroke-linecap="round" stroke-linejoin="round"/>
<path d="M35.8403 82.252H181.468" stroke="#263238" stroke-linecap="round" stroke-linejoin="round"/>
<path d="M35.8403 93.3779H181.468" stroke="#263238" stroke-linecap="round" stroke-linejoin="round"/>
<path d="M35.8403 104.503H181.468" stroke="#263238" stroke-linecap="round" stroke-linejoin="round"/>
<path d="M35.8403 115.63H181.468" stroke="#263238" stroke-linecap="round" stroke-linejoin="round"/>
<path d="M35.8403 126.745H181.468" stroke="#263238" stroke-linecap="round" stroke-linejoin="round"/>
<path d="M35.8403 137.871H181.468" stroke="#263238" stroke-linecap="round" stroke-linejoin="round"/>
<path d="M35.8403 148.997H181.468" stroke="#263238" stroke-linecap="round" stroke-linejoin="round"/>
<path d="M35.8403 160.123H181.468" stroke="#263238" stroke-linecap="round" stroke-linejoin="round"/>
<path d="M35.8403 171.248H181.468" stroke="#263238" stroke-linecap="round" stroke-linejoin="round"/>
<path d="M35.8403 182.364H181.468" stroke="#263238" stroke-linecap="round" stroke-linejoin="round"/>
<path d="M35.8403 193.49H181.468" stroke="#263238" stroke-linecap="round" stroke-linejoin="round"/>
<path d="M35.8403 204.616H181.468" stroke="#263238" stroke-linecap="round" stroke-linejoin="round"/>
<path d="M35.8403 215.742H181.468" stroke="#263238" stroke-linecap="round" stroke-linejoin="round"/>
<path d="M256.262 21.5908H253.225V165.323H256.262V21.5908Z" fill="#263238"/>
<path d="M261.512 21.5908H258.475V165.323H261.512V21.5908Z" fill="#263238"/>
<path d="M273.958 21.5908H270.921V152.361H273.958V21.5908Z" fill="#263238"/>
<path d="M302.72 21.5908H299.683V152.361H302.72V21.5908Z" fill="#263238"/>
<path d="M322.352 21.5908H319.315V152.361H322.352V21.5908Z" fill="#263238"/>
<path d="M343.094 21.5908H340.057V152.361H343.094V21.5908Z" fill="#263238"/>
<path d="M348.622 21.5908H345.585V165.323H348.622V21.5908Z" fill="#263238"/>
<path d="M354.151 21.5908H351.114V165.323H354.151V21.5908Z" fill="#263238"/>
<path d="M374.339 21.5908H371.302V152.361H374.339V21.5908Z" fill="#263238"/>
<path d="M395.359 21.5908H392.322V152.361H395.359V21.5908Z" fill="#263238"/>
<path d="M415.547 21.5908H412.51V152.361H415.547V21.5908Z" fill="#263238"/>
<path d="M421.362 21.5908H418.315V152.361H421.362V21.5908Z" fill="#263238"/>
<path d="M435.733 21.5908H432.696V152.361H435.733V21.5908Z" fill="#263238"/>
<path d="M441.818 21.5908H438.781V165.323H441.818V21.5908Z" fill="#263238"/>
<path d="M447.624 21.5908H444.587V165.323H447.624V21.5908Z" fill="#263238"/>
<path d="M281.699 21.5908H276.171V152.361H281.699V21.5908Z" fill="#263238"/>
<path d="M290.552 21.5908H285.024V152.361H290.552V21.5908Z" fill="#263238"/>
<path d="M316.545 21.5908H311.017V152.361H316.545V21.5908Z" fill="#263238"/>
<path d="M330.926 21.5908H325.398V152.361H330.926V21.5908Z" fill="#263238"/>
<path d="M365.773 21.5908H357.753V152.361H365.773V21.5908Z" fill="#263238"/>
<path d="M385.682 21.5908H377.663V152.361H385.682V21.5908Z" fill="#263238"/>
<path d="M406.425 21.5908H398.405V152.361H406.425V21.5908Z" fill="#263238"/>
<path d="M278.95 180.617C277.87 180.673 276.798 180.403 275.873 179.843C275.091 179.313 274.502 178.543 274.196 177.65C273.823 176.585 273.645 175.462 273.67 174.335C273.653 173.512 273.75 172.69 273.958 171.893C274.115 171.313 274.374 170.766 274.722 170.276C275.011 169.886 275.368 169.55 275.774 169.283C276.138 169.04 276.516 168.818 276.905 168.618C276.004 168.249 275.24 167.607 274.722 166.782C274.119 165.749 273.83 164.563 273.888 163.368C273.872 162.376 274.04 161.39 274.384 160.46C274.697 159.639 275.268 158.942 276.012 158.475C276.915 157.954 277.949 157.706 278.99 157.76C280.015 157.709 281.034 157.961 281.917 158.485C282.636 158.97 283.189 159.663 283.505 160.47C283.85 161.407 284.018 162.399 284.002 163.398C284.065 164.578 283.782 165.751 283.188 166.772C282.664 167.586 281.906 168.222 281.014 168.598C281.402 168.796 281.776 169.018 282.136 169.263C282.519 169.537 282.855 169.872 283.128 170.256C283.479 170.747 283.744 171.294 283.912 171.874C284.129 172.669 284.229 173.491 284.21 174.315C284.235 175.443 284.057 176.565 283.684 177.63C283.378 178.521 282.793 179.29 282.017 179.823C281.096 180.388 280.028 180.664 278.95 180.617ZM278.95 179.019C279.599 179.051 280.24 178.87 280.776 178.503C281.295 178.118 281.675 177.575 281.858 176.955C282.307 175.305 282.307 173.564 281.858 171.913C281.687 171.277 281.344 170.699 280.865 170.246C280.325 169.792 279.645 169.536 278.94 169.521C278.216 169.534 277.517 169.789 276.955 170.246C276.454 170.691 276.089 171.269 275.903 171.913C275.676 172.7 275.569 173.516 275.585 174.335C275.557 175.224 275.685 176.11 275.962 176.955C276.144 177.59 276.539 178.143 277.082 178.519C277.625 178.896 278.281 179.072 278.94 179.019H278.95ZM278.95 167.665C279.611 167.675 280.255 167.45 280.766 167.03C281.219 166.614 281.542 166.077 281.699 165.482C281.886 164.77 281.977 164.035 281.967 163.298C282.04 162.256 281.79 161.217 281.252 160.321C280.981 159.978 280.628 159.707 280.226 159.534C279.824 159.361 279.386 159.29 278.95 159.328C278.509 159.289 278.066 159.36 277.659 159.533C277.253 159.706 276.895 159.977 276.617 160.321C276.064 161.211 275.807 162.253 275.883 163.298C275.872 164.036 275.965 164.771 276.161 165.482C276.323 166.088 276.67 166.63 277.153 167.03C277.664 167.437 278.297 167.661 278.95 167.665Z" fill="#263238"/>
<path d="M295.585 180.617C294.613 180.651 293.647 180.454 292.766 180.041C292.017 179.663 291.416 179.044 291.059 178.285C290.655 177.373 290.452 176.384 290.463 175.387V174.98H292.448C292.358 176.039 292.597 177.099 293.133 178.017C293.681 178.511 294.369 178.822 295.102 178.908C295.834 178.993 296.576 178.848 297.222 178.493C297.73 178.122 298.097 177.591 298.264 176.985C298.532 176.053 298.652 175.085 298.622 174.116V169.888C298.254 170.282 297.808 170.593 297.312 170.801C296.587 171.093 295.81 171.232 295.029 171.208C294.011 171.269 292.998 171.024 292.121 170.504C291.378 169.977 290.846 169.203 290.622 168.32C290.296 167.08 290.149 165.8 290.186 164.519C290.16 163.296 290.341 162.078 290.721 160.916C291.031 159.968 291.632 159.141 292.438 158.554C293.351 157.952 294.433 157.656 295.525 157.71C296.583 157.656 297.63 157.953 298.503 158.554C299.293 159.161 299.873 160.001 300.16 160.956C300.539 162.169 300.717 163.437 300.686 164.707V173.64C300.708 174.866 300.541 176.088 300.19 177.262C299.92 178.224 299.367 179.082 298.602 179.724C297.731 180.365 296.664 180.681 295.585 180.617ZM295.505 169.63C296.193 169.662 296.877 169.515 297.49 169.203C297.924 168.98 298.317 168.685 298.651 168.33V164.489C298.679 163.487 298.572 162.486 298.334 161.512C298.22 160.873 297.872 160.299 297.358 159.903C296.845 159.507 296.202 159.316 295.555 159.368C294.912 159.344 294.277 159.521 293.739 159.874C293.216 160.266 292.833 160.816 292.647 161.442C292.386 162.304 292.265 163.202 292.29 164.102C292.275 165.128 292.345 166.154 292.498 167.169C292.577 167.862 292.893 168.507 293.391 168.995C293.997 169.454 294.747 169.679 295.505 169.63Z" fill="#263238"/>
<path d="M313.379 180.369V173.809H306.63V171.734L312.992 157.929H315.374V171.963H317.944V173.789H315.374V180.369H313.379ZM308.674 171.982H313.379V160.608L308.674 171.982Z" fill="#263238"/>
<path d="M324.426 180.369L328.803 159.527H322.015V157.899H330.878V158.892L326.392 180.369H324.426Z" fill="#263238"/>
<path d="M368.909 180.617C367.792 180.679 366.686 180.38 365.753 179.764C364.969 179.171 364.39 178.349 364.095 177.411C363.751 176.31 363.583 175.161 363.599 174.007V164.261C363.577 163.102 363.752 161.948 364.115 160.847C364.416 159.915 365.007 159.105 365.802 158.534C366.726 157.942 367.813 157.654 368.909 157.711C370.021 157.648 371.125 157.936 372.065 158.534C372.854 159.108 373.442 159.918 373.742 160.847C374.101 161.949 374.275 163.102 374.258 164.261V174.007C374.277 175.172 374.106 176.332 373.752 177.441C373.466 178.377 372.884 179.195 372.095 179.774C371.149 180.386 370.033 180.682 368.909 180.617ZM368.909 179.019C369.629 179.059 370.338 178.825 370.894 178.364C371.383 177.892 371.727 177.289 371.886 176.627C372.085 175.826 372.181 175.002 372.174 174.176V164.132C372.183 163.306 372.086 162.482 371.886 161.681C371.726 161.019 371.382 160.417 370.894 159.944C370.33 159.5 369.625 159.274 368.909 159.308C368.191 159.265 367.483 159.491 366.924 159.944C366.429 160.412 366.084 161.016 365.931 161.681C365.723 162.481 365.623 163.305 365.634 164.132V174.176C365.624 175.003 365.724 175.827 365.931 176.627C366.082 177.292 366.428 177.897 366.924 178.364C367.478 178.828 368.188 179.062 368.909 179.019Z" fill="#263238"/>
<path d="M385.99 180.618C384.873 180.681 383.766 180.382 382.834 179.764C382.048 179.174 381.468 178.351 381.176 177.412C380.826 176.312 380.659 175.162 380.68 174.008V164.261C380.66 163.103 380.831 161.95 381.186 160.847C381.487 159.916 382.078 159.105 382.873 158.535C383.83 157.995 384.911 157.711 386.01 157.711C387.109 157.711 388.189 157.995 389.146 158.535C389.933 159.109 390.517 159.919 390.813 160.847C391.176 161.948 391.351 163.102 391.329 164.261V174.008C391.346 175.171 391.179 176.33 390.833 177.442C390.543 178.376 389.962 179.193 389.176 179.774C388.229 180.384 387.114 180.679 385.99 180.618ZM385.99 179.02C386.711 179.062 387.421 178.828 387.975 178.365C388.468 177.895 388.813 177.291 388.967 176.628C389.174 175.827 389.274 175.003 389.265 174.176V164.132C389.276 163.306 389.175 162.481 388.967 161.681C388.816 161.017 388.47 160.412 387.975 159.944C387.393 159.537 386.7 159.319 385.99 159.319C385.28 159.319 384.587 159.537 384.005 159.944C383.513 160.415 383.168 161.018 383.012 161.681C382.813 162.483 382.716 163.306 382.725 164.132V174.176C382.717 175.002 382.814 175.826 383.012 176.628C383.164 177.292 383.509 177.897 384.005 178.365C384.557 178.831 385.268 179.066 385.99 179.02Z" fill="#263238"/>
<path d="M403.062 180.617C401.945 180.679 400.838 180.38 399.905 179.764C399.122 179.171 398.543 178.349 398.248 177.411C397.904 176.31 397.736 175.161 397.752 174.007V164.261C397.73 163.102 397.905 161.948 398.268 160.847C398.568 159.915 399.16 159.105 399.955 158.534C400.879 157.942 401.965 157.654 403.062 157.711C404.174 157.648 405.278 157.936 406.218 158.534C407.007 159.108 407.595 159.918 407.895 160.847C408.253 161.949 408.428 163.102 408.411 164.261V174.007C408.43 175.172 408.259 176.332 407.905 177.441C407.619 178.377 407.037 179.195 406.248 179.774C405.302 180.386 404.186 180.682 403.062 180.617ZM403.062 179.019C403.782 179.059 404.491 178.825 405.047 178.364C405.536 177.892 405.88 177.289 406.039 176.627C406.238 175.826 406.334 175.002 406.327 174.176V164.132C406.336 163.306 406.239 162.482 406.039 161.681C405.879 161.019 405.535 160.417 405.047 159.944C404.483 159.5 403.778 159.274 403.062 159.308C402.344 159.265 401.636 159.491 401.077 159.944C400.582 160.412 400.236 161.016 400.084 161.681C399.876 162.481 399.776 163.305 399.786 164.132V174.176C399.777 175.003 399.877 175.827 400.084 176.627C400.235 177.292 400.581 177.897 401.077 178.364C401.63 178.828 402.341 179.062 403.062 179.019Z" fill="#263238"/>
<path d="M415.854 180.37L420.221 159.577H413.442V157.949H422.295V158.942L417.819 180.37H415.854Z" fill="#263238"/>
<path d="M231.419 344.2H130.166V436.144H231.419V344.2Z" fill="#ED3B4B"/>
<path opacity="0.3" d="M231.419 344.2H130.166V436.144H231.419V344.2Z" fill="black" stroke="#263238" stroke-linecap="round" stroke-linejoin="round"/>
<path d="M231.419 344.2H130.166V436.144H231.419V344.2Z" stroke="#263238" stroke-linecap="round" stroke-linejoin="round"/>
<path d="M202.329 344.2H130.166V436.144H202.329V344.2Z" fill="#ED3B4B" stroke="#263238" stroke-linecap="round" stroke-linejoin="round"/>
<path d="M173.557 344.2H158.055V369.866H173.557V344.2Z" fill="white" stroke="#263238" stroke-linecap="round" stroke-linejoin="round"/>
<path d="M195.501 377.369H177.527V386.54H195.501V377.369Z" fill="white"/>
<path d="M159.948 392.762L141.431 388.18L138.698 399.221L157.215 403.803L159.948 392.762Z" fill="white"/>
<path d="M311.057 344.2H209.803V436.144H311.057V344.2Z" fill="#ED3B4B"/>
<path opacity="0.3" d="M311.057 344.2H209.803V436.144H311.057V344.2Z" fill="black" stroke="#263238" stroke-linecap="round" stroke-linejoin="round"/>
<path d="M311.057 344.2H209.803V436.144H311.057V344.2Z" stroke="#263238" stroke-linecap="round" stroke-linejoin="round"/>
<path d="M281.967 344.2H209.803V436.144H281.967V344.2Z" fill="#ED3B4B" stroke="#263238" stroke-linecap="round" stroke-linejoin="round"/>
<path d="M253.195 344.2H237.692V369.866H253.195V344.2Z" fill="white" stroke="#263238" stroke-linecap="round" stroke-linejoin="round"/>
<path d="M267.793 413.883H249.819V423.053H267.793V413.883Z" fill="white"/>
<path d="M239.576 392.765L221.059 388.183L218.326 399.223L236.843 403.806L239.576 392.765Z" fill="white"/>
<path d="M391.27 344.2H290.016V436.144H391.27V344.2Z" fill="#ED3B4B"/>
<path opacity="0.3" d="M391.27 344.2H290.016V436.144H391.27V344.2Z" fill="black" stroke="#263238" stroke-linecap="round" stroke-linejoin="round"/>
<path d="M391.27 344.2H290.016V436.144H391.27V344.2Z" stroke="#263238" stroke-linecap="round" stroke-linejoin="round"/>
<path d="M362.18 344.2H290.016V436.144H362.18V344.2Z" fill="#ED3B4B" stroke="#263238" stroke-linecap="round" stroke-linejoin="round"/>
<path d="M333.397 344.2H317.895V369.866H333.397V344.2Z" fill="white" stroke="#263238" stroke-linecap="round" stroke-linejoin="round"/>
<path d="M356.046 384.871L343.075 372.428L336.727 379.046L349.697 391.488L356.046 384.871Z" fill="white"/>
<path d="M319.782 392.77L301.265 388.188L298.533 399.228L317.05 403.811L319.782 392.77Z" fill="white"/>
<path d="M272.777 252.692H171.523V344.637H272.777V252.692Z" fill="#ED3B4B"/>
<path opacity="0.3" d="M272.777 252.692H171.523V344.637H272.777V252.692Z" fill="black" stroke="#263238" stroke-linecap="round" stroke-linejoin="round"/>
<path d="M272.777 252.692H171.523V344.637H272.777V252.692Z" stroke="#263238" stroke-linecap="round" stroke-linejoin="round"/>
<path d="M243.687 252.692H171.523V344.637H243.687V252.692Z" fill="#ED3B4B" stroke="#263238" stroke-linecap="round" stroke-linejoin="round"/>
<path d="M214.915 252.692H199.412V278.358H214.915V252.692Z" fill="white" stroke="#263238" stroke-linecap="round" stroke-linejoin="round"/>
<path d="M236.858 285.852H218.884V295.022H236.858V285.852Z" fill="white"/>
<path d="M234.653 315.817L216.136 311.234L213.403 322.275L231.92 326.858L234.653 315.817Z" fill="white"/>
<path d="M352.414 252.692H251.16V344.637H352.414V252.692Z" fill="#ED3B4B"/>
<path opacity="0.3" d="M352.414 252.692H251.16V344.637H352.414V252.692Z" fill="black" stroke="#263238" stroke-linecap="round" stroke-linejoin="round"/>
<path d="M352.414 252.692H251.16V344.637H352.414V252.692Z" stroke="#263238" stroke-linecap="round" stroke-linejoin="round"/>
<path d="M323.324 252.692H251.16V344.637H323.324V252.692Z" fill="#ED3B4B" stroke="#263238" stroke-linecap="round" stroke-linejoin="round"/>
<path d="M294.552 252.692H279.049V278.358H294.552V252.692Z" fill="white" stroke="#263238" stroke-linecap="round" stroke-linejoin="round"/>
<path d="M302.988 287.182H285.014V296.352H302.988V287.182Z" fill="white"/>
<path d="M280.934 301.249L262.417 296.666L259.685 307.707L278.202 312.289L280.934 301.249Z" fill="white"/>
<path d="M82.6746 255.561C82.6746 255.561 87.508 305.672 87.8057 312.609C88.1035 319.547 84.8283 323.169 84.8283 336.429C84.8283 349.689 88.1531 412.493 88.1531 412.493C88.1531 412.493 85.1756 430.001 83.9251 432.413C83.6941 432.822 83.5769 433.285 83.5857 433.755C83.5946 434.225 83.7291 434.684 83.9752 435.084C84.2214 435.484 84.5703 435.811 84.9856 436.03C85.4009 436.25 85.8675 436.355 86.3368 436.333H102.901C102.901 436.333 105.015 433.018 104.41 430.001C103.805 426.984 101.433 410.985 101.433 410.985C101.433 410.985 118.632 324.638 119.536 319.229C120.439 313.82 127.992 263.094 127.992 263.094L127.088 312.292C127.088 312.292 124.974 333.719 127.386 349.113C129.798 364.506 136.745 413.396 136.745 413.396L137.043 436.333H175.978C175.978 436.333 177.189 433.623 175.075 432.115C172.961 430.606 166.619 427.579 163.602 424.562C160.585 421.545 152.139 411.888 152.139 411.888C152.139 411.888 155.761 355.753 156.962 340.359C158.163 324.966 159.94 314.703 161.19 306.247C162.441 297.791 165.418 261.585 165.418 253.735C165.418 245.884 131.912 241.358 131.912 241.358L82.4165 246.49L82.6746 255.561Z" fill="#263238" stroke="#263238" stroke-linecap="round" stroke-linejoin="round"/>
<path d="M104.391 430.02C103.835 427.241 101.741 413.485 101.413 411.302H88.0442C88.0442 412.086 88.1137 412.513 88.1137 412.513C88.1137 412.513 85.1362 430.02 83.8857 432.432C83.6547 432.841 83.5375 433.305 83.5464 433.774C83.5552 434.244 83.6897 434.703 83.9359 435.103C84.182 435.503 84.5309 435.83 84.9462 436.05C85.3615 436.269 85.8281 436.374 86.2974 436.352H102.892C103.616 435.154 104.124 433.837 104.391 432.462C104.543 431.655 104.543 430.827 104.391 430.02ZM175.403 432.462C175.292 432.347 175.169 432.244 175.036 432.154C172.922 430.655 166.59 427.628 163.563 424.621C160.536 421.614 152.1 411.937 152.1 411.937V411.877L136.448 411.619C136.607 412.761 136.706 413.396 136.706 413.396L136.954 432.412L137.004 436.332H175.939C175.939 436.332 177.001 433.97 175.403 432.462Z" fill="white" stroke="#263238" stroke-linecap="round" stroke-linejoin="round"/>
<path d="M83.8857 432.462H104.391C104.124 433.848 103.613 435.175 102.882 436.382H86.2974C85.8281 436.404 85.3615 436.3 84.9462 436.08C84.5309 435.86 84.182 435.533 83.9359 435.133C83.6897 434.733 83.5552 434.274 83.5464 433.804C83.5375 433.335 83.6547 432.871 83.8857 432.462Z" fill="white" stroke="#263238" stroke-linecap="round" stroke-linejoin="round"/>
<path d="M175.939 436.352H137.004L136.954 432.432H175.403C177.001 433.97 175.939 436.352 175.939 436.352Z" fill="white" stroke="#263238" stroke-linecap="round" stroke-linejoin="round"/>
<path d="M163.076 159.904L172.068 172.509L192.979 181.362L187.213 195.703C187.213 195.703 168.842 195.038 166.033 193.827C164.374 193.131 162.834 192.18 161.468 191.009L161.607 159.368L163.076 159.904Z" fill="#263238" stroke="#263238" stroke-linecap="round" stroke-linejoin="round"/>
<path d="M251.826 178.34L198.719 158.082L170.438 232.221L223.545 252.479L251.826 178.34Z" fill="#ED3B4B" stroke="#263238" stroke-linecap="round" stroke-linejoin="round"/>
<path d="M251.825 178.351L239.093 173.494L210.812 247.633L223.544 252.489L251.825 178.351Z" fill="#ED3B4B"/>
<path opacity="0.3" d="M251.825 178.351L239.093 173.494L210.812 247.633L223.544 252.489L251.825 178.351Z" fill="black" stroke="#263238" stroke-linecap="round" stroke-linejoin="round"/>
<path d="M251.825 178.351L239.093 173.494L210.812 247.633L223.544 252.489L251.825 178.351Z" stroke="#263238" stroke-linecap="round" stroke-linejoin="round"/>
<path d="M209.207 161.651C209.207 161.651 213.623 159.775 214.169 160.172C214.715 160.569 215.102 164.063 215.102 164.063L209.207 161.651Z" fill="white" stroke="#263238" stroke-linecap="round" stroke-linejoin="round"/>
<path d="M214.169 160.173C214.169 160.173 218.05 160.58 218.854 161.92C219.658 163.26 218.854 165.81 218.854 165.81L215.102 164.063L214.169 160.173Z" fill="white" stroke="#263238" stroke-linecap="round" stroke-linejoin="round"/>
<path d="M218.854 161.919C218.854 161.919 221.673 162.048 222.08 163.13C222.359 164.36 222.493 165.62 222.477 166.881L218.854 165.81C218.854 165.81 219.797 163.259 218.854 161.919Z" fill="white" stroke="#263238" stroke-linecap="round" stroke-linejoin="round"/>
<path d="M222.08 163.13C222.08 163.13 225.424 162.723 225.831 164.867C226.074 166.059 226.117 167.283 225.96 168.49L222.496 166.882C222.496 166.882 222.884 163.666 222.08 163.13Z" fill="white" stroke="#263238" stroke-linecap="round" stroke-linejoin="round"/>
<path d="M169.965 257.128C165.82 258.176 161.532 258.538 157.271 258.2C150.542 257.585 139.992 251.005 139.992 251.005C139.992 251.005 119.804 258.349 104.669 260.642C95.3426 261.961 85.8332 260.747 77.1372 257.128L79.1222 233.447L80.4323 217.746L81.653 203.306L81.7225 202.392C81.7225 202.392 80.1643 196.13 78.3778 187.723C75.9264 176.27 73.068 160.787 73.1573 151.627C73.3161 135.747 82.7944 130.784 82.7944 130.784L110.167 119.013C122.692 118.547 126.523 122.527 133.411 123.906C140.299 125.286 160.933 134.764 162.194 137.513C163.047 139.449 163.92 167.288 164.347 184.716C164.536 192.011 164.645 197.46 164.645 198.373C164.645 198.641 164.645 199.365 164.764 200.358C164.992 203.454 165.538 209.608 166.203 216.754C166.65 221.716 167.196 227.185 167.652 232.425C168.843 245.457 169.965 257.128 169.965 257.128Z" fill="#ED3B4B" stroke="#263238" stroke-linecap="round" stroke-linejoin="round"/>
<path d="M81.7314 202.393C81.7314 202.393 80.1732 196.13 78.3867 187.724L164.316 184.746C164.505 192.041 164.614 197.49 164.614 198.403C164.614 198.671 164.614 199.395 164.733 200.388L81.6619 203.266L81.7314 202.393Z" fill="white" stroke="#263238" stroke-linecap="round" stroke-linejoin="round"/>
<path d="M167.621 232.495L79.1309 233.487L80.4409 217.786L166.172 216.863C166.619 221.796 167.135 227.255 167.621 232.495Z" fill="white" stroke="#263238" stroke-linecap="round" stroke-linejoin="round"/>
<path d="M138.82 185.838C138.82 185.838 141.232 225.984 139.118 248.315" stroke="#263238" stroke-linecap="round" stroke-linejoin="round"/>
<path d="M148.864 108.96C148.864 108.96 150.541 123.48 150.849 124.84C151.156 126.2 147.941 126.825 142.432 126.219L136.934 125.604C136.934 125.604 140.14 119.947 141.063 118.418C141.986 116.89 148.864 108.96 148.864 108.96Z" fill="#263238" stroke="#263238" stroke-linecap="round" stroke-linejoin="round"/>
<path d="M135.406 125.624C135.334 127.314 135.437 129.007 135.714 130.676C136.171 133.881 138.304 160.798 138.007 164.311C137.709 167.824 137.54 169.055 137.54 169.055C137.54 169.055 128.37 147.032 121.948 137.395C115.527 127.758 112.47 123.182 112.162 122.418C111.855 121.654 111.09 99.5908 111.09 99.5908C111.09 99.5908 115.06 100.97 116.896 104.027C118.733 107.084 124.39 113.506 128.37 117.922C132.349 122.339 135.406 125.624 135.406 125.624Z" fill="white" stroke="#263238" stroke-linecap="round" stroke-linejoin="round"/>
<path d="M123.991 118.199L133.479 133.811L135.901 132.362L136.933 125.623L121.619 112.949L123.991 118.199Z" fill="#263238" stroke="#263238" stroke-linecap="round" stroke-linejoin="round"/>
<path d="M130.661 135.41C126.116 136.323 115.188 124.344 111.993 120.701C112.006 121.277 112.063 121.851 112.161 122.418C112.469 123.182 115.526 127.768 121.947 137.395C128.369 147.022 137.539 169.055 137.539 169.055C137.539 169.055 137.698 167.825 138.006 164.311C138.274 161.155 136.577 139.161 135.902 132.363C134.548 133.94 132.701 135.013 130.661 135.41Z" fill="#263238" stroke="#263238" stroke-linecap="round" stroke-linejoin="round"/>
<path d="M152.377 89.9932C152.377 89.9932 150.54 100.702 150.54 103.302C150.54 105.903 150.689 109.565 146.868 114.925C143.047 120.284 139.832 125.782 137.698 126.547C136.194 126.963 134.611 127 133.09 126.653C131.569 126.307 130.158 125.588 128.984 124.562C126.076 122.12 118.731 110.955 117.818 109.883C117.133 108.99 116.566 108.012 116.131 106.975L113.997 104.533C113.997 104.533 109.709 103.154 110.027 97.8041C110.048 96.334 110.437 94.8926 111.158 93.6114C111.879 92.3303 112.91 91.2501 114.156 90.4696L120.885 84.5146C130.803 88.7994 141.594 90.6767 152.377 89.9932Z" fill="white" stroke="#263238" stroke-linecap="round" stroke-linejoin="round"/>
<path d="M145.5 96.5732C145.5 96.5732 143.664 101.774 143.664 102.23C143.664 102.687 145.341 111.252 144.428 111.867C143.515 112.483 138.473 111.093 138.473 111.093" stroke="#263238" stroke-linecap="round" stroke-linejoin="round"/>
<path d="M130.811 110.637C130.811 110.637 134.483 115.837 140.606 114.765" stroke="#263238" stroke-linecap="round" stroke-linejoin="round"/>
<path d="M134.354 101.616C135.126 101.616 135.753 100.602 135.753 99.3527C135.753 98.103 135.126 97.0898 134.354 97.0898C133.581 97.0898 132.954 98.103 132.954 99.3527C132.954 100.602 133.581 101.616 134.354 101.616Z" fill="#263238"/>
<path d="M147.961 102.498C148.734 102.498 149.36 101.485 149.36 100.236C149.36 98.9858 148.734 97.9727 147.961 97.9727C147.188 97.9727 146.562 98.9858 146.562 100.236C146.562 101.485 147.188 102.498 147.961 102.498Z" fill="#263238"/>
<path d="M132.041 95.5012C132.939 94.8008 133.977 94.3018 135.085 94.0381C136.193 93.7743 137.345 93.7521 138.462 93.9728" stroke="#263238" stroke-linecap="round" stroke-linejoin="round"/>
<path d="M147.068 94.7381C147.735 94.4838 148.46 94.4206 149.162 94.5556C149.863 94.6906 150.513 95.0184 151.038 95.5023" stroke="#263238" stroke-linecap="round" stroke-linejoin="round"/>
<path d="M122.86 88.1575C122.86 88.1575 123.475 91.9885 122.096 93.8246C120.969 95.1902 119.687 96.4193 118.275 97.4869C118.275 97.4869 115.674 92.9016 113.233 94.8866C110.791 96.8716 111.397 99.7796 112.002 101.308C112.525 102.46 113.192 103.54 113.987 104.524L113.531 123.182C109.892 122.97 106.267 122.56 102.673 121.952C99.2664 121.162 96.1109 119.535 93.4923 117.218C93.3805 112.549 94.267 107.909 96.0926 103.611C98.0671 98.9595 100.473 94.5036 103.278 90.3013L105.114 82.9668L122.86 88.1575Z" fill="#263238" stroke="#263238" stroke-linecap="round" stroke-linejoin="round"/>
<path d="M100.024 83.4034C100.024 83.4034 126.682 90.9761 129.292 92.3358C131.903 93.6955 155.167 93.1199 158.561 91.3433C161.955 89.5668 156.467 85.0708 156.467 85.0708C156.467 85.0708 153.092 81.1604 152.834 79.8503C152.576 78.5402 153.38 65.2408 147.634 58.4423C141.887 51.6437 126.424 50.6909 119.655 52.0209C111.09 53.6982 104.212 60.2486 103.428 63.1169C102.644 65.9852 102.406 77.6569 102.118 78.4409C101.83 79.225 100.024 83.4034 100.024 83.4034Z" fill="white" stroke="#263238" stroke-linecap="round" stroke-linejoin="round"/>
<path d="M166.134 164.618C166.134 164.618 167.821 159.567 169.349 159.418C170.878 159.269 175.006 162.326 176.227 161.561C177.448 160.797 182.043 150.247 181.12 148.252C180.197 146.257 160.943 139.846 158.342 140.312C155.742 140.779 150.998 162.336 150.998 162.336L166.134 164.618Z" fill="#ED3B4B" stroke="#263238" stroke-linecap="round" stroke-linejoin="round"/>
<path d="M177.457 146.069L171.969 160.272C173.636 161.056 175.482 162.029 176.227 161.562C177.457 160.798 182.043 150.248 181.12 148.253C180.891 147.757 179.472 146.963 177.457 146.069Z" fill="#263238" stroke="#263238" stroke-linecap="round" stroke-linejoin="round"/>
<path d="M153.022 162.624L159.324 140.333C158.995 140.288 158.661 140.288 158.332 140.333C155.731 140.789 150.987 162.356 150.987 162.356L153.022 162.624Z" fill="#263238" stroke="#263238" stroke-linecap="round" stroke-linejoin="round"/>
<path d="M135.098 173.025C135.098 173.025 151.037 160.52 151.454 160.52C151.871 160.52 167.205 162.663 167.82 164.648C168.236 165.939 168.236 167.328 167.82 168.618C167.671 169.085 166.292 169.69 165.835 169.998C165.379 170.305 163.542 177.342 161.706 179.02C159.87 180.697 158.947 181.163 155.89 180.707C153.393 180.154 150.978 179.28 148.705 178.106L138.78 181.769L135.098 173.025Z" fill="white" stroke="#263238" stroke-linecap="round" stroke-linejoin="round"/>
<path d="M102.217 180.975C102.217 180.975 91.2101 139.082 88.0044 135.261C84.7986 131.44 81.8807 130.368 75.9159 138.01C69.951 145.652 73.0178 163.398 76.6801 181.283C80.3424 199.167 86.9325 209.42 88.9175 209.271C90.9025 209.122 139.832 183.466 139.832 183.466L135.862 171.993L102.217 180.975Z" fill="#263238" stroke="#263238" stroke-linecap="round" stroke-linejoin="round"/>
<path d="M100.996 181.739C99.2941 182.089 97.6823 182.786 96.2616 183.787C94.8408 184.788 93.6416 186.07 92.7388 187.555" stroke="white" stroke-linecap="round" stroke-linejoin="round"/>
<path d="M93.6615 182.503C93.6615 182.503 92.282 183.734 90.5947 189.232" stroke="white" stroke-linecap="round" stroke-linejoin="round"/>
</svg>
