<svg width="60" height="60" viewBox="0 0 60 60" fill="none" xmlns="http://www.w3.org/2000/svg">
<rect x="0.5" y="0.5" width="59" height="59" rx="29.5" fill="#141414"/>
<rect x="0.5" y="0.5" width="59" height="59" rx="29.5" stroke="#1FC827"/>
<path fill-rule="evenodd" clip-rule="evenodd" d="M28.5862 19.7479C29.1093 18.4903 30.8908 18.4903 31.4139 19.7479L33.8429 25.5879L40.1477 26.0933C41.5053 26.2022 42.0559 27.8965 41.0215 28.7826L36.2179 32.8974L37.6854 39.0498C38.0015 40.3746 36.5602 41.4218 35.3978 40.7118L30.0001 37.4149L24.6023 40.7118C23.4399 41.4218 21.9986 40.3746 22.3147 39.0498L23.7822 32.8974L18.9787 28.7826C17.9442 27.8965 18.4948 26.2022 19.8525 26.0933L26.1572 25.5879L28.5862 19.7479Z" fill="#1FC827"/>
</svg>
