<svg width="40" height="40" viewBox="0 0 40 40" fill="none" xmlns="http://www.w3.org/2000/svg">
<rect width="40" height="40" rx="20" fill="#141414"/>
<path d="M28.3327 14.8364C27.7063 15.1082 27.0439 15.2878 26.366 15.3698C27.0812 14.9425 27.6171 14.2704 27.8743 13.4781C27.2023 13.8782 26.4667 14.16 25.6993 14.3114C25.1865 13.7552 24.5035 13.385 23.7575 13.2588C23.0116 13.1326 22.2448 13.2576 21.5775 13.6141C20.9102 13.9706 20.3801 14.5385 20.0704 15.2288C19.7606 15.9191 19.6888 16.6926 19.866 17.4281C18.5072 17.3594 17.178 17.0056 15.9649 16.3897C14.7517 15.7737 13.6817 14.9095 12.8243 13.8531C12.5236 14.3782 12.3656 14.973 12.366 15.5781C12.3649 16.1401 12.5029 16.6936 12.7675 17.1894C13.0321 17.6852 13.4152 18.1079 13.8827 18.4198C13.3393 18.405 12.8076 18.2592 12.3327 17.9948V18.0364C12.3368 18.8238 12.6127 19.5857 13.1138 20.1931C13.6149 20.8005 14.3104 21.2161 15.0827 21.3698C14.7854 21.4602 14.4767 21.5079 14.166 21.5114C13.9509 21.5089 13.7364 21.4894 13.5243 21.4531C13.7443 22.1304 14.1699 22.7224 14.7419 23.1466C15.314 23.5707 16.004 23.8061 16.716 23.8198C15.5137 24.7658 14.0293 25.2822 12.4993 25.2864C12.2208 25.2874 11.9425 25.2707 11.666 25.2364C13.228 26.245 15.0484 26.7804 16.9077 26.7781C18.1908 26.7914 19.4636 26.549 20.6519 26.0648C21.8403 25.5807 22.9202 24.8647 23.8287 23.9585C24.7372 23.0524 25.456 21.9743 25.9431 20.7872C26.4303 19.6001 26.676 18.3279 26.666 17.0448C26.666 16.9031 26.666 16.7531 26.666 16.6031C27.3199 16.1154 27.8839 15.5176 28.3327 14.8364V14.8364Z" fill="white"/>
</svg>
