<svg width="50" height="36" viewBox="0 0 50 36" fill="none" xmlns="http://www.w3.org/2000/svg">
<path d="M22.7273 36H12.5C9.04545 36 6.09848 34.8225 3.65909 32.4675C1.2197 30.0975 0 27.21 0 23.805C0 20.88 0.886364 18.27 2.65909 15.975C4.44697 13.68 6.7803 12.2175 9.65909 11.5875C10.6136 8.1375 12.5076 5.3475 15.3409 3.2175C18.1894 1.0725 21.4091 0 25 0C29.4394 0 33.197 1.53 36.2727 4.59C39.3636 7.635 40.9091 11.355 40.9091 15.75C43.5303 16.05 45.697 17.175 47.4091 19.125C49.1364 21.045 50 23.295 50 25.875C50 28.695 49.0076 31.0875 47.0227 33.0525C45.0379 35.0175 42.6212 36 39.7727 36H27.2727V19.9125L30.9091 23.4L34.0909 20.25L25 11.25L15.9091 20.25L19.0909 23.4L22.7273 19.9125V36Z" fill="#C2C2C2"/>
</svg>
