<svg width="44" height="43" viewBox="0 0 44 43" fill="none" xmlns="http://www.w3.org/2000/svg">
<rect width="43.8776" height="43" rx="7.02041" fill="#444040"/>
<rect width="43.8776" height="43" rx="7.02041" fill="#444040"/>
<g clip-path="url(#clip0_1199_491)">
<path d="M21.9993 14.9974C23.2827 14.9974 24.3327 16.0474 24.3327 17.3307C24.3327 18.6141 23.2827 19.6641 21.9993 19.6641C20.716 19.6641 19.666 18.6141 19.666 17.3307C19.666 16.0474 20.716 14.9974 21.9993 14.9974ZM21.9993 26.6641C25.1493 26.6641 28.766 28.1691 28.9993 28.9974H14.9993C15.2677 28.1574 18.861 26.6641 21.9993 26.6641ZM21.9993 12.6641C19.421 12.6641 17.3327 14.7524 17.3327 17.3307C17.3327 19.9091 19.421 21.9974 21.9993 21.9974C24.5777 21.9974 26.666 19.9091 26.666 17.3307C26.666 14.7524 24.5777 12.6641 21.9993 12.6641ZM21.9993 24.3307C18.8843 24.3307 12.666 25.8941 12.666 28.9974V31.3307H31.3327V28.9974C31.3327 25.8941 25.1143 24.3307 21.9993 24.3307Z" fill="#999999"/>
</g>
<defs>
<clipPath id="clip0_1199_491">
<rect width="28" height="28" fill="white" transform="translate(8 8)"/>
</clipPath>
</defs>
</svg>
