<svg width="40" height="40" viewBox="0 0 40 40" fill="none" xmlns="http://www.w3.org/2000/svg">
<rect width="40" height="40" rx="20" fill="#141414"/>
<path d="M29.1669 18.0899C29.2081 16.8972 28.9472 15.7133 28.4085 14.6483C28.043 14.2113 27.5358 13.9164 26.9752 13.8149C24.6565 13.6045 22.3281 13.5183 20.0002 13.5566C17.6807 13.5166 15.3608 13.6 13.0502 13.8066C12.5934 13.8897 12.1706 14.104 11.8335 14.4233C11.0835 15.1149 11.0002 16.2983 10.9169 17.2983C10.7959 19.0962 10.7959 20.9003 10.9169 22.6983C10.941 23.2611 11.0248 23.8198 11.1669 24.3649C11.2673 24.7858 11.4706 25.1752 11.7585 25.4983C12.0979 25.8345 12.5305 26.0609 13.0002 26.1483C14.7968 26.37 16.607 26.4619 18.4169 26.4233C21.3335 26.4649 23.8919 26.4233 26.9169 26.1899C27.3981 26.108 27.8428 25.8812 28.1919 25.5399C28.4252 25.3065 28.5994 25.0209 28.7002 24.7066C28.9982 23.7921 29.1446 22.835 29.1335 21.8733C29.1669 21.4066 29.1669 18.5899 29.1669 18.0899ZM18.1169 22.3733V17.2149L23.0502 19.8066C21.6669 20.5733 19.8419 21.4399 18.1169 22.3733Z" fill="white"/>
</svg>
