<svg width="14" height="17" viewBox="0 0 14 17" fill="none" xmlns="http://www.w3.org/2000/svg">
<path fill-rule="evenodd" clip-rule="evenodd" d="M1 15V2H0.75C0.335786 2 0 1.66421 0 1.25C0 0.835786 0.335786 0.5 0.75 0.5H13.25C13.6642 0.5 14 0.835786 14 1.25C14 1.66421 13.6642 2 13.25 2H13V15H13.25C13.6642 15 14 15.3358 14 15.75C14 16.1642 13.6642 16.5 13.25 16.5H9.75C9.33579 16.5 9 16.1642 9 15.75V13.25C9 12.8358 8.66421 12.5 8.25 12.5H5.75C5.33579 12.5 5 12.8358 5 13.25V15.75C5 16.1642 4.66421 16.5 4.25 16.5H0.75C0.335786 16.5 0 16.1642 0 15.75C0 15.3358 0.335786 15 0.75 15H1ZM4 4C4 3.72386 4.22386 3.5 4.5 3.5H5.5C5.77614 3.5 6 3.72386 6 4V5C6 5.27614 5.77614 5.5 5.5 5.5H4.5C4.22386 5.5 4 5.27614 4 5V4ZM4.5 7.5C4.22386 7.5 4 7.72386 4 8V9C4 9.27614 4.22386 9.5 4.5 9.5H5.5C5.77614 9.5 6 9.27614 6 9V8C6 7.72386 5.77614 7.5 5.5 7.5H4.5ZM8 4C8 3.72386 8.22386 3.5 8.5 3.5H9.5C9.77614 3.5 10 3.72386 10 4V5C10 5.27614 9.77614 5.5 9.5 5.5H8.5C8.22386 5.5 8 5.27614 8 5V4ZM8.5 7.5C8.22386 7.5 8 7.72386 8 8V9C8 9.27614 8.22386 9.5 8.5 9.5H9.5C9.77614 9.5 10 9.27614 10 9V8C10 7.72386 9.77614 7.5 9.5 7.5H8.5Z" fill="white"/>
</svg>
